<?xml version="1.0" encoding="UTF-8"?>
<svg viewBox="0 0 39 40" version="1.1" xmlns="http://www.w3.org/2000/svg" xmlns:xlink="http://www.w3.org/1999/xlink">
    <!-- Generator: Sketch 63.1 (92452) - https://sketch.com -->
    <title>argyll</title>
    <desc>Created with Sketch.</desc>
    <g id="Page-1" stroke="none" stroke-width="1" fill="none" fill-rule="evenodd">
        <g id="argyll" fill-rule="nonzero">
            <path d="M15.178,26.7 C22.928,23.646 6.432,24.722 0,25.226 C2.339,33.533 9.928,39.626 18.934,39.626 C24.796,39.626 30.058,37.049 33.661,32.958 C31.136,30.988 21.251,29.88 21.251,29.88 C11.596,28.896 15.178,26.7 15.178,26.7" id="Path" fill="#286AA6"></path>
            <path d="M18.934,0.053 C11.813,0.053 5.567,3.813 2.045,9.468 C2.68637725,9.36560947 3.3191574,9.2151863 3.938,9.018 C5.751,8.427 6.325,8.536 6.713,8.576 C7.098,8.615 7.663,8.837 8.641,8.163 C9.618,7.49 10.411,7.348 10.849,7.555 C11.282,7.765 12.482,8.159 12.784,8.357 C13.093,8.55 13.937,9.905 15.084,10.127 C16.234,10.352 16.764,10.297 16.912,10.751 C17.063,11.205 18.162,12.654 18.162,12.654 C20.442,11.944 21.114,12.382 21.909,12.187 C22.711,11.993 23.071,11.64 23.853,12.268 C24.638,12.899 31.63,15.911 33.061,15.941 C34.491,15.977 34.761,15.176 35.725,15.329 C36.687,15.48 36.423,15.506 37.16,15.964 C37.895,16.425 37.691,15.853 38.276,16.517 C38.3569851,16.6094277 38.4573731,16.6828407 38.57,16.732 C36.985,7.264 28.797,0.052 18.934,0.052" id="Path" fill="#0D5D35"></path>
        </g>
    </g>
</svg>