<?xml version="1.0" encoding="UTF-8"?>
<svg viewBox="0 0 100 25" version="1.1" xmlns="http://www.w3.org/2000/svg" xmlns:xlink="http://www.w3.org/1999/xlink">
    <title>astrazenica</title>
    <g id="Page-1" stroke="none" stroke-width="1" fill="none" fill-rule="evenodd">
        <g id="astrazenica" fill-rule="nonzero">
            <path d="M31.778,21.702 C31.9844,21.2516 32.00324,21.064 32.00324,19.86964 C31.46772,19.954744 30.7468,20.060004 29.86264,20.24828 C28.34264,20.57878 28.08258,21.14844 28.08258,21.72014 C28.08258,22.37696 28.60206,22.93126 29.62142,22.93126 C30.56962,22.93126 31.38332,22.5492 31.77802,21.702 M33.65644,23.9576 L32.22846,23.96458 C32.22846,23.96458 32.104362,23.38586 32.06537,22.75904 C31.64977,23.18784 30.88001,24.07892 29.32797,24.07892 C27.73823,24.07892 26.55777,23.13492 26.55777,21.75512 C26.55777,21.32074 26.679082,20.88916 26.92037,20.52656 C27.38891,19.8349 28.25767,19.28196 30.69197,19.09098 L31.98461,18.98774 L31.98461,18.7807 C31.98461,17.93352 31.98461,16.5167 30.16131,16.5167 C29.01297,16.5167 28.62527,17.07238 28.48931,17.57514 L27.22663,17.04728 C27.246886,17.003334 27.269794,16.957364 27.29283,16.913416 C27.77951,16.016056 28.73059,15.462496 30.11123,15.462496 C30.86627,15.462496 31.84735,15.652792 32.48823,16.154136 C33.39743,16.845076 33.37929,18.204736 33.37929,18.204736 L33.432236,22.397936 C33.432236,22.397936 33.482458,23.615276 33.656776,23.957636 M79.286776,21.702036 C79.493816,21.251636 79.510556,21.064036 79.510556,19.869676 C78.977176,19.95478 78.254116,20.06004 77.369956,20.248316 C75.852056,20.578816 75.592716,21.148476 75.592716,21.720176 C75.592716,22.376996 76.111496,22.931296 77.128756,22.931296 C78.079816,22.931296 78.889976,22.549236 79.286756,21.702036 M81.164396,23.957636 L79.735076,23.964616 C79.735076,23.964616 79.61091,23.385896 79.572616,22.759076 C79.159096,23.187876 78.389336,24.078956 76.834616,24.078956 C75.246236,24.078956 74.068016,23.134956 74.068016,21.755156 C74.068016,21.320776 74.189324,20.889196 74.430616,20.526596 C74.899156,19.834936 75.765116,19.281996 78.198416,19.091016 L79.493856,18.987776 L79.493856,18.780736 C79.493856,17.933556 79.493856,16.516736 77.668456,16.516736 C76.522916,16.516736 76.129676,17.072416 75.998536,17.575176 L74.735856,17.047316 C74.753996,17.00337 74.776926,16.9574 74.802052,16.913452 C75.287332,16.016092 76.239812,15.462532 77.618252,15.462532 C78.375472,15.462532 79.356452,15.652828 79.996452,16.154172 C80.906352,16.845112 80.884032,18.204772 80.884032,18.204772 L80.940536,22.397972 C80.940536,22.397972 80.987204,23.615312 81.164316,23.957672 M65.569716,22.391012 C65.101176,23.187912 64.198236,24.099932 62.416716,24.099932 C60.002116,24.099932 58.616116,22.460012 58.616116,19.708732 C58.616116,16.638132 60.641516,15.462732 62.365916,15.462732 C63.867776,15.462732 65.304116,16.292432 65.787116,18.345132 C65.941208,19.036152 65.941208,19.658772 65.941208,20.003192 L60.064408,20.003192 C60.030296,21.369092 60.604128,23.098992 62.535408,23.066992 C63.323308,23.053032 63.878988,22.694692 64.232528,22.134072 L65.569716,22.391012 Z M60.101516,19.019212 L64.436916,19.019212 C64.315614,16.880812 63.082196,16.518212 62.260116,16.518212 C61.086656,16.518212 60.254916,17.379272 60.101516,19.019212 M49.964316,22.392412 C49.495836,23.189312 48.593596,24.101332 46.813316,24.101332 C44.397316,24.101332 43.007716,22.461412 43.007716,19.710132 C43.007716,16.639532 45.035916,15.464132 46.760316,15.464132 C48.260096,15.464132 49.697916,16.293832 50.182516,18.346532 C50.33591,19.037552 50.33591,19.660172 50.33591,20.004592 L44.46371,20.004592 C44.427456,21.370492 45.00125,23.100392 46.93271,23.068392 C47.72055,23.054432 48.27629,22.696092 48.63045,22.135472 L49.964316,22.392412 Z M44.498916,19.019212 L48.834316,19.019212 C48.713008,16.880812 47.479596,16.518212 46.657516,16.518212 C45.484056,16.518212 44.652916,17.379272 44.498916,19.019212 M72.446916,21.979012 C72.158956,22.540352 71.619956,23.047192 70.558816,23.047192 C69.635656,23.047192 68.086416,22.465712 68.086416,19.770192 C68.086416,19.044372 68.217486,16.474392 70.473016,16.474392 C71.612356,16.474392 72.136636,17.094252 72.379256,17.630392 L73.665696,17.092852 C72.873616,15.773692 71.444896,15.466192 70.422696,15.466192 C67.818496,15.466192 66.560096,17.561392 66.560096,19.873392 C66.560096,21.873792 67.651296,24.101392 70.542096,24.101392 C72.216176,24.101392 73.149696,23.292632 73.659296,22.486592 L72.446916,21.979012 Z M51.130916,15.778212 L51.130916,23.959072 L52.503096,23.959072 L52.503096,19.319612 C52.503096,18.713012 52.503096,18.093152 53.110416,17.489332 C53.544116,17.057752 54.065596,16.869472 54.671496,16.869472 C55.417536,16.869472 56.182416,17.213932 56.423716,17.989992 C56.511544,18.265392 56.511544,18.506632 56.511544,19.335672 L56.511544,23.959072 L57.880244,23.959072 L57.880244,19.111272 C57.880244,18.419632 57.880244,17.921072 57.740108,17.437252 C57.343328,16.088712 56.095308,15.567212 55.052308,15.567212 C54.568388,15.567212 53.266688,15.68852 52.503108,17.023732 L52.503108,15.778512 L51.130916,15.778212 Z M34.632116,13.204012 L34.632116,14.528772 L40.745516,14.528772 L34.627316,22.560372 L34.627316,23.959072 L42.530116,23.959072 L42.530116,22.667792 L36.287516,22.667792 L42.375716,14.544792 L42.375716,13.204012 L34.632116,13.204012 Z M22.340516,15.778212 L22.340516,23.959012 L23.711296,23.959012 L23.711296,20.197412 C23.711296,19.496012 23.693156,18.664872 24.058536,18.072212 C24.504076,17.347072 25.165016,17.071692 26.510736,17.061912 L26.510736,15.645072 C25.957856,15.663212 24.490136,15.698086 23.711336,17.241112 L23.711336,15.778292 L22.340516,15.778212 Z M19.614316,13.201212 L18.199636,13.791772 L18.199636,15.778232 L16.902016,15.778232 L16.902016,16.921692 L18.199636,16.921692 L18.199636,22.174892 C18.181494,23.243072 18.181494,24.014232 19.770496,24.014232 C20.289976,24.014232 20.858896,23.910992 21.100116,23.876882 L21.100116,22.743822 C20.824716,22.829622 20.462196,22.932792 20.202076,22.932792 C19.614316,22.932792 19.614316,22.519352 19.614316,21.555032 L19.614316,16.921832 L21.100116,16.921832 L21.100116,15.778372 L19.614316,15.778372 L19.614316,13.201212 Z M15.165916,21.680412 C15.165916,22.557532 14.454036,23.023992 13.239436,23.023992 C12.258376,23.023992 11.599516,22.748592 11.234236,22.114092 L9.782596,22.369332 C10.347336,23.525332 11.523596,24.078252 13.179596,24.078252 C15.427596,24.078252 16.601796,22.833712 16.601796,21.508252 C16.601796,19.804232 15.030936,19.342652 13.223196,18.977252 C12.350956,18.80293 11.326656,18.478772 11.326656,17.705512 C11.326656,17.154652 11.863576,16.518112 12.940836,16.518112 C14.041036,16.518112 14.697856,17.266252 14.798936,17.562572 L16.073536,17.031952 C15.489976,15.918492 14.321396,15.463892 13.097136,15.463892 C11.206856,15.463892 9.953336,16.396752 9.953336,17.877692 C9.953336,19.562872 11.397996,19.894092 12.796736,20.197292 C14.000196,20.455952 15.166736,20.752272 15.166736,21.680332 M8.005936,23.958932 L9.514716,23.958932 L5.592116,13.200932 L4.099256,13.200932 L0.002256,23.958732 L1.524356,23.958732 L2.727816,20.660132 L6.827616,20.660132 L8.005936,23.958932 Z M3.192136,19.455532 L4.838336,14.985532 L6.407076,19.455532 L3.192136,19.455532 Z" id="Shape" fill="#8E0B56"></path>
            <path d="M96.508,10.0812 C94.8974,9.52134 90.9134,8.0362 86.7102,7.4834 C85.26554,7.293732 84.6826,7.80692 85.27948,9.18462 C85.86444,10.54424 87.38728,12.82262 88.98188,14.53182 C90.57506,16.24074 92.30488,16.69942 92.85368,14.06744 C92.874622,13.974036 92.892762,13.879864 92.910884,13.78786 C93.044048,13.1101 93.143024,12.45404 93.193264,11.87944 C92.486264,11.55878 91.694204,11.21638 90.901464,10.88172 C90.94541,11.48624 91.016496,12.5286 91.053468,13.33052 C91.057648,13.433688 91.062528,13.53268 91.064608,13.62964 C91.11274,14.92928 90.670008,14.9244 89.930208,14.39382 C89.069048,13.77814 86.432008,10.29462 86.129608,8.75662 C86.116388,8.655542 86.163772,8.652054 86.216038,8.6681 C86.235558,8.675774 86.2558,8.684144 86.280912,8.69461 C86.283492,8.69461 86.285092,8.69601 86.287852,8.69601 C86.883312,8.93025 88.864852,9.71187 90.878452,10.56039 C91.682412,10.89925 92.489132,11.24721 93.214252,11.57557 C93.928212,11.89841 94.564812,12.20031 95.040332,12.45415 C95.909772,12.91993 96.247952,13.23639 95.883252,13.60877 C94.070412,15.44811 87.746452,18.06417 85.562052,21.29817 C85.562052,21.29817 85.552992,21.30933 85.539026,21.330256 C85.513912,21.364366 85.490894,21.40343 85.467874,21.444588 C85.460914,21.456448 85.456734,21.470396 85.449114,21.48156 C85.341688,21.678832 85.187594,22.0233 85.133234,22.44232 C85.041156,23.14868 85.407934,23.79428 86.423114,24.0683 C86.677594,24.143636 86.966954,24.198744 87.284194,24.230762 C87.3393,24.234942 87.401386,24.240522 87.463396,24.241922 C89.412896,24.336792 94.474796,23.227462 96.015796,22.542782 C97.606936,21.835742 97.132116,21.132942 96.670536,20.767522 C96.325376,20.492122 94.552936,19.504162 93.694136,19.028642 C93.464716,19.17576 93.283416,19.290782 93.056136,19.437902 C94.518916,20.331062 95.097536,20.774522 95.439936,21.036742 C95.570312,21.139914 95.499228,21.261222 95.303978,21.275162 C95.250966,21.279342 95.207788,21.281442 95.147794,21.286322 C93.758874,21.382516 91.126794,21.567302 89.891194,21.632882 C89.709892,21.644742 89.505634,21.653742 89.392654,21.657928 C89.698074,21.371368 90.043214,21.112008 90.212634,20.992108 C92.853834,19.134628 97.258834,16.523508 98.555834,15.400108 C99.511794,14.573208 102.120234,12.040908 96.508034,10.081508 M90.098434,17.071908 C89.885054,17.207864 89.670974,17.343128 89.459034,17.483268 C86.994834,16.113888 81.699434,13.475468 81.240034,13.236268 C80.748454,12.981788 79.891514,12.638048 80.000334,11.822308 C80.151638,10.677388 82.137334,8.172308 82.981134,7.143108 C87.549534,1.556908 89.595134,-0.166892 90.952734,0.012308 C92.399494,0.201278 93.202734,1.696848 93.299534,8.699308 C92.492854,8.449648 91.600394,8.193068 90.651534,7.956068 C90.573406,6.938748 90.384514,5.402868 90.311954,4.872868 C90.231104,4.274648 90.114612,4.047368 89.873414,4.014568 C89.600114,3.979688 88.934214,4.619088 88.329694,5.237528 C88.054294,5.517808 87.277554,6.303608 86.421374,7.166808 C85.705334,7.120074 85.227014,7.26928 84.962774,7.617928 C84.752174,7.899608 84.705454,8.284468 84.831704,8.768348 C84.368024,9.230648 83.970544,9.630128 83.718164,9.881168 C82.765004,10.831468 81.758924,11.617288 81.706564,12.002968 C81.665494,12.317428 82.147904,12.643668 82.833324,13.053028 C84.510884,14.054228 88.637924,16.286028 90.098724,17.072028" id="Shape" fill="#F8A717"></path>
        </g>
    </g>
</svg>