<?xml version="1.0" encoding="UTF-8"?>
<svg viewBox="0 0 101 25" version="1.1" xmlns="http://www.w3.org/2000/svg" xmlns:xlink="http://www.w3.org/1999/xlink">
    <title>Shape</title>
    <g id="Page-1" stroke="none" stroke-width="1" fill="none" fill-rule="evenodd">
        <g id="boohoo" fill="#000000" fill-rule="nonzero">
            <path d="M28.9079864,8.57058279 L20.9215541,8.57058279 C18.8555658,8.57058279 17.2211433,10.297379 17.2211433,12.3633673 L17.2211433,20.2572926 C17.2040667,22.3231023 18.8559492,24.0162819 20.9215541,24.0500771 L28.9079864,24.0500771 C30.9739747,24.0500771 32.608264,22.3232809 32.608264,20.2572926 L32.608264,12.3325316 C32.608264,10.2665433 30.9739747,8.57058279 28.9079864,8.53974715 L28.9079864,8.57058279 Z M30.2647549,13.4117792 L30.2647549,19.270552 C30.2647549,20.5964847 29.2163429,21.706568 27.8904101,21.7374036 L21.9391304,21.7374036 C20.6058271,21.7037507 19.5474784,20.6041676 19.5647857,19.270552 L19.5647857,13.4117792 C19.5647857,12.0550108 20.6131977,10.9449275 21.9391304,10.9449275 L27.8904101,10.9449275 C29.2163429,10.9449275 30.2955905,12.0858464 30.2647549,13.4117792 L30.2647549,13.4117792 Z M45.8675917,8.53974715 L37.8503238,8.53974715 C35.7843355,8.57058279 34.149913,10.297379 34.149913,12.3633673 L34.149913,20.2572926 C34.1328364,22.3231023 35.7847189,24.0162819 37.8503238,24.0500771 L45.8675917,24.0500771 C47.93358,24.0500771 49.5678693,22.3232809 49.5678693,20.2572926 L49.5678693,12.3325316 C49.5678693,10.2665433 47.93358,8.57058279 45.8675917,8.53974715 Z M47.1935245,13.4117792 L47.1935245,19.270552 C47.2243602,20.5964847 46.1759482,21.706568 44.8191798,21.7374036 L38.8987357,21.7374036 C37.5654324,21.7037507 36.5070837,20.6041676 36.524391,19.270552 L36.524391,13.4117792 C36.524391,12.0550108 37.572803,10.9449275 38.9295714,10.9449275 L44.8500154,10.9449275 C46.1759482,10.9757632 47.2243602,12.0858464 47.2243602,13.4117792 L47.1935245,13.4117792 Z M79.5709528,8.53974715 L71.5536849,8.53974715 C69.4876966,8.57058279 67.8534073,10.297379 67.8534073,12.3633673 L67.8534073,20.2572926 C67.8534073,22.3232809 69.4876966,24.0192414 71.5536849,24.0500771 L79.5709528,24.0500771 C81.6369411,24.0192414 83.2712303,22.3232809 83.2712303,20.2572926 L83.2712303,12.3325316 C83.2712303,10.2665433 81.6369411,8.57058279 79.5709528,8.53974715 Z M80.9277212,13.4117792 L80.9277212,19.270552 C80.9277212,20.5964847 79.8793093,21.706568 78.5533765,21.7374036 L72.6329325,21.7374036 C71.9868443,21.7292771 71.3704526,21.4647992 70.9193827,21.0021634 C70.4683128,20.5395276 70.219522,19.9166388 70.2277521,19.270552 L70.2277521,13.4117792 C70.2277521,12.0550108 71.276164,10.9449275 72.6329325,10.9449275 L78.5533765,10.9449275 C79.8793093,10.9449275 80.9585569,12.0858464 80.9277212,13.4117792 Z M96.4997225,8.53974715 L88.4824545,8.53974715 C86.4164662,8.57058279 84.782177,10.297379 84.782177,12.3633673 L84.782177,20.2572926 C84.782177,22.3232809 86.4164662,24.0192414 88.4824545,24.0500771 L96.4997225,24.0500771 C98.5657108,24.0192414 100.2,22.3232809 100.2,20.2572926 L100.2,12.3325316 C100.2,10.2665433 98.5657108,8.57058279 96.4997225,8.53974715 Z M97.8564909,13.4117792 L97.8564909,19.270552 C97.8564909,20.5964847 96.8080789,21.706568 95.4821462,21.7374036 L89.5308665,21.7374036 C88.1975631,21.7037507 87.1392145,20.6041676 87.1565217,19.270552 L87.1565217,13.4117792 C87.1565217,12.0550108 88.2049337,10.9449275 89.5308665,10.9449275 L95.4821462,10.9449275 C96.8080789,10.9449275 97.8873265,12.0858464 97.8564909,13.4117792 Z M11.8558742,8.53974715 L3.83860623,8.53974715 C3.40690718,8.53974715 2.97520814,8.63225409 2.5435091,8.81726796 L2.5435091,0.8 L0.2,0.8 L0.2,20.2881283 C0.2,22.3541166 1.83428924,24.0500771 3.90027752,24.0809127 L11.8558742,24.0809127 C13.9218625,24.0809127 15.5561517,22.3541166 15.5561517,20.2881283 L15.5561517,12.3325316 C15.5561517,10.2665433 13.9526981,8.57058279 11.8558742,8.57058279 L11.8558742,8.53974715 Z M13.2126426,13.4117792 L13.2126426,19.270552 C13.2126426,20.5964847 12.1642307,21.706568 10.8382979,21.7374036 L4.91785384,21.7374036 C3.58455051,21.7037507 2.52620183,20.6041676 2.5435091,19.270552 L2.5435091,13.4117792 C2.5435091,12.0858464 3.62275671,11.0065988 4.91785384,10.9757632 L10.8691335,10.9757632 C12.1950663,10.9757632 13.2434783,12.0858464 13.2434783,13.4117792 L13.2126426,13.4117792 Z M62.7346901,8.57058279 L54.7174221,8.57058279 C54.2857231,8.57058279 53.8540241,8.66308973 53.4531607,8.84810361 L53.4531607,0.861671292 L51.1096516,0.861671292 L51.1096516,24.0809127 L53.4531607,24.0809127 L53.4531607,23.8958989 L53.3914894,13.4734505 C53.3914894,12.1475177 54.470737,11.0682701 55.7658341,11.0374345 L61.7171138,11.0374345 C63.0430466,11.0682701 64.1222942,12.1783534 64.0914585,13.5042862 L64.0914585,24.1117484 L66.4349676,24.1117484 L66.4349676,12.4558742 C66.4966389,10.3590503 64.8623497,8.66308973 62.7655257,8.60141844 L62.7346901,8.60141844 L62.7346901,8.57058279 Z" id="Shape"></path>
        </g>
    </g>
</svg>