<svg width="122" height="61" viewBox="0 0 122 61" xmlns="http://www.w3.org/2000/svg"><title>logo--white</title><g transform="translate(1)" fill="none" fill-rule="evenodd"><path stroke="#111" stroke-width="2" d="M0 59.7986577L119.80603 59.7986577 119.80603 12.9839597 0 12.9839597z"/><path fill="#111" d="M3.35638191 56.3887248L12.6132663 56.3887248 12.6132663 16.8241611 3.35638191 16.8241611z"/><path fill="#111" d="M18.8576884 56.3887248L28.0162814 56.3887248 28.0162814 16.8241611 18.8576884 16.8241611z"/><path d="M29.942 16.824v8.549h6.043s3.434.73 3.123 3.962c0 0 .311 2.398-2.603 3.023h-6.66v8.021h7.285s10.928.632 12.801-10.314c0 0 1.347-10.739-9.477-13.24H29.942" fill="#111"/><path fill="#111" d="M36.9151759 56.3887248L36.9151759 56.3887248 53.7825126 30.5855034 58.9863317 38.3005369 47.5312563 56.3887248 36.9151759 56.3887248"/><path fill="#111" d="M46.7051256 0.0394630872L83.5427136 56.3887248 73.238593 56.3887248 69.1861307 50.7066443 54.0946734 50.7066443 60.0273367 41.1157047 63.0454271 41.1157047 41.3973869 8.17147651 46.7051256 0.0394630872"/><path fill="#111" d="M84.3754774 56.3887248L93.3260302 56.3887248 93.3260302 16.8241611 84.3754774 16.8241611z"/><path fill="#111" d="M95.5113568 25.7897315L109.874774 25.7897315 109.874774 16.8241611 95.5113568 16.8241611z"/><path fill="#111" d="M95.3035176 41.6367785L109.874774 41.6367785 109.874774 32.2538255 95.3035176 32.2538255z"/><path fill="#111" d="M95.1626131 54.8836913L96.921407 54.8836913 96.921407 53.122349 95.1626131 53.122349z"/><path d="M104.686 51.69c0-.924-.27-1.724-.81-2.401-.54-.678-1.36-1.017-2.46-1.017-1.1 0-1.92.34-2.46 1.017-.541.677-.811 1.477-.811 2.4 0 .94.27 1.744.81 2.411.54.668 1.36 1.002 2.46 1.002 1.1 0 1.92-.334 2.46-1.002.54-.667.811-1.47.811-2.41zm-3.268 2.026c-.492 0-.87-.176-1.136-.528-.265-.353-.398-.854-.398-1.504s.133-1.15.398-1.5c.266-.35.644-.526 1.136-.526.492 0 .87.176 1.133.526.264.35.396.85.396 1.5s-.132 1.15-.396 1.504c-.263.352-.64.528-1.133.528zm8.013-5.399c.022.003.07.009.144.015v1.702a7.972 7.972 0 0 0-.283-.016l-.2-.004c-.674 0-1.127.22-1.358.66-.13.247-.195.628-.195 1.142v3.068h-1.68V48.47h1.601v1.115c.258-.429.482-.721.674-.88.312-.262.718-.394 1.218-.394.031 0 .057.002.079.005m3.426-.005c-.86 0-1.525.325-1.994.973-.469.65-.703 1.45-.703 2.402 0 .988.243 1.772.731 2.35.487.578 1.139.867 1.954.867.528 0 .958-.126 1.288-.377.182-.136.353-.339.513-.61v.41c0 .61-.066 1.042-.197 1.3-.2.402-.598.603-1.191.603-.42 0-.72-.076-.897-.23-.104-.086-.179-.227-.225-.423h-1.818c.054.638.34 1.117.854 1.439.516.32 1.182.48 1.997.48 1.351 0 2.264-.36 2.74-1.08.278-.42.416-1.043.416-1.87v-6.075h-1.66v.92c-.248-.452-.573-.763-.976-.931a2.155 2.155 0 0 0-.832-.148zm.421 5.206c-.575 0-.973-.272-1.195-.816a2.545 2.545 0 0 1-.184-.998c0-.434.057-.798.172-1.094.219-.555.615-.833 1.19-.833.42 0 .757.16 1.008.479.251.319.377.784.377 1.395 0 .65-.133 1.124-.397 1.421a1.25 1.25 0 0 1-.971.446z" fill="#111"/></g></svg>