<?xml version="1.0" encoding="UTF-8"?>
<svg width="342px" height="175px" viewBox="0 0 342 175" version="1.1" xmlns="http://www.w3.org/2000/svg" xmlns:xlink="http://www.w3.org/1999/xlink">
    <!-- Generator: Sketch 51.3 (57544) - http://www.bohemiancoding.com/sketch -->
    <title>logo-20</title>
    <desc>Created with Sketch.</desc>
    <defs></defs>
    <g id="Page-1" stroke="none" stroke-width="1" fill="none" fill-rule="evenodd">
        <g id="Artboard" transform="translate(-182.000000, -2188.000000)">
            <g id="logo-20" transform="translate(183.000000, 2188.000000)">
                <g id="Group-6-Copy-6" fill="#FFFFFF">
                    <g id="logo-basic-blue-copy-2">
                        <path d="M85.4225827,104 L85.4225827,103.281287 C89.5643046,103.089273 93.0335373,101.353115 95.8295153,99.8108843 C98.6228141,98.2717132 100.501727,96.4892735 101.466253,94.4666252 C102.044203,93.2166225 102.477857,91.6499115 102.767215,89.7726124 C103.05619,87.8945483 103.24833,85.9939168 103.345548,84.0665105 C103.537688,77.7113098 103.634523,71.6448949 103.634523,65.8665009 C103.634523,60.0888719 103.634523,54.119229 103.634523,47.9552772 L103.634523,7.077739 C100.454266,14.2048202 97.539253,20.7520348 94.8898677,26.7224427 C92.2385686,32.6936156 89.6144446,38.5186744 87.0125201,44.2002964 C84.4105956,49.8826835 81.7837924,55.6828799 79.1351726,61.6058581 C76.4838735,67.5276888 73.570009,74.053101 70.3905169,81.1782697 C69.9067228,82.1417816 69.2342336,83.6576203 68.3669254,85.7276984 C67.4996173,87.7993064 66.6323091,89.9171966 65.7650009,92.0832815 C64.8976927,94.2501315 64.0778454,96.2249675 63.3085208,98.0058772 C62.5353688,99.7886994 62.0550194,100.96641 61.8628796,101.544364 L60.9955715,101.544364 C57.9106183,94.4191955 54.8528403,87.3414565 51.8172617,80.3115297 C48.7816831,73.283133 45.8192094,66.5163647 42.927927,60.0165798 C40.0370274,53.516795 37.3382675,47.4274302 34.8339438,41.7442782 C32.3273237,36.0638036 30.0637489,31.0075654 28.0397747,26.5778585 C26.0169487,22.1496817 24.3546718,18.4413657 23.0537095,15.455588 C21.7527473,12.4721052 20.8609432,10.449457 20.3794456,9.38840811 C20.3794456,15.7443738 20.3549496,21.3552338 20.3071061,26.2167806 C20.2577315,31.0798574 20.2102707,35.8947396 20.1628099,40.6610444 C20.1134353,45.4273493 20.0904704,50.4602552 20.0904704,55.755172 C20.0904704,61.0523838 20.0904704,65.4763532 20.0904704,72.503985 C20.0904704,77.0312287 20.2347666,80.9537435 20.5241245,84.2765018 C20.8130996,87.5988775 21.5357289,91.2632063 22.6923949,93.5241507 C23.8486782,95.7881551 25.605494,98.4392472 27.9685834,99.7385922 C30.3282281,101.038702 33.5804424,102.847917 37.724078,103.425488 L37.724078,104 L0,104 L0,103.425488 C3.37163181,102.75344 6.11785253,100.894118 8.23866214,99.594008 C10.3567925,98.2946631 12.043948,95.6190911 13.2970667,93.3076569 C14.5490372,90.9962228 15.4653372,87.2622795 16.0436702,83.8431318 C16.6220032,80.4262791 16.9588219,78.0000956 17.0556573,73.0884416 C17.2470316,68.9494331 17.3913278,64.0607289 17.4893114,58.427684 C17.5834675,52.7946391 17.6339903,46.7527041 17.6339903,40.2999665 C17.6339903,37.5084977 17.6339903,35.1496339 17.6339903,33.2222275 C17.6339903,31.2967337 17.6339903,29.4664818 17.6339903,27.7326193 C17.6339903,25.9050449 17.6339903,24.0269808 17.6339903,22.0995745 C17.6339903,20.1748456 17.5834675,17.8159818 17.4893114,15.022218 C17.3913278,12.3275211 16.814143,10.1361913 15.754695,8.45014105 C14.6933334,6.7660033 13.3958158,5.5068206 11.9961045,4.47751906 C9.28356563,2.48241062 4.33577536,1.04536644 3.17949205,0.850675072 L3.17949205,0 L33.9666357,0 L68.5116044,78.5780498 C72.7501616,69.4302328 76.8945627,60.330228 80.9421284,51.2776529 C84.9889286,42.2269904 88.6246569,34.0415378 91.8542891,26.7224427 C95.0820074,19.4052601 97.7306273,13.3132179 99.8047415,8.45014105 C101.875028,3.58859421 103.05619,0.771880528 103.345548,0 L134.132692,0 L134.132692,0.822370236 C130.18043,0.920289669 127.169348,2.36077632 125.099061,3.89956491 C123.025712,5.44103098 121.60495,7.27166537 120.834477,9.38840811 C120.256527,11.0274111 119.870333,13.5775238 119.678194,17.0444838 C119.48414,20.5106787 119.339844,23.9302089 119.244539,27.2992493 C119.147704,31.9221176 119.099861,36.3992541 119.099861,40.7333365 C119.099861,45.0670364 119.099861,49.4493135 119.099861,53.8782554 C119.099861,59.0775477 119.099861,64.2772226 119.099861,69.478045 C119.099861,74.5832429 119.147704,79.9749317 119.244539,85.6554063 C119.244539,87.4860407 119.36434,89.3392424 119.605854,91.2165416 C119.845837,93.0942232 120.256527,94.5633972 120.834477,95.622151 C120.929781,95.8160774 121.958609,97.3678709 122.586317,98.0900267 C123.212111,98.8121826 125.688111,100.917833 128.246019,101.83315 C130.491605,102.636778 132.687051,103.331394 135,103.425488 L135,104 L85.4225827,104" id="Fill-1"></path>
                        <path d="M205.621541,33.9136983 C204.035902,29.0675769 201.920826,24.7945707 199.279367,21.0977301 C196.635235,17.4031774 193.535719,14.2104341 189.981964,11.5217881 C186.425155,8.83542995 182.630156,6.62609582 178.593915,4.89798013 C175.517302,3.55461042 171.047433,2.30313741 169.223986,1.87377769 C167.601321,1.49170092 165.506094,1.16300813 162.339015,0.827451685 C158.34667,0.404574303 154.236376,0.261962815 151.064716,0.261962815 C149.520302,0.261962815 144.512981,0 138.610922,0 C136.718004,0 137.908569,0 136,0 L136,0.867870984 C136,0.867870984 136.588603,0.840416366 137.894064,0.840416366 C139.956463,0.840416366 142.395996,1.07339931 143.544955,1.17177835 C146.72005,1.44289271 148.559529,1.69303478 151.381921,2.29970558 C158.978025,3.93211142 165.288517,6.38319871 169.518288,9.35744901 C173.745768,12.3339872 177.394188,15.9610473 180.470802,20.2313844 C183.545124,24.5043906 185.946868,29.2822568 187.676794,34.5607884 C189.406721,39.8408453 190.270921,45.2665642 190.270921,50.8329881 C190.270921,63.4102537 187.698552,73.9943903 182.558776,82.5842539 C177.416328,91.1775494 171.292875,96.3241464 161.199217,100.155591 C158.485614,101.185902 154.074148,101.764355 151.538805,102.088091 C148.388139,102.490759 144.694677,103.075695 141.221081,103.211061 C140.194271,103.25148 137.908569,103.31516 137.908569,103.31516 L137.908569,103.824595 L148.694274,104 C156.075473,104 159.116205,103.368925 163.454001,102.804199 C168.162822,102.191046 170.995902,101.31593 175.416529,99.7784712 C179.836393,98.244063 184.019213,96.1140423 187.96079,93.5218687 C191.899694,90.9296952 195.361075,87.6347597 198.341114,83.6973099 C201.318482,79.7625293 203.674801,75.0410976 205.404728,69.569621 C207.134655,64.0970005 208,57.7534584 208,50.5534848 C208,44.3144228 207.207562,38.7621076 205.621541,33.9136983" id="Fill-2"></path>
                        <path d="M291.422583,104 L291.422583,103.281287 C295.564305,103.089273 299.033537,101.353115 301.829515,99.8108843 C304.622814,98.2717132 306.502109,96.4892735 307.466253,94.4666252 C308.044586,93.2166225 308.47824,91.6499115 308.767215,89.7726124 C309.05619,87.8945483 309.24833,85.9939168 309.345548,84.0665105 C309.537688,77.7113098 309.634523,71.6448949 309.634523,65.8665009 C309.634523,60.0888719 309.634523,54.119229 309.634523,47.9552772 L309.634523,7.077739 C306.454266,14.2048202 303.539253,20.7520348 300.889868,26.7224427 C298.238569,32.6936156 295.614445,38.5186744 293.01252,44.2002964 C290.410596,49.8826835 287.783792,55.6828799 285.135173,61.6058581 C282.483874,67.5276888 279.570009,74.053101 276.390517,81.1782697 C275.906723,82.1417816 275.234234,83.6576203 274.366925,85.7276984 C273.499617,87.7993064 272.632309,89.9171966 271.765001,92.0832815 C270.897693,94.2501315 270.077845,96.2249675 269.308521,98.0058772 C268.535369,99.7886994 268.055019,100.96641 267.86288,101.544364 L266.995571,101.544364 C263.910618,94.4191955 260.85284,87.3414565 257.817262,80.3115297 C254.781683,73.283133 251.819209,66.5163647 248.927927,60.0165798 C246.037027,53.516795 243.338267,47.4274302 240.833944,41.7442782 C238.327324,36.0638036 236.063749,31.0075654 234.039775,26.5778585 C232.016949,22.1496817 230.354672,18.4413657 229.05371,15.455588 C227.752747,12.4721052 226.860943,10.449457 226.379446,9.38840811 C226.379446,15.7443738 226.35495,21.3552338 226.307106,26.2167806 C226.257732,31.0798574 226.210271,35.8947396 226.16281,40.6610444 C226.113435,45.4273493 226.09047,50.4602552 226.09047,55.755172 C226.09047,61.0523838 226.09047,65.4763532 226.09047,72.503985 C226.09047,77.0312287 226.234767,80.9537435 226.524124,84.2765018 C226.8131,87.5988775 227.535729,91.2632063 228.692395,93.5241507 C229.848678,95.7881551 231.605494,98.4392472 233.968583,99.7385922 C236.328228,101.038702 239.580442,102.847917 243.724078,103.425488 L243.724078,104 L206,104 L206,103.425488 C209.371632,102.75344 212.117853,100.894118 214.238662,99.594008 C216.356793,98.2946631 218.043948,95.6190911 219.297067,93.3076569 C220.549037,90.9962228 221.465337,87.2622795 222.04367,83.8431318 C222.622003,80.4262791 222.958822,78.0000956 223.055657,73.0884416 C223.247032,68.9494331 223.391328,64.0607289 223.489311,58.427684 C223.583468,52.7946391 223.63399,46.7527041 223.63399,40.2999665 C223.63399,37.5084977 223.63399,35.1496339 223.63399,33.2222275 C223.63399,31.2967337 223.63399,29.4664818 223.63399,27.7326193 C223.63399,25.9050449 223.63399,24.0269808 223.63399,22.0995745 C223.63399,20.1748456 223.583468,17.8159818 223.489311,15.022218 C223.391328,12.3275211 222.814143,10.1361913 221.754695,8.45014105 C220.693333,6.7660033 219.287881,5.34387654 218.009118,4.16807835 C216.648447,2.9173106 214.710208,1.86697168 213.073576,1.43360169 C211.434264,1.00023171 210.335775,0.768438048 209.179492,0.573746676 L209.179492,0 L239.966636,0 L274.511604,78.5780498 C278.750162,69.4302328 282.894563,60.330228 286.942128,51.2776529 C290.988929,42.2269904 294.624657,34.0415378 297.854289,26.7224427 C301.082007,19.4052601 303.730627,13.3132179 305.804742,8.45014105 C307.875028,3.58859421 309.05619,0.771880528 309.345548,0 L340.132692,0 L340.132692,1.01400163 C336.18043,1.11153856 333.169348,2.36077632 331.099061,3.89956491 C329.025712,5.44103098 327.60495,7.27166537 326.834477,9.38840811 C326.256527,11.0274111 325.870333,13.5775238 325.678194,17.0444838 C325.484523,20.5106787 325.339844,23.9302089 325.244539,27.2992493 C325.147704,31.9221176 325.099861,36.3992541 325.099861,40.7333365 C325.099861,45.0670364 325.099861,49.4493135 325.099861,53.8782554 C325.099861,59.0775477 325.099861,64.2772226 325.099861,69.478045 C325.099861,74.5832429 325.147704,79.9749317 325.244539,85.6554063 C325.244539,87.4860407 325.36434,89.3392424 325.605854,91.2165416 C325.845837,93.0942232 326.256527,94.5633972 326.834477,95.622151 C326.929781,95.8160774 327.958609,97.3678709 328.586317,98.0900267 C329.212111,98.8121826 331.688111,100.917833 334.246019,101.83315 C336.491605,102.636778 338.687051,103.331394 341,103.425488 L341,104 L291.422583,104" id="Fill-3"></path>
                    </g>
                    <path d="M1.3465,135.907 C1.3465,135.608 1.4155,135.217 1.9445,133.653 L2.7725,133.653 C2.7725,136.551 4.5895,137.287 6.1075,137.287 C7.4875,137.287 8.8445,136.643 8.8445,135.033 C8.8445,131.215 1.6915,131.307 1.6915,126.546 C1.6915,124.177 3.4395,122.383 6.9355,122.383 C8.4535,122.383 10.0405,122.705 10.8685,122.82 L10.1325,126.5 L9.3045,126.5 C9.4425,124.775 8.6605,123.372 6.7055,123.372 C5.1645,123.372 3.9915,124.131 3.9915,125.603 C3.9915,129.444 11.1445,129.053 11.1445,134.067 C11.1445,136.919 8.7755,138.276 5.9235,138.276 C3.8995,138.276 1.3695,137.609 1.3465,135.907 Z M12.8925,133.009 C12.8925,129.858 15.0545,127.328 17.9295,127.328 C19.9535,127.328 21.8855,128.593 21.9775,131.261 C21.9775,131.261 21.1725,131.56 20.7125,131.629 L15.3535,132.411 L15.1465,132.687 C15.3075,134.642 16.3195,136.505 18.8035,136.505 C20.5745,136.505 21.6785,135.47 21.6785,135.47 L21.9315,136.045 C21.9315,136.045 20.7125,138.276 17.9065,138.276 C14.5945,138.276 12.8925,135.723 12.8925,133.009 Z M17.5155,128.294 C16.1125,128.294 15.2845,129.766 15.1465,131.491 L19.5165,130.916 C19.5165,130.916 19.3785,128.294 17.5155,128.294 Z M23.2885,135.838 C23.2885,133.584 26.0025,132.457 28.3715,132.089 L29.1535,131.974 C29.1765,131.353 29.1765,130.134 29.0615,129.536 C28.9005,128.777 28.5095,128.225 27.7735,128.225 C26.3245,128.225 25.4275,130.548 25.4275,130.548 L24.5535,130.548 L24.1165,128.685 C24.1165,128.685 25.8875,127.328 28.6475,127.328 C30.9245,127.328 31.4995,128.225 31.4995,130.617 L31.4995,135.861 C31.4995,136.574 31.5915,136.942 32.0975,136.942 C32.6495,136.942 33.2475,136.505 33.2475,136.505 L33.5695,137.057 C33.5695,137.057 32.4655,138.276 30.9475,138.276 C29.9585,138.276 29.2225,137.747 29.2225,136.689 L29.2225,136.206 C29.2225,136.206 28.0265,138.276 25.7955,138.276 C24.3465,138.276 23.2885,137.287 23.2885,135.838 Z M26.9455,136.735 C27.7045,136.735 28.6245,136.091 29.1535,135.654 L29.1535,132.871 L28.4865,132.986 C27.2215,133.193 25.7265,133.86 25.7265,135.355 C25.7265,136.183 26.2095,136.735 26.9455,136.735 Z M34.3285,138.069 L34.3285,137.356 C35.3175,137.241 35.7085,136.689 35.7085,135.861 L35.7085,130.341 C35.7085,129.375 35.6855,128.8 35.0185,128.8 L34.0295,128.8 L34.0295,128.133 C36.4905,127.673 38.1465,127.006 38.1465,127.006 L38.2155,127.075 C38.2155,127.075 38.0085,127.719 37.9395,129.95 C38.3305,129.214 39.6415,127.328 41.1135,127.328 C41.8265,127.328 42.4245,127.788 42.4245,128.524 C42.4245,129.237 41.9185,129.789 41.1825,129.789 C40.5615,129.789 40.4695,129.375 39.9175,129.375 C39.1585,129.375 38.3305,130.134 38.0545,130.456 L38.0545,135.861 C38.0545,136.551 37.9395,137.103 37.9395,137.103 L40.0785,137.31 L39.9865,137.931 L34.3285,138.069 Z M43.2755,133.032 C43.2755,130.272 45.0925,127.328 48.4505,127.328 C49.8305,127.328 52.1075,127.834 52.1075,129.122 C52.1075,129.605 51.7395,130.065 51.1185,130.065 C49.8995,130.065 49.8305,128.202 48.2205,128.202 C46.4955,128.202 45.5295,130.088 45.5295,132.227 C45.5295,134.504 46.6335,136.505 49.2095,136.505 C50.8655,136.505 51.9005,135.631 51.9005,135.631 L52.1535,136.183 C52.1535,136.183 51.0265,138.276 48.2205,138.276 C45.0005,138.276 43.2755,135.7 43.2755,133.032 Z M53.3265,138.069 L53.3265,137.356 C54.3385,137.241 54.7065,136.689 54.7065,135.861 L54.7065,124.223 C54.7065,123.257 54.6835,122.682 54.0165,122.682 L53.0965,122.682 L53.0965,122.015 C56.2015,121.371 57.2135,120.911 57.2135,120.911 L57.2825,120.98 C57.2825,120.98 57.0525,121.831 57.0525,123.602 L57.0525,127.857 C57.0525,128.961 56.9605,129.513 56.9605,129.72 C57.7885,128.593 59.2835,127.328 61.1925,127.328 C62.7795,127.328 63.8605,128.202 63.8605,130.433 L63.8605,135.861 C63.8605,136.551 63.7455,137.08 63.7455,137.08 L65.6545,137.31 L65.5625,137.931 L60.3185,138.069 L60.3185,137.356 C61.1925,137.241 61.5145,136.689 61.5145,135.861 L61.5145,131.1 C61.5145,129.421 60.9625,129.007 60.0655,129.007 C59.1225,129.007 57.9265,129.49 57.0525,130.249 L57.0525,135.861 C57.0525,136.551 56.9375,137.103 56.9375,137.103 L58.6165,137.31 L58.5245,137.931 L53.3265,138.069 Z M66.6435,138.069 L66.6435,137.356 C67.6325,137.241 68.0235,136.689 68.0235,135.861 L68.0235,130.318 C68.0235,129.352 68.0005,128.777 67.3335,128.777 L66.3445,128.777 L66.3445,128.11 C69.4265,127.489 70.5535,127.006 70.5535,127.006 L70.5995,127.075 C70.5995,127.075 70.3695,127.834 70.3695,129.697 L70.3695,135.861 C70.3695,136.551 70.2545,137.103 70.2545,137.103 L72.1635,137.31 L72.0715,137.931 L66.6435,138.069 Z M68.9895,125.12 C68.1845,125.12 67.5405,124.522 67.5405,123.717 C67.5405,122.935 68.1845,122.314 68.9895,122.314 C69.7945,122.314 70.4385,122.935 70.4385,123.717 C70.4385,124.522 69.7945,125.12 68.9895,125.12 Z M73.2675,138.069 L73.2675,137.356 C74.2565,137.241 74.6475,136.689 74.6475,135.861 L74.6475,130.318 C74.6475,129.352 74.6245,128.777 73.9575,128.777 L72.9685,128.777 L72.9685,128.11 C75.4295,127.673 77.0625,127.006 77.0625,127.006 L77.1315,127.075 C77.1315,127.075 76.9245,127.719 76.8785,129.766 C77.6835,128.616 79.2015,127.328 81.1105,127.328 C82.6975,127.328 83.8015,128.202 83.8015,130.433 L83.8015,135.861 C83.8015,136.551 83.6865,137.08 83.6865,137.08 L85.5725,137.31 L85.4805,137.931 L80.2595,138.069 L80.2595,137.356 C81.1795,137.241 81.4555,136.689 81.4555,135.861 L81.4555,131.1 C81.4555,129.421 80.9035,129.007 79.9835,129.007 C79.0635,129.007 77.8675,129.467 76.9935,130.272 L76.9935,135.861 C76.9935,136.551 76.8785,137.08 76.8785,137.08 L78.5575,137.31 L78.4655,137.931 L73.2675,138.069 Z M87.1135,136.367 C87.1135,135.286 88.6315,134.78 89.4595,134.412 C87.8495,133.975 86.5845,132.848 86.5845,131.008 C86.5845,128.616 88.7005,127.328 91.0465,127.328 C92.4265,127.328 93.0015,127.788 94.1975,127.788 L95.3015,127.788 C96.0375,127.788 96.8195,127.489 96.8195,127.489 L96.6125,129.099 L95.5085,129.099 C95.0945,129.099 94.7955,129.053 94.7265,129.053 C94.7955,129.122 95.5775,129.812 95.5775,131.146 C95.5775,133.308 93.4155,134.596 91.0465,134.596 C90.6555,134.596 90.2875,134.573 89.9195,134.504 C89.7585,134.688 89.4595,135.079 89.4595,135.378 C89.4595,135.999 90.8165,136.16 92.4265,136.482 C94.4045,136.873 96.6125,137.494 96.6125,139.449 C96.6125,141.772 93.5075,143.451 90.7015,143.451 C88.6545,143.451 86.2165,142.577 86.2165,140.691 C86.2165,139.104 87.9415,138.414 89.1145,137.977 C87.9875,137.655 87.1135,137.218 87.1135,136.367 Z M91.4145,138.46 C90.8165,138.322 90.2185,138.207 89.6435,138.092 C89.1605,138.46 88.3325,139.242 88.3325,140.346 C88.3325,141.726 89.6665,142.485 91.1155,142.485 C92.6335,142.485 94.4275,141.657 94.4275,140.346 C94.4275,139.219 93.1165,138.828 91.4145,138.46 Z M91.0925,133.699 C92.6105,133.699 93.1855,132.48 93.1855,131.146 C93.1855,129.743 92.5185,128.225 91.0005,128.225 C89.5285,128.225 88.9535,129.559 88.9535,130.962 C88.9535,132.365 89.5515,133.699 91.0925,133.699 Z M102.8685,138.069 L102.8685,137.356 C103.8575,137.241 104.2485,136.689 104.2485,135.861 L104.2485,128.892 L102.8225,128.892 L102.8225,128.087 L104.2485,127.581 L104.2485,126.914 C104.2485,123.51 106.2265,121.164 109.1475,121.164 C110.3435,121.164 111.8615,121.601 111.8615,122.636 C111.8615,123.188 111.4245,123.648 110.7805,123.648 C109.8375,123.648 109.1705,122.291 108.1585,122.291 C107.0545,122.291 106.5945,123.418 106.5945,126.339 L106.5945,127.604 L109.7225,127.604 L109.5155,128.823 L106.8475,128.823 L106.5945,129.076 L106.5945,135.861 C106.5945,136.551 106.4795,137.103 106.4795,137.103 L108.8945,137.31 L108.8025,137.931 L102.8685,138.069 Z M110.5505,133.032 C110.5505,130.318 112.1375,127.328 116.1165,127.328 C119.5205,127.328 121.4065,129.49 121.4065,132.388 C121.4065,135.263 119.5665,138.276 115.7945,138.276 C112.5055,138.276 110.5505,136.022 110.5505,133.032 Z M113.1265,132.457 C113.1265,134.734 114.0005,137.402 116.1165,137.402 C118.0715,137.402 118.8305,135.056 118.8305,132.94 C118.8075,130.755 117.9795,128.202 115.8635,128.202 C113.9545,128.202 113.1265,130.295 113.1265,132.457 Z M122.9705,138.069 L122.9705,137.356 C123.9595,137.241 124.3505,136.689 124.3505,135.861 L124.3505,130.341 C124.3505,129.375 124.3275,128.8 123.6605,128.8 L122.6715,128.8 L122.6715,128.133 C125.1325,127.673 126.7885,127.006 126.7885,127.006 L126.8575,127.075 C126.8575,127.075 126.6505,127.719 126.5815,129.95 C126.9725,129.214 128.2835,127.328 129.7555,127.328 C130.4685,127.328 131.0665,127.788 131.0665,128.524 C131.0665,129.237 130.5605,129.789 129.8245,129.789 C129.2035,129.789 129.1115,129.375 128.5595,129.375 C127.8005,129.375 126.9725,130.134 126.6965,130.456 L126.6965,135.861 C126.6965,136.551 126.5815,137.103 126.5815,137.103 L128.7205,137.31 L128.6285,137.931 L122.9705,138.069 Z M138.1735,135.263 L138.1735,130.387 C138.1735,129.72 138.2425,128.892 138.2425,128.892 L136.7475,128.892 L136.7475,128.087 C136.7475,128.087 137.7825,127.88 138.3345,127.374 L139.1855,124.821 L140.6345,124.867 L140.7035,124.936 C140.7035,124.936 140.4965,125.534 140.4965,127.213 L140.4965,127.604 L143.9465,127.604 L143.7855,128.823 L140.7725,128.823 L140.5195,129.076 L140.5195,134.596 C140.5195,135.93 140.8415,136.689 142.0605,136.689 C143.0725,136.689 144.0845,136.183 144.0845,136.183 L144.4065,136.689 C144.4065,136.689 143.0035,138.276 140.8415,138.276 C139.1855,138.276 138.1735,137.379 138.1735,135.263 Z M145.0505,138.069 L145.0505,137.356 C146.0625,137.241 146.4305,136.689 146.4305,135.861 L146.4305,124.223 C146.4305,123.257 146.4075,122.682 145.7405,122.682 L144.8205,122.682 L144.8205,122.015 C147.9255,121.371 148.9375,120.911 148.9375,120.911 L149.0065,120.98 C149.0065,120.98 148.7765,121.831 148.7765,123.602 L148.7765,127.857 C148.7765,128.961 148.6845,129.513 148.6845,129.72 C149.5125,128.593 151.0075,127.328 152.9165,127.328 C154.5035,127.328 155.5845,128.202 155.5845,130.433 L155.5845,135.861 C155.5845,136.551 155.4695,137.08 155.4695,137.08 L157.3785,137.31 L157.2865,137.931 L152.0425,138.069 L152.0425,137.356 C152.9165,137.241 153.2385,136.689 153.2385,135.861 L153.2385,131.1 C153.2385,129.421 152.6865,129.007 151.7895,129.007 C150.8465,129.007 149.6505,129.49 148.7765,130.249 L148.7765,135.861 C148.7765,136.551 148.6615,137.103 148.6615,137.103 L150.3405,137.31 L150.2485,137.931 L145.0505,138.069 Z M158.3215,133.009 C158.3215,129.858 160.4835,127.328 163.3585,127.328 C165.3825,127.328 167.3145,128.593 167.4065,131.261 C167.4065,131.261 166.6015,131.56 166.1415,131.629 L160.7825,132.411 L160.5755,132.687 C160.7365,134.642 161.7485,136.505 164.2325,136.505 C166.0035,136.505 167.1075,135.47 167.1075,135.47 L167.3605,136.045 C167.3605,136.045 166.1415,138.276 163.3355,138.276 C160.0235,138.276 158.3215,135.723 158.3215,133.009 Z M162.9445,128.294 C161.5415,128.294 160.7135,129.766 160.5755,131.491 L164.9455,130.916 C164.9455,130.916 164.8075,128.294 162.9445,128.294 Z M174.4215,138.069 L174.4215,137.287 C175.4105,137.172 176.0085,136.62 176.0085,135.792 L176.0085,124.959 C176.0085,123.855 175.8935,123.625 174.1915,123.28 L174.1915,122.659 L183.7595,122.659 C184.7025,122.659 185.4615,122.567 185.4615,122.567 L184.7485,126.5 L183.9205,126.5 C184.0355,124.131 183.2765,123.694 181.4365,123.694 L178.7455,123.694 L178.4925,123.947 L178.4925,129.789 L182.4945,129.789 L182.6785,128.478 L183.5755,128.34 L183.5755,132.526 L182.4485,132.526 L182.4485,130.824 L178.7455,130.824 L178.4925,131.077 L178.4925,135.792 C178.4925,136.482 178.3775,137.034 178.3775,137.034 L180.9075,137.241 L180.8155,137.931 L174.4215,138.069 Z M186.4735,138.069 L186.4735,137.356 C187.4625,137.241 187.8535,136.689 187.8535,135.861 L187.8535,130.318 C187.8535,129.352 187.8305,128.777 187.1635,128.777 L186.1745,128.777 L186.1745,128.11 C189.2565,127.489 190.3835,127.006 190.3835,127.006 L190.4295,127.075 C190.4295,127.075 190.1995,127.834 190.1995,129.697 L190.1995,135.861 C190.1995,136.551 190.0845,137.103 190.0845,137.103 L191.9935,137.31 L191.9015,137.931 L186.4735,138.069 Z M188.8195,125.12 C188.0145,125.12 187.3705,124.522 187.3705,123.717 C187.3705,122.935 188.0145,122.314 188.8195,122.314 C189.6245,122.314 190.2685,122.935 190.2685,123.717 C190.2685,124.522 189.6245,125.12 188.8195,125.12 Z M193.0975,138.069 L193.0975,137.356 C194.0865,137.241 194.4775,136.689 194.4775,135.861 L194.4775,130.318 C194.4775,129.352 194.4545,128.777 193.7875,128.777 L192.7985,128.777 L192.7985,128.11 C195.2595,127.673 196.8925,127.006 196.8925,127.006 L196.9615,127.075 C196.9615,127.075 196.7545,127.719 196.7085,129.766 C197.5135,128.616 199.0315,127.328 200.9405,127.328 C202.5275,127.328 203.6315,128.202 203.6315,130.433 L203.6315,135.861 C203.6315,136.551 203.5165,137.08 203.5165,137.08 L205.4025,137.31 L205.3105,137.931 L200.0895,138.069 L200.0895,137.356 C201.0095,137.241 201.2855,136.689 201.2855,135.861 L201.2855,131.1 C201.2855,129.421 200.7335,129.007 199.8135,129.007 C198.8935,129.007 197.6975,129.467 196.8235,130.272 L196.8235,135.861 C196.8235,136.551 196.7085,137.08 196.7085,137.08 L198.3875,137.31 L198.2955,137.931 L193.0975,138.069 Z M206.3455,133.009 C206.3455,129.858 208.5075,127.328 211.3825,127.328 C213.4065,127.328 215.3385,128.593 215.4305,131.261 C215.4305,131.261 214.6255,131.56 214.1655,131.629 L208.8065,132.411 L208.5995,132.687 C208.7605,134.642 209.7725,136.505 212.2565,136.505 C214.0275,136.505 215.1315,135.47 215.1315,135.47 L215.3845,136.045 C215.3845,136.045 214.1655,138.276 211.3595,138.276 C208.0475,138.276 206.3455,135.723 206.3455,133.009 Z M210.9685,128.294 C209.5655,128.294 208.7375,129.766 208.5995,131.491 L212.9695,130.916 C212.9695,130.916 212.8315,128.294 210.9685,128.294 Z M216.9715,136.689 C216.9715,136.183 217.3165,134.872 217.3165,134.872 L218.0525,134.872 C218.1905,136.827 219.5475,137.425 220.6055,137.425 C221.6175,137.425 222.3075,136.873 222.3075,135.976 C222.3075,133.607 217.2245,133.837 217.2245,130.387 C217.2245,128.524 218.6735,127.328 221.0425,127.328 C222.3995,127.328 224.0325,127.742 224.0325,127.742 L223.5495,130.226 L222.8135,130.226 C222.7675,128.386 221.3875,128.179 220.8355,128.179 C219.7545,128.179 219.2715,128.823 219.2715,129.559 C219.2715,131.951 224.3315,131.468 224.3315,135.102 C224.3315,137.172 222.6985,138.276 220.4905,138.276 C219.2945,138.276 216.9715,137.954 216.9715,136.689 Z M226.9995,135.263 L226.9995,130.387 C226.9995,129.72 227.0685,128.892 227.0685,128.892 L225.5735,128.892 L225.5735,128.087 C225.5735,128.087 226.6085,127.88 227.1605,127.374 L228.0115,124.821 L229.4605,124.867 L229.5295,124.936 C229.5295,124.936 229.3225,125.534 229.3225,127.213 L229.3225,127.604 L232.7725,127.604 L232.6115,128.823 L229.5985,128.823 L229.3455,129.076 L229.3455,134.596 C229.3455,135.93 229.6675,136.689 230.8865,136.689 C231.8985,136.689 232.9105,136.183 232.9105,136.183 L233.2325,136.689 C233.2325,136.689 231.8295,138.276 229.6675,138.276 C228.0115,138.276 226.9995,137.379 226.9995,135.263 Z M239.1895,138.069 L239.1895,137.356 C240.1785,137.241 240.5695,136.689 240.5695,135.861 L240.5695,130.318 C240.5695,129.352 240.5465,128.777 239.8795,128.777 L238.8905,128.777 L238.8905,128.11 C241.9725,127.489 243.0995,127.006 243.0995,127.006 L243.1455,127.075 C243.1455,127.075 242.9155,127.834 242.9155,129.697 L242.9155,135.861 C242.9155,136.551 242.8005,137.103 242.8005,137.103 L244.7095,137.31 L244.6175,137.931 L239.1895,138.069 Z M241.5355,125.12 C240.7305,125.12 240.0865,124.522 240.0865,123.717 C240.0865,122.935 240.7305,122.314 241.5355,122.314 C242.3405,122.314 242.9845,122.935 242.9845,123.717 C242.9845,124.522 242.3405,125.12 241.5355,125.12 Z M245.8135,138.069 L245.8135,137.356 C246.8025,137.241 247.1935,136.689 247.1935,135.861 L247.1935,130.318 C247.1935,129.352 247.1705,128.777 246.5035,128.777 L245.5145,128.777 L245.5145,128.11 C247.9755,127.673 249.6085,127.006 249.6085,127.006 L249.6775,127.075 C249.6775,127.075 249.4705,127.719 249.4245,129.766 C250.2295,128.616 251.7475,127.328 253.6565,127.328 C255.2435,127.328 256.3475,128.202 256.3475,130.433 L256.3475,135.861 C256.3475,136.551 256.2325,137.08 256.2325,137.08 L258.1185,137.31 L258.0265,137.931 L252.8055,138.069 L252.8055,137.356 C253.7255,137.241 254.0015,136.689 254.0015,135.861 L254.0015,131.1 C254.0015,129.421 253.4495,129.007 252.5295,129.007 C251.6095,129.007 250.4135,129.467 249.5395,130.272 L249.5395,135.861 C249.5395,136.551 249.4245,137.08 249.4245,137.08 L251.1035,137.31 L251.0115,137.931 L245.8135,138.069 Z M264.5585,138.069 L264.5585,137.287 C265.5475,137.172 266.1455,136.62 266.1455,135.792 L266.1455,124.959 C266.1455,123.855 266.0305,123.625 264.3285,123.28 L264.3285,122.659 L273.8965,122.659 C274.8395,122.659 275.5985,122.567 275.5985,122.567 L274.8855,126.5 L274.0575,126.5 C274.1725,124.131 273.4135,123.694 271.5735,123.694 L268.8825,123.694 L268.6295,123.947 L268.6295,129.789 L272.6315,129.789 L272.8155,128.478 L273.7125,128.34 L273.7125,132.526 L272.5855,132.526 L272.5855,130.824 L268.8825,130.824 L268.6295,131.077 L268.6295,135.792 C268.6295,136.482 268.5145,137.034 268.5145,137.034 L271.0445,137.241 L270.9525,137.931 L264.5585,138.069 Z M276.6105,138.069 L276.6105,137.356 C277.5995,137.241 277.9905,136.689 277.9905,135.861 L277.9905,130.318 C277.9905,129.352 277.9675,128.777 277.3005,128.777 L276.3115,128.777 L276.3115,128.11 C279.3935,127.489 280.5205,127.006 280.5205,127.006 L280.5665,127.075 C280.5665,127.075 280.3365,127.834 280.3365,129.697 L280.3365,135.861 C280.3365,136.551 280.2215,137.103 280.2215,137.103 L282.1305,137.31 L282.0385,137.931 L276.6105,138.069 Z M278.9565,125.12 C278.1515,125.12 277.5075,124.522 277.5075,123.717 C277.5075,122.935 278.1515,122.314 278.9565,122.314 C279.7615,122.314 280.4055,122.935 280.4055,123.717 C280.4055,124.522 279.7615,125.12 278.9565,125.12 Z M283.2345,138.069 L283.2345,137.356 C284.2235,137.241 284.6145,136.689 284.6145,135.861 L284.6145,130.318 C284.6145,129.352 284.5915,128.777 283.9245,128.777 L282.9355,128.777 L282.9355,128.11 C285.3965,127.673 287.0295,127.006 287.0295,127.006 L287.0985,127.075 C287.0985,127.075 286.8915,127.719 286.8455,129.766 C287.6505,128.616 289.1685,127.328 291.0775,127.328 C292.6645,127.328 293.7685,128.202 293.7685,130.433 L293.7685,135.861 C293.7685,136.551 293.6535,137.08 293.6535,137.08 L295.5395,137.31 L295.4475,137.931 L290.2265,138.069 L290.2265,137.356 C291.1465,137.241 291.4225,136.689 291.4225,135.861 L291.4225,131.1 C291.4225,129.421 290.8705,129.007 289.9505,129.007 C289.0305,129.007 287.8345,129.467 286.9605,130.272 L286.9605,135.861 C286.9605,136.551 286.8455,137.08 286.8455,137.08 L288.5245,137.31 L288.4325,137.931 L283.2345,138.069 Z M296.2755,135.838 C296.2755,133.584 298.9895,132.457 301.3585,132.089 L302.1405,131.974 C302.1635,131.353 302.1635,130.134 302.0485,129.536 C301.8875,128.777 301.4965,128.225 300.7605,128.225 C299.3115,128.225 298.4145,130.548 298.4145,130.548 L297.5405,130.548 L297.1035,128.685 C297.1035,128.685 298.8745,127.328 301.6345,127.328 C303.9115,127.328 304.4865,128.225 304.4865,130.617 L304.4865,135.861 C304.4865,136.574 304.5785,136.942 305.0845,136.942 C305.6365,136.942 306.2345,136.505 306.2345,136.505 L306.5565,137.057 C306.5565,137.057 305.4525,138.276 303.9345,138.276 C302.9455,138.276 302.2095,137.747 302.2095,136.689 L302.2095,136.206 C302.2095,136.206 301.0135,138.276 298.7825,138.276 C297.3335,138.276 296.2755,137.287 296.2755,135.838 Z M299.9325,136.735 C300.6915,136.735 301.6115,136.091 302.1405,135.654 L302.1405,132.871 L301.4735,132.986 C300.2085,133.193 298.7135,133.86 298.7135,135.355 C298.7135,136.183 299.1965,136.735 299.9325,136.735 Z M307.3155,138.069 L307.3155,137.356 C308.3045,137.241 308.6955,136.689 308.6955,135.861 L308.6955,130.318 C308.6955,129.352 308.6725,128.777 308.0055,128.777 L307.0165,128.777 L307.0165,128.11 C309.4775,127.673 311.1105,127.006 311.1105,127.006 L311.1795,127.075 C311.1795,127.075 310.9725,127.719 310.9265,129.766 C311.7315,128.616 313.2495,127.328 315.1585,127.328 C316.7455,127.328 317.8495,128.202 317.8495,130.433 L317.8495,135.861 C317.8495,136.551 317.7345,137.08 317.7345,137.08 L319.6205,137.31 L319.5285,137.931 L314.3075,138.069 L314.3075,137.356 C315.2275,137.241 315.5035,136.689 315.5035,135.861 L315.5035,131.1 C315.5035,129.421 314.9515,129.007 314.0315,129.007 C313.1115,129.007 311.9155,129.467 311.0415,130.272 L311.0415,135.861 C311.0415,136.551 310.9265,137.08 310.9265,137.08 L312.6055,137.31 L312.5135,137.931 L307.3155,138.069 Z M320.5635,133.032 C320.5635,130.272 322.3805,127.328 325.7385,127.328 C327.1185,127.328 329.3955,127.834 329.3955,129.122 C329.3955,129.605 329.0275,130.065 328.4065,130.065 C327.1875,130.065 327.1185,128.202 325.5085,128.202 C323.7835,128.202 322.8175,130.088 322.8175,132.227 C322.8175,134.504 323.9215,136.505 326.4975,136.505 C328.1535,136.505 329.1885,135.631 329.1885,135.631 L329.4415,136.183 C329.4415,136.183 328.3145,138.276 325.5085,138.276 C322.2885,138.276 320.5635,135.7 320.5635,133.032 Z M330.7755,133.009 C330.7755,129.858 332.9375,127.328 335.8125,127.328 C337.8365,127.328 339.7685,128.593 339.8605,131.261 C339.8605,131.261 339.0555,131.56 338.5955,131.629 L333.2365,132.411 L333.0295,132.687 C333.1905,134.642 334.2025,136.505 336.6865,136.505 C338.4575,136.505 339.5615,135.47 339.5615,135.47 L339.8145,136.045 C339.8145,136.045 338.5955,138.276 335.7895,138.276 C332.4775,138.276 330.7755,135.723 330.7755,133.009 Z M335.3985,128.294 C333.9955,128.294 333.1675,129.766 333.0295,131.491 L337.3995,130.916 C337.3995,130.916 337.2615,128.294 335.3985,128.294 Z" id="Searching-for-the-Fi"></path>
                </g>
                <g id="Group-9" transform="translate(0.000000, 150.000000)">
                    <path d="M54.748,21.192 C51.676,21.192 49.26,18.952 49.26,15.672 C49.26,12.392 51.676,10.152 54.748,10.152 C56.636,10.152 57.948,11.064 58.796,12.264 L57.676,12.888 C57.068,11.992 55.964,11.336 54.748,11.336 C52.412,11.336 50.636,13.128 50.636,15.672 C50.636,18.2 52.412,20.008 54.748,20.008 C55.964,20.008 57.068,19.368 57.676,18.456 L58.812,19.08 C57.916,20.296 56.636,21.192 54.748,21.192 Z M70,21 L63.008,21 L63.008,10.328 L70,10.328 L70,11.512 L64.336,11.512 L64.336,14.952 L69.888,14.952 L69.888,16.136 L64.336,16.136 L64.336,19.816 L70,19.816 L70,21 Z M80.9,21 L74.612,21 L74.612,10.328 L75.94,10.328 L75.94,19.816 L80.9,19.816 L80.9,21 Z M92.264,21 L85.272,21 L85.272,10.328 L92.264,10.328 L92.264,11.512 L86.6,11.512 L86.6,14.952 L92.152,14.952 L92.152,16.136 L86.6,16.136 L86.6,19.816 L92.264,19.816 L92.264,21 Z M101.74,21 L96.876,21 L96.876,10.328 L101.628,10.328 C103.484,10.328 104.62,11.448 104.62,13.048 C104.62,14.392 103.724,15.288 102.748,15.496 C103.884,15.672 104.828,16.84 104.828,18.12 C104.828,19.832 103.692,21 101.74,21 Z M101.404,14.952 C102.604,14.952 103.244,14.216 103.244,13.24 C103.244,12.28 102.604,11.512 101.404,11.512 L98.204,11.512 L98.204,14.952 L101.404,14.952 Z M101.468,19.816 C102.716,19.816 103.452,19.112 103.452,17.976 C103.452,17 102.78,16.136 101.468,16.136 L98.204,16.136 L98.204,19.816 L101.468,19.816 Z M117.184,21 L115.616,21 L112.896,16.76 L110.768,16.76 L110.768,21 L109.44,21 L109.44,10.328 L113.728,10.328 C115.68,10.328 117.072,11.576 117.072,13.544 C117.072,15.464 115.76,16.52 114.304,16.648 L117.184,21 Z M113.568,15.592 C114.832,15.592 115.696,14.744 115.696,13.544 C115.696,12.344 114.832,11.512 113.568,11.512 L110.768,11.512 L110.768,15.592 L113.568,15.592 Z M130.804,21 L129.284,21 L128.34,18.632 L123.028,18.632 L122.084,21 L120.564,21 L124.852,10.328 L126.5,10.328 L130.804,21 Z M127.94,17.448 L125.684,11.704 L123.412,17.448 L127.94,17.448 Z M137.592,21 L136.264,21 L136.264,11.512 L132.888,11.512 L132.888,10.328 L140.984,10.328 L140.984,11.512 L137.592,11.512 L137.592,21 Z M146.572,21 L145.244,21 L145.244,10.328 L146.572,10.328 L146.572,21 Z M160.4,21 L159.12,21 L152.896,12.488 L152.896,21 L151.568,21 L151.568,10.328 L152.928,10.328 L159.072,18.664 L159.072,10.328 L160.4,10.328 L160.4,21 Z M170.452,21.208 C167.412,21.208 164.964,18.984 164.964,15.672 C164.964,12.36 167.412,10.152 170.452,10.152 C172.34,10.152 173.652,10.984 174.596,12.152 L173.54,12.808 C172.868,11.944 171.732,11.336 170.452,11.336 C168.116,11.336 166.34,13.128 166.34,15.672 C166.34,18.2 168.116,20.024 170.452,20.024 C171.732,20.024 172.788,19.4 173.316,18.872 L173.316,16.696 L169.652,16.696 L169.652,15.512 L174.644,15.512 L174.644,19.368 C173.652,20.472 172.196,21.208 170.452,21.208 Z" id="Celebrating" fill="#FFFFFF"></path>
                    <path d="M228.804,21 L227.476,21 L227.476,16.488 L223.268,10.328 L224.82,10.328 L228.132,15.288 L231.444,10.328 L232.996,10.328 L228.804,16.488 L228.804,21 Z M243.88,21 L236.888,21 L236.888,10.328 L243.88,10.328 L243.88,11.512 L238.216,11.512 L238.216,14.952 L243.768,14.952 L243.768,16.136 L238.216,16.136 L238.216,19.816 L243.88,19.816 L243.88,21 Z M257.628,21 L256.108,21 L255.164,18.632 L249.852,18.632 L248.908,21 L247.388,21 L251.676,10.328 L253.324,10.328 L257.628,21 Z M254.764,17.448 L252.508,11.704 L250.236,17.448 L254.764,17.448 Z M269.264,21 L267.696,21 L264.976,16.76 L262.848,16.76 L262.848,21 L261.52,21 L261.52,10.328 L265.808,10.328 C267.76,10.328 269.152,11.576 269.152,13.544 C269.152,15.464 267.84,16.52 266.384,16.648 L269.264,21 Z M265.648,15.592 C266.912,15.592 267.776,14.744 267.776,13.544 C267.776,12.344 266.912,11.512 265.648,11.512 L262.848,11.512 L262.848,15.592 L265.648,15.592 Z M277.204,21.192 C275.348,21.192 273.988,20.488 273.108,19.496 L273.892,18.488 C274.596,19.272 275.748,20.008 277.252,20.008 C279.156,20.008 279.764,18.984 279.764,18.168 C279.764,15.416 273.444,16.936 273.444,13.128 C273.444,11.368 275.012,10.168 277.108,10.168 C278.74,10.168 280.004,10.712 280.9,11.656 L280.1,12.632 C279.3,11.752 278.18,11.352 277.012,11.352 C275.732,11.352 274.82,12.04 274.82,13.048 C274.82,15.448 281.14,14.072 281.14,18.056 C281.14,19.608 280.084,21.192 277.204,21.192 Z" id="Years" fill="#FFFFFF"></path>
                    <path d="M197.194,24 L185.312,24 L185.312,23.636 C185.988003,23.0639971 186.607664,22.5353358 187.171,22.05 C187.734336,21.5646642 188.262998,21.0880023 188.757,20.62 C189.251002,20.1519977 189.723331,19.6753358 190.174,19.19 C190.624669,18.7046642 191.083998,18.1846694 191.552,17.63 C192.661339,16.2779932 193.419665,14.9693397 193.827,13.704 C194.234335,12.4386603 194.438,11.268672 194.438,10.194 C194.438,8.6339922 194.173669,7.45533732 193.645,6.658 C193.116331,5.86066268 192.280006,5.462 191.136,5.462 C190.251996,5.462 189.524003,5.65699805 188.952,6.047 C188.379997,6.43700195 188.094,6.9786632 188.094,7.672 C188.094,7.91466788 188.150333,8.16166541 188.263,8.413 C188.375667,8.66433459 188.432,8.9199987 188.432,9.18 C188.432,9.47466814 188.328001,9.69566593 188.12,9.843 C187.911999,9.99033407 187.669335,10.064 187.392,10.064 C187.027998,10.064 186.716001,9.96866762 186.456,9.778 C186.195999,9.58733238 186.066,9.24066918 186.066,8.738 C186.066,8.28733108 186.195999,7.84100221 186.456,7.399 C186.716001,6.95699779 187.071331,6.56700169 187.522,6.229 C187.972669,5.89099831 188.509997,5.61800104 189.134,5.41 C189.758003,5.20199896 190.42533,5.098 191.136,5.098 C192.141338,5.098 193.003663,5.24533186 193.723,5.54 C194.442337,5.83466814 195.035998,6.22033095 195.504,6.697 C195.972002,7.17366905 196.318666,7.7153303 196.544,8.322 C196.769334,8.9286697 196.882,9.55266346 196.882,10.194 C196.882,10.9740039 196.769334,11.6976633 196.544,12.365 C196.318666,13.0323367 196.011002,13.6606637 195.621,14.25 C195.230998,14.8393363 194.784669,15.402664 194.282,15.94 C193.779331,16.477336 193.250669,17.014664 192.696,17.552 C191.915996,18.3320039 191.149004,19.0773298 190.395,19.788 C189.640996,20.4986702 188.813338,21.2613293 187.912,22.076 L193.866,22.076 C194.888672,22.076 195.625331,21.8290025 196.076,21.335 C196.526669,20.8409975 196.803999,20.160671 196.908,19.294 L197.194,19.294 L197.194,24 Z M203.796,14.718 C203.796,16.3300081 203.843666,17.7209941 203.939,18.891 C204.034334,20.0610059 204.207665,21.0229962 204.459,21.777 C204.710335,22.5310038 205.061331,23.0899982 205.512,23.454 C205.962669,23.8180018 206.551996,24 207.28,24 C208.008004,24 208.597331,23.8180018 209.048,23.454 C209.498669,23.0899982 209.849665,22.5310038 210.101,21.777 C210.352335,21.0229962 210.525666,20.0610059 210.621,18.891 C210.716334,17.7209941 210.764,16.3300081 210.764,14.718 C210.764,13.1059919 210.716334,11.7193391 210.621,10.558 C210.525666,9.39666086 210.352335,8.43900377 210.101,7.685 C209.849665,6.93099623 209.498669,6.37200182 209.048,6.008 C208.597331,5.64399818 208.008004,5.462 207.28,5.462 C206.551996,5.462 205.962669,5.64399818 205.512,6.008 C205.061331,6.37200182 204.710335,6.93099623 204.459,7.685 C204.207665,8.43900377 204.034334,9.39666086 203.939,10.558 C203.843666,11.7193391 203.796,13.1059919 203.796,14.718 Z M201.196,14.718 C201.196,13.6779948 201.278333,12.590339 201.443,11.455 C201.607667,10.319661 201.915331,9.27967139 202.366,8.335 C202.816669,7.39032861 203.436329,6.6146697 204.225,6.008 C205.013671,5.4013303 206.031994,5.098 207.28,5.098 C208.528006,5.098 209.546329,5.4013303 210.335,6.008 C211.123671,6.6146697 211.743331,7.39032861 212.194,8.335 C212.644669,9.27967139 212.952333,10.319661 213.117,11.455 C213.281667,12.590339 213.364,13.6779948 213.364,14.718 C213.364,15.7753386 213.281667,16.871661 213.117,18.007 C212.952333,19.142339 212.644669,20.1823286 212.194,21.127 C211.743331,22.0716714 211.123671,22.8473303 210.335,23.454 C209.546329,24.0606697 208.528006,24.364 207.28,24.364 C206.031994,24.364 205.013671,24.0606697 204.225,23.454 C203.436329,22.8473303 202.816669,22.0716714 202.366,21.127 C201.915331,20.1823286 201.607667,19.142339 201.443,18.007 C201.278333,16.871661 201.196,15.7753386 201.196,14.718 Z" id="20" fill="#FFFFFF"></path>
                    <path d="M0,15 L32,15" id="Line-Copy-3" stroke="#FFFFFF" stroke-width="2" stroke-linecap="square" transform="translate(16.000000, 15.000000) scale(-1, 1) translate(-16.000000, -15.000000) "></path>
                    <path d="M297,15 L329,15" id="Line-Copy-4" stroke="#FFFFFF" stroke-width="2" stroke-linecap="square" transform="translate(313.000000, 15.000000) scale(-1, 1) translate(-313.000000, -15.000000) "></path>
                </g>
            </g>
        </g>
    </g>
</svg>