<svg version="1.1"
      xmlns="http://www.w3.org/2000/svg"
      xmlns:xlink="http://www.w3.org/1999/xlink"  id="snapshot-51681" width="250" height="250" viewBox="0 0 250 250"><desc>This image was made on Patterninja.com</desc><defs>
<!-- image 50099 -->
<g id="transformed-50099" data-image="50099" transform="translate(-63.743999999999865, -83) rotate(0, 63.743999999999865, 83)"><g><svg version="1.1" width="127.48799999999973px" height="166px" viewBox="0 0 127.48799999999973 166"><g id="original-50099"><svg xmlns="http://www.w3.org/2000/svg" viewBox="0 0 53 69" xmlns:xlink="http://www.w3.org/1999/xlink" version="1.1" preserveAspectRatio="xMidYMid meet">
  <path fill-rule="evenodd" d="M14 0h31L24 40H0L14 0zm11 24h28L10 69l15-45z" fill="rgba(255, 217, 40, 1)" stroke="none"/>
  <path fill-rule="evenodd" d="M17 2h23L20 6 4 38 17 2zm8.5 38L14 63l8.306-23H25.5z" fill="rgba(255, 243, 185, 1)" stroke="none"/>
</svg>
</g></svg></g></g>
<!-- /image 50099 -->
</defs><rect x="0" y="0" width="250" height="250" fill="rgba(255, 255, 255, 0)"></rect><use xlink:href="#transformed-50099" transform="translate(-250, -250)"></use><use xlink:href="#transformed-50099" transform="translate(0, -250)"></use><use xlink:href="#transformed-50099" transform="translate(250, -250)"></use><use xlink:href="#transformed-50099" transform="translate(-250, 0)"></use><use xlink:href="#transformed-50099" transform="translate(0, 0)"></use><use xlink:href="#transformed-50099" transform="translate(250, 0)"></use><use xlink:href="#transformed-50099" transform="translate(-250, 250)"></use><use xlink:href="#transformed-50099" transform="translate(0, 250)"></use><use xlink:href="#transformed-50099" transform="translate(250, 250)"></use></svg>