<?xml version="1.0" encoding="UTF-8"?>
<svg viewBox="0 0 50 16" version="1.1" xmlns="http://www.w3.org/2000/svg" xmlns:xlink="http://www.w3.org/1999/xlink">
    <title>tuco</title>
    <g id="Page-1" stroke="none" stroke-width="1" fill="none" fill-rule="evenodd">
        <g id="tuco" transform="translate(0.000000, 0.675676)" fill-rule="nonzero">
            <g id="Group" transform="translate(38.405797, 1.684293)">
                <path d="M7.44281451,9.57777258 C8.20689532,9.2268774 8.83884969,8.6712736 9.33802292,7.91203163 C9.83313679,7.16040229 10.0819377,6.20680009 10.0858662,5.05241452 L5.04293308,5.05241452 L5.04293308,10.104829 L5.04384972,10.104829 C5.87890421,10.104829 6.67899568,9.93009511 7.44281451,9.57777258" id="Path" fill="#029F5F"></path>
                <path d="M5.04293308,0 C4.18686022,0 3.37780131,0.171969763 2.61353006,0.513887511 C1.84899689,0.856875611 1.22288639,1.40667935 0.733758026,2.16555836 C0.244629659,2.92467522 -4.09568441e-16,3.87823923 -4.09568441e-16,5.02422861 C-4.09568441e-16,5.03374283 0.000523833333,5.04290026 0.000654790514,5.05241452 L5.04293308,5.05241452 L5.04293308,0 Z" id="Path" fill="#B43D51"></path>
                <path d="M9.33735386,2.16566031 C8.83825838,1.40674557 8.20640241,0.856915952 7.44244067,0.513911704 C6.67874081,0.171977857 5.87877399,9.79402794e-17 5.04384958,9.79402794e-17 C5.04358771,9.79402794e-17 5.04332588,9.79402794e-17 5.04293308,9.79402794e-17 L5.04293308,5.05193877 L10.0850806,5.05241452 C10.0852115,5.04289982 10.0858662,5.03397982 10.0858662,5.02446512 C10.0858662,3.87842181 9.83658026,2.92481292 9.33735386,2.16566031" id="Path" fill="#E98A32"></path>
                <path d="M0,5.05241452 C0.00406022596,6.20680009 0.247935804,7.16040229 0.733198436,7.91203163 C1.22239032,8.6712736 1.84858212,9.2268774 2.61321457,9.57777258 C3.37758508,9.93009511 4.18661808,10.1045911 5.04280212,10.104829 L5.04293308,5.05241452 L0,5.05241452 Z" id="Path" fill="#92266C"></path>
            </g>
            <g id="Group" transform="translate(39.855072, 3.858206)" fill="#FFFFFE">
                <path d="M5.99785174,1.55092343 L5.99914348,1.55092343 L5.99914348,0.429168678 C5.94056957,0.397113231 5.78154435,0.33848429 5.57593739,0.378158707 C5.36285826,0.419412673 5.28592826,0.540294225 5.28592826,0.540294225 L5.28592826,1.58102765 C5.28592826,1.58102765 5.45777522,1.51654511 5.57593739,1.50316544 C5.84011826,1.47324705 5.96455261,1.54832183 5.99785174,1.55092343" id="Path"></path>
                <path d="M4.5205813,0.378158707 C4.31454761,0.33848429 4.15556248,0.397113231 4.09723709,0.429168678 L4.09723709,1.55092343 L4.09816143,1.55092343 C4.1317147,1.54832183 4.25603739,1.47324705 4.5205813,1.50316544 C4.63871096,1.51654511 4.81045174,1.58102765 4.81045174,1.58102765 L4.81045174,0.540294225 C4.81045174,0.540294225 4.73345504,0.419412673 4.5205813,0.378158707" id="Path"></path>
                <path d="M6.15504217,0.608087581 L6.15504217,1.73981637 L6.14166174,1.73865378 C6.13989826,1.73844241 5.94987391,1.72026372 5.7818387,1.72026372 C5.73806696,1.72026372 5.69979217,1.72174337 5.66763739,1.72417423 C5.53186087,1.73453186 5.36973826,1.76211697 5.28592826,1.78092977 L5.28592826,1.8242627 L6.23688174,1.8242627 L6.23688174,0.608087581 L6.15504217,0.608087581 Z" id="Path"></path>
                <path d="M4.31464078,1.72026372 C4.14636174,1.72026372 3.95660683,1.73844241 3.95473939,1.73865378 L3.94114839,1.73981637 L3.94114839,0.608087581 L3.85949883,0.608087581 L3.85949883,1.8242627 L4.81045174,1.8242627 L4.81045174,1.78092977 C4.72672739,1.76211697 4.56467317,1.73453186 4.42876343,1.72417423 C4.39670535,1.72174337 4.35842239,1.72026372 4.31464078,1.72026372" id="Path"></path>
                <path d="M5.15020348,4.12740054 C5.25313913,4.11221191 5.35468087,4.13065525 5.45300565,4.17296647 L5.52366652,3.83740615 L5.48270696,3.82145806 C5.32776739,3.76526011 5.16982565,3.7567979 5.00973957,3.78836856 C4.74157087,3.84142029 4.56229143,4.03594328 4.53784422,4.31074903 C4.52915904,4.40882421 4.54492104,4.51601258 4.56389978,4.61332834 L4.33508261,4.61332834 L4.33508261,4.91080856 L4.60754017,4.91080856 C4.60754017,4.91080856 4.60850522,4.91395478 4.61118583,4.939233 C4.62244439,5.04642136 4.61172191,5.14872767 4.54974613,5.24116134 C4.49184487,5.32827897 4.460857,5.37102417 4.36864387,5.41897686 C4.35663474,5.42505231 4.33497535,5.43167019 4.33497535,5.43167019 L4.33497535,5.7160231 L5.52355957,5.7160231 L5.52355957,5.41897686 L4.8338913,5.41897686 C4.96288217,5.30321775 5.01177652,5.07669012 5.0047,4.91080856 L5.36068522,4.91080856 L5.36068522,4.61332834 L4.97617826,4.61332834 C4.97617826,4.61332834 4.95173087,4.50375318 4.94947913,4.47511175 C4.94443957,4.40372517 4.94165174,4.43214961 4.94326043,4.36098002 C4.94615522,4.23068326 5.02442913,4.14606087 5.15020348,4.12740054" id="Path"></path>
                <path d="M1.55210435,0.63352 L1.5375153,0.621487224 C1.53613096,0.620139576 1.53485309,0.619176945 1.5334687,0.618214314 C1.5174953,0.605796522 1.50620739,0.597229208 1.50152187,0.59434136 C1.47862665,0.581634738 1.454986,0.572971148 1.44103587,0.571816009 C1.41963148,0.574992642 1.40482948,0.579131951 1.39662978,0.582116076 C1.37714222,0.619754515 1.34562135,0.673565039 1.31495239,0.723332531 C1.29269609,0.760008384 1.26926843,0.796876745 1.248077,0.826140424 C1.24445639,0.83104981 1.2412617,0.835574136 1.23849296,0.839328339 C1.23828,0.839520847 1.238067,0.8397134 1.23774752,0.840098417 C1.23018678,0.850302207 1.222839,0.859254582 1.21613017,0.866570524 C1.16160761,0.926060468 1.08802339,0.953495162 1.00347078,0.948008205 C1.00283183,0.948008205 1.00229939,0.948008205 1.00155396,0.948008205 C0.970672043,0.948008205 0.94191987,0.941269877 0.91583,0.93125864 C0.825207478,0.902861315 0.799756478,0.860794783 0.792621696,0.839905909 C0.792302217,0.839135831 0.792089261,0.838269431 0.791876261,0.837499353 C0.790811391,0.833937659 0.790278913,0.831242319 0.790065957,0.829605886 L0.789852957,0.828258194 C0.789746478,0.827680624 0.789746478,0.827295563 0.789746478,0.826717993 L0.788575087,0.817958172 L0.793899565,0.807176812 C0.833300652,0.721984838 0.882711783,0.628995674 0.930738478,0.538701851 C0.956083,0.490955853 0.981001522,0.444172495 1.00357726,0.399795674 L1.00400322,0.399025579 L1.01816635,0.371205837 C1.01912474,0.369088071 1.02029613,0.366874042 1.021361,0.36485254 L0.332161391,0.440225748 L0.179242565,0.433198618 C0.155601913,0.47853806 0.104380478,0.590009543 0.0725401304,0.750959732 C0.039634913,0.916434247 0.062956087,1.06698814 0.0750958696,1.12686319 L0.205332478,1.15035113 C0.216833304,1.1181996 0.228227696,1.08604803 0.240154522,1.05408905 C0.263262739,0.992385061 0.313419261,0.952725084 0.381572478,0.942713802 C0.445359652,0.933568919 0.503822348,0.955516656 0.542052043,0.998738328 C0.548228435,1.00595799 0.553765913,1.01365895 0.558451435,1.02135991 C0.598278478,0.992962631 0.649499913,0.982662564 0.693054087,0.987475674 C0.743423565,0.992962631 0.790172435,1.0211674 0.817966174,1.06294515 C0.823077696,1.07064611 0.827443739,1.07873213 0.83117087,1.08701066 C0.865886435,1.0689134 0.90933413,1.06217507 0.95235587,1.06929846 C1.02221291,1.08133119 1.07737443,1.13321645 1.09047265,1.19415037 C1.11986374,1.18394658 1.15340791,1.18076994 1.18535474,1.18644941 C1.25542478,1.19848214 1.30920196,1.25238894 1.3208093,1.31880977 L1.33156474,1.32833971 C1.33955143,1.33565561 1.41611735,1.3973596 1.47766826,1.4466458 C1.55838722,1.51171897 1.6082243,1.55195652 1.61684991,1.55965748 C1.63665696,1.57746595 1.65838083,1.58102765 1.67318283,1.58102765 C1.70438426,1.58102765 1.73271043,1.56485565 1.74708652,1.53838355 C1.76316643,1.50921614 1.75709652,1.47860482 1.73068713,1.45453931 C1.72291339,1.44780094 1.58713939,1.33604067 1.49736878,1.26220767 C1.43698926,1.21272896 1.38757817,1.17191385 1.3824667,1.16777454 L1.34956143,1.13995483 L1.42516896,1.06304143 L1.459778,1.0943266 C1.47149187,1.10501168 1.57414765,1.1884709 1.66487665,1.26220767 C1.78105665,1.35654448 1.85240457,1.41468678 1.86465087,1.42556441 C1.88105022,1.44019625 1.90085726,1.44808972 1.92226165,1.44808972 C1.95314357,1.44808972 1.98083083,1.43182145 1.99605883,1.40467554 C2.01224522,1.37608571 2.0071337,1.34528183 1.9821087,1.32237146 C1.97348304,1.3146705 1.87860096,1.23698698 1.80235452,1.17441663 C1.68915626,1.08190876 1.63495313,1.03733944 1.62685996,1.0300235 L1.59576504,1.00162622 L1.67126604,0.927311884 L1.70534265,0.956864348 C1.71450074,0.964757815 1.83557922,1.06342644 1.92407196,1.13581556 C1.99467443,1.19338029 2.0566513,1.24391786 2.06367961,1.24978983 C2.0778427,1.2616301 2.0969043,1.26817592 2.11756326,1.26817592 C2.13044848,1.26817592 2.14322722,1.2653843 2.15430213,1.26028241 C2.17623896,1.24998239 2.19050852,1.23227014 2.19434213,1.20993735 C2.19838874,1.18664192 2.18986957,1.16315398 2.17144691,1.14467166 C2.07912057,1.07083862 1.90245461,0.924135206 1.55210435,0.63352" id="Path"></path>
                <path d="M1.342647,1.62353061 C1.31865,1.60420312 1.30222617,1.59091006 1.29009078,1.58102765 C1.27813787,1.6160095 1.26627626,1.6510788 1.25368465,1.68571086 C1.25112983,1.69288214 1.2479363,1.69970359 1.24437783,1.70617525 C1.26071039,1.71955576 1.30195243,1.75217637 1.33981848,1.78191095 L1.36290304,1.80307496 C1.36755648,1.80718533 1.37275735,1.81059603 1.37777574,1.81400678 C1.37996557,1.81531857 1.38215543,1.81671786 1.38434526,1.81829204 C1.41208326,1.82966114 1.44474843,1.82441387 1.46345335,1.80578604 C1.48361813,1.78584638 1.48781535,1.75541217 1.47422009,1.73066252 C1.45843496,1.71666979 1.38936365,1.6611361 1.342647,1.62353061" id="Path"></path>
                <path d="M2.62525722,0.632425552 C2.57826204,0.490217703 2.51873487,0.402010631 2.49022448,0.36485254 C2.38641739,0.388640664 2.31331378,0.40930334 2.27237578,0.420676495 C2.23571957,0.431007835 2.22694713,0.433525556 2.21587717,0.433525556 L2.14684652,0.429271474 C2.05034978,0.423888763 1.95395748,0.418158774 1.85746078,0.412341971 L1.68880035,0.402184268 C1.59815191,0.39688837 1.50750348,0.391505659 1.41685504,0.385428397 C1.40588952,0.384560219 1.3928353,0.38317113 1.3786323,0.381868861 C1.35106183,0.379090685 1.31994061,0.375878421 1.29289226,0.375878421 C1.26584396,0.375878421 1.25498283,0.379090685 1.25164096,0.380479773 L1.25153652,0.380479773 C1.23681139,0.405570167 1.22615913,0.424930577 1.21582022,0.444030533 L1.20151278,0.469989119 C1.179164,0.51053311 1.15451765,0.553247536 1.1292447,0.596656544 C1.08674017,0.670278172 1.04277361,0.746417525 1.00663952,0.816392821 C1.00684839,0.816566466 1.0071617,0.816913712 1.00726613,0.816913712 C1.01917157,0.825942787 1.03776078,0.837489588 1.05958743,0.846084593 C1.0772367,0.852856366 1.0969747,0.85797864 1.11713039,0.85797864 L1.11932348,0.85797864 C1.18793643,0.857457748 1.23879561,0.836274158 1.27472083,0.792865151 C1.27472083,0.792691505 1.27482522,0.792691505 1.27482522,0.792517904 C1.27492965,0.792517904 1.27503409,0.792517904 1.27513852,0.792344259 C1.28965483,0.774720178 1.31534552,0.738603924 1.34228939,0.698580825 C1.37581261,0.648920936 1.41100678,0.593270635 1.42865604,0.560540245 L1.42907378,0.559845708 L1.43304226,0.552379353 L1.43366887,0.55211893 L1.44118809,0.54682301 C1.45455561,0.537707113 1.4882877,0.524597592 1.53893804,0.518867648 C1.54113113,0.518520357 1.54332426,0.518694002 1.54541291,0.518520357 C1.54833704,0.518173066 1.55126122,0.517999465 1.55428978,0.517999465 C1.61225048,0.517999465 1.66749591,0.555331193 1.70383883,0.583286555 L1.7054053,0.584328384 L1.71835509,0.594312464 C2.01003839,0.816740111 2.22350083,0.97874243 2.32856113,1.05739951 C2.34934343,1.07311358 2.36647052,1.08587581 2.37858487,1.09455764 C2.39738291,1.08214265 2.42161152,1.06365043 2.43069726,1.05548954 C2.45053965,1.03482685 2.51006687,1.0060033 2.66943265,0.957211594 C2.67267009,0.907638528 2.67423661,0.781665641 2.62525722,0.632425552" id="Path"></path>
                <path d="M1.175773,1.58202359 C1.17019161,1.58133409 1.16484274,1.58102765 1.15926135,1.58102765 C1.12228452,1.58102765 1.08902861,1.59581329 1.07647043,1.61795344 C1.05763317,1.65135514 1.03949361,1.68667211 1.02135404,1.72497686 C1.017168,1.73348049 1.01309822,1.74213735 1.00902843,1.75125387 C1.00786565,1.75370537 1.00809822,1.75608027 1.00751678,1.75845516 C1.00507491,1.76964013 1.00774935,1.78105494 1.01530752,1.79155046 C1.02135404,1.79990087 1.02949361,1.80771505 1.04088896,1.81338417 C1.05542387,1.82058542 1.07216813,1.8242627 1.0897263,1.8242627 C1.10647052,1.8242627 1.12228452,1.82058542 1.13612174,1.81468651 C1.1527497,1.80771505 1.16635439,1.79721958 1.17426139,1.78404272 C1.17484278,1.78327666 1.17588926,1.78243394 1.1764707,1.7815146 C1.18716839,1.76098328 1.1972847,1.74022212 1.20763352,1.71953757 C1.21716843,1.70069164 1.22705217,1.68199893 1.23623826,1.66284656 C1.23937778,1.65717748 1.24077313,1.65089547 1.24240104,1.64461351 C1.24298248,1.64216201 1.24368013,1.63994033 1.24437783,1.63771866 C1.2410057,1.60975621 1.21274983,1.58654355 1.175773,1.58202359" id="Path"></path>
                <path d="M0.757311652,1.38375737 C0.745056391,1.35851942 0.72512913,1.34157222 0.70410587,1.33852419 C0.70101713,1.33803648 0.697928391,1.33779264 0.694740043,1.33779264 C0.666244043,1.33779264 0.632666609,1.35534948 0.621706609,1.39497423 C0.608255696,1.44349931 0.594605522,1.49202439 0.580656435,1.54067139 C0.571290609,1.57346849 0.562223739,1.60638751 0.552957565,1.63942845 C0.548175,1.65613182 0.543392478,1.67307902 0.538709565,1.69014814 C0.537513913,1.69429351 0.536417913,1.69831692 0.535222261,1.70234038 C0.531336478,1.71684914 0.530240478,1.73160174 0.531934261,1.74586662 C0.533628087,1.76000963 0.537912478,1.77329918 0.544887,1.7850037 C0.559334261,1.80975394 0.582649174,1.8242627 0.608554609,1.8242627 L0.609152435,1.8242627 C0.619315348,1.8242627 0.62848187,1.82170234 0.637150261,1.81731313 C0.651597522,1.81048548 0.663254957,1.79780553 0.671823696,1.78049258 C0.674812783,1.77403068 0.67780187,1.7680565 0.67999387,1.7604973 C0.682684043,1.75074355 0.68547387,1.74086783 0.688164043,1.73111402 C0.694839652,1.70709534 0.701415652,1.68356433 0.707892043,1.65942372 C0.725527652,1.59517066 0.743661478,1.52847915 0.764086913,1.46349454 C0.775146565,1.42850283 0.764684739,1.39850997 0.757311652,1.38375737" id="Path"></path>
                <path d="M0.944915261,1.33962056 C0.939526913,1.33828009 0.933939043,1.33779264 0.928450913,1.33779264 C0.896120957,1.33779264 0.869578435,1.35984954 0.859300696,1.39555487 C0.831261391,1.49243456 0.804020391,1.58980169 0.777078739,1.68716878 C0.775781565,1.69143394 0.774484391,1.69569909 0.773286957,1.69996424 C0.769395391,1.71434386 0.768297783,1.72860161 0.769195826,1.74212821 C0.770493,1.75760459 0.774584174,1.77259353 0.781868391,1.78526711 C0.785560391,1.79136018 0.789651522,1.79684392 0.794241565,1.80159652 C0.807812174,1.81597614 0.825773304,1.82401895 0.845530522,1.8242627 L0.847127043,1.8242627 C0.860298522,1.8242627 0.871973217,1.81975385 0.882350739,1.81305146 C0.897817261,1.80281512 0.910090696,1.78685128 0.91647687,1.76430698 C0.921366261,1.74736825 0.926056087,1.73030769 0.930845739,1.71312526 C0.955093217,1.62794426 0.978941565,1.54264138 1.00259035,1.45770408 C1.00518474,1.44893008 1.00648191,1.43991237 1.0065817,1.43199139 C1.00807848,1.3892181 0.980338522,1.34778528 0.944915261,1.33962056" id="Path"></path>
                <path d="M0.433753478,1.33848161 C0.396494957,1.3425419 0.371888087,1.35702114 0.358772174,1.38276196 C0.34379913,1.41195023 0.329406435,1.44144495 0.315013739,1.47070983 C0.310138826,1.48089891 0.304799565,1.4912412 0.299808565,1.50143028 C0.299576435,1.50204317 0.299576435,1.50250279 0.299344304,1.50288584 C0.297487174,1.50740584 0.296326478,1.51223224 0.295165783,1.51682881 C0.294585435,1.51905048 0.29412113,1.52119554 0.293424696,1.52341721 C0.29412113,1.52939278 0.295862174,1.5350619 0.298531783,1.54050118 C0.307237043,1.55858105 0.326736826,1.57283046 0.352504391,1.57834631 C0.360977522,1.58010836 0.369682783,1.58102765 0.378388043,1.58102765 C0.386629,1.58102765 0.39487,1.58010836 0.402530609,1.57849953 C0.420753609,1.57505213 0.436655217,1.56754439 0.448146174,1.5572021 C0.448958652,1.55635938 0.450235435,1.55574649 0.451164,1.55467394 C0.458592478,1.54708959 0.464395957,1.53705373 0.46961913,1.5271711 C0.471011957,1.52464299 0.472636957,1.52180843 0.473797652,1.5192037 L0.487493913,1.49246693 C0.503511609,1.46105699 0.518600696,1.43125588 0.529395217,1.40084183 C0.534386261,1.38666907 0.528698826,1.3712705 0.513725783,1.35885975 C0.494574217,1.34307817 0.464976304,1.3353406 0.433753478,1.33848161" id="Path"></path>
                <path d="M1.36224309,4.74308299 C1.27661952,4.74308299 1.24437783,4.80791344 1.24437783,4.80791344 L1.24437783,5.71370082 C1.27390317,5.71524901 1.30354665,5.7160231 1.33330822,5.7160231 C1.38255652,5.7160231 1.43227726,5.71370082 1.48211609,5.70924977 L1.48211609,4.80791344 C1.48211609,4.80791344 1.44763043,4.74308299 1.36224309,4.74308299" id="Path"></path>
                <path d="M1.70255235,4.11358809 C1.5126393,4.33553043 1.48057257,4.63928767 1.48217148,4.63928767 C1.48403687,4.63928767 1.77743387,4.38486328 1.77743387,4.38486328 C1.77743387,4.38486328 1.80292735,4.40093802 1.81411961,4.42078198 C1.82531187,4.44140201 1.83064152,4.47233204 1.83064152,4.47233204 L1.5327143,4.72376321 C1.5327143,4.73407322 1.75655943,4.79404865 2.00572039,4.63186002 C2.35152561,4.40758961 2.43306917,3.77014292 2.43306917,3.77014292 C2.43306917,3.77014292 1.90028222,3.88233351 1.70255235,4.11358809" id="Path"></path>
                <path d="M1.1981243,4.45699871 L0.828383609,4.28528477 C0.828383609,4.28528477 0.830516696,4.25755456 0.840572826,4.23825975 C0.850527391,4.21915889 0.877445348,4.20131848 0.877445348,4.20131848 C0.877445348,4.20131848 1.24241191,4.37652294 1.24434191,4.37632905 C1.24627187,4.37613512 1.17080004,4.1180309 0.927116565,3.9551402 C0.673376913,3.78526845 0.0556864348,3.77014292 0.0556864348,3.77014292 C0.0556864348,3.77014292 0.230195913,4.30933052 0.650826783,4.45059946 C0.953831348,4.55240615 1.19954639,4.46630676 1.1981243,4.45699871" id="Path"></path>
            </g>
            <path d="M9.74951459,0.235017626 L1.1026383,0.235017626 C0.794130316,0.235017626 0.520981106,0.350545636 0.312246827,0.569231344 C0.107999159,0.783721898 0,1.05834295 0,1.36297548 C0,1.67072747 0.109815168,1.94405771 0.317694855,2.153385 C0.525681369,2.36260472 0.797121392,2.47329218 1.1026383,2.47329218 L4.27125458,2.47329218 L4.27125458,12.1155785 C4.27125458,12.4351629 4.38726555,12.7206483 4.60636178,12.94084 C4.82567162,13.161677 5.10907595,13.2784959 5.42612988,13.2784959 C5.74008586,13.2784959 6.02466527,13.1632906 6.24931635,12.9461108 C6.47770624,12.7248435 6.59820384,12.437637 6.59820384,12.1155785 L6.59820384,2.47329218 L9.74951459,2.47329218 C10.0520404,2.47329218 10.3244419,2.36475608 10.5376628,2.15865583 C10.7548362,1.94868313 10.8695652,1.67352424 10.8695652,1.36297548 C10.8695652,1.05543862 10.756759,0.779096473 10.5428972,0.563530239 C10.3290353,0.348609414 10.0548179,0.235017626 9.74951459,0.235017626" id="Path" fill="#000105"></path>
            <path d="M21.9991373,0.235017626 C21.6744268,0.235017626 21.3850486,0.361513587 21.1623249,0.60072428 C20.9431778,0.836013483 20.8273182,1.13471873 20.8273182,1.46445975 L20.8273182,8.71237567 C20.8273182,9.35998122 20.6852302,9.91268676 20.4049561,10.3553666 C20.1183958,10.80757 19.7519585,11.1368629 19.2845097,11.3622924 C18.8090408,11.5916433 18.2939042,11.7080554 17.7535148,11.7080554 C17.2132338,11.7080554 16.6982057,11.5916433 16.2227367,11.3625164 C15.7549628,11.1366388 15.3884171,10.807346 15.102182,10.3553666 C14.8219078,9.91313492 14.6798198,9.36042937 14.6798198,8.71237567 L14.6798198,1.46445975 C14.6798198,1.13202971 14.5592998,0.831531782 14.3309403,0.595682368 C14.1029059,0.35983295 13.8122272,0.235017626 13.4905513,0.235017626 C13.1658408,0.235017626 12.8764626,0.361513587 12.6538473,0.60072428 C12.4347002,0.836013483 12.3188406,1.13471873 12.3188406,1.46445975 L12.3188406,8.65792305 C12.3188406,9.81352916 12.5900107,10.810147 13.1246559,11.6196539 C13.6553994,12.4227744 14.3479562,13.0291483 15.183468,13.4217451 C16.0044567,13.8075074 16.8692314,14.0031336 17.7535148,14.0031336 C18.6379066,14.0031336 19.5026814,13.8075074 20.3237785,13.4217451 C21.1591819,13.0291483 21.8519554,12.4227744 22.3824821,11.6196539 C22.9172357,10.810147 23.1884058,9.81352916 23.1884058,8.65792305 L23.1884058,1.46445975 C23.1884058,1.13202971 23.067669,0.831531782 22.8395263,0.595682368 C22.6112751,0.35983295 22.3207047,0.235017626 21.9991373,0.235017626" id="Path" fill="#000105"></path>
            <path d="M35.1226717,10.7280372 C34.9428504,10.7280372 34.7754535,10.7661042 34.6183734,10.8447982 C34.115739,11.1084844 33.6187622,11.311731 33.1409767,11.4485273 C32.673286,11.5828747 32.1206211,11.6506607 31.4985126,11.6506607 C30.5393918,11.6506607 29.7167177,11.4526456 29.0532314,11.0619581 C28.3957355,10.6750551 27.8946542,10.1393346 27.563854,9.4698232 C27.2256214,8.78606446 27.0542309,7.99522843 27.0542309,7.11901993 C27.0542309,6.24292277 27.2256214,5.4518641 27.563854,4.76810538 C27.8944323,4.09903917 28.3956246,3.56331871 29.0532314,3.17619306 C29.7170505,2.78550559 30.5397246,2.58726787 31.4985126,2.58726787 C32.1206211,2.58726787 32.673286,2.65527643 33.1409767,2.78940134 C33.6173201,2.92597499 34.1142969,3.12922152 34.6241419,3.39613564 C34.7741224,3.47160177 34.9417411,3.51011398 35.1226717,3.51011398 C35.4433771,3.51011398 35.7210407,3.39658087 35.9257108,3.18175841 C36.1260546,2.97205608 36.2318841,2.71304475 36.2318841,2.43333033 C36.2318841,1.9746343 36.0247734,1.6186746 35.6383961,1.40719135 C34.9792362,1.032866 34.3063207,0.741353041 33.6379535,0.540666574 C32.9611554,0.337865269 32.1866259,0.235017626 31.3362187,0.235017626 C30.0739198,0.235017626 28.9224422,0.515845116 27.9136236,1.06981992 C26.8974836,1.62757916 26.0878994,2.43934091 25.5072796,3.48284377 C24.9302097,4.51989083 24.6376812,5.74315448 24.6376812,7.11901993 C24.6376812,8.49521935 24.9302097,9.71848299 25.5071687,10.7551961 C26.0875666,11.7982537 26.8971508,12.6102381 27.9136236,13.1683313 C28.9224422,13.7223061 30.0739198,14.0031336 31.3362187,14.0031336 C32.1867368,14.0031336 32.9612663,13.9002859 33.6380644,13.697262 C34.3049895,13.4972434 34.978016,13.205953 35.6331823,12.8337425 C36.0247734,12.6191427 36.2318841,12.2632943 36.2318841,11.8045983 C36.2318841,11.5103026 36.1241688,11.2462825 35.9196096,11.0406985 C35.7151613,10.8361163 35.4396054,10.7280372 35.1226717,10.7280372" id="Path" fill="#000105"></path>
            <path d="M45.4779901,11.3534799 C46.1148083,11.0251668 46.6415069,10.5053192 47.0575397,9.79493867 C47.4736814,9.08589364 47.6814797,8.18509152 47.6814797,7.09297749 C47.6814797,6.02056224 47.4736814,5.12821833 47.0575397,4.41783782 C46.6415069,3.70767989 46.1148083,3.19317431 45.4779901,2.87220652 C44.8413902,2.55224037 44.1745592,2.3913113 43.4785883,2.3913113 C42.764828,2.3913113 42.0902481,2.55224037 41.4532116,2.87220652 C40.816066,3.19317431 40.2942788,3.70767989 39.8866497,4.41783782 C39.4790205,5.12821833 39.2751513,6.02056224 39.2751513,7.09297749 C39.2751513,8.18509152 39.4790205,9.08589364 39.8866497,9.79493867 C40.2942788,10.5053192 40.816066,11.0251668 41.4532116,11.3534799 C42.0902481,11.6831285 42.764828,11.8466173 43.4785883,11.8466173 C44.1745592,11.8466173 44.8413902,11.6831285 45.4779901,11.3534799 L45.4779901,11.3534799 Z M46.8917596,1.09319468 C47.8763994,1.66401431 48.6407997,2.47455815 49.1844142,3.52171 C49.7277015,4.57019736 50,5.76815068 50,7.1200216 C50,8.46977793 49.7277015,9.66928933 49.1844142,10.717888 C48.6407997,11.7651512 47.8763994,12.5754724 46.8917596,13.146292 C45.9069011,13.7184472 44.7687045,14.0031336 43.4785883,14.0031336 C42.1705734,14.0031336 41.0240823,13.7184472 40.0393332,13.146292 C39.0538202,12.5754724 38.2944403,11.7651512 37.7595567,10.717888 C37.224673,9.66928933 36.9565217,8.46977793 36.9565217,7.1200216 C36.9565217,5.76815068 37.224673,4.57019736 37.7595567,3.52171 C38.2944403,2.47455815 39.0538202,1.66401431 40.0393332,1.09319468 C41.0240823,0.521150843 42.1705734,0.235017626 43.4785883,0.235017626 C44.7687045,0.235017626 45.9069011,0.521150843 46.8917596,1.09319468 Z" id="Shape" fill="#000105"></path>
        </g>
    </g>
</svg>