<svg height="30" viewBox="0 0 111 30" width="111" xmlns="http://www.w3.org/2000/svg"><g fill="none" fill-rule="evenodd"><g transform="translate(85.847291 3.818182)"><path d="m16.1402749 21.7141787c1.6569638-.7955295 3.027402-2.0551627 4.1098948-3.7764727 1.0736898-1.7040511 1.6132324-3.8660035 1.6217515-6.4831605h-10.9359606v11.4545454h.0019878c1.8108753 0 3.5459308-.3961467 5.2023265-1.1949122" fill="#029f5f"/><path d="m10.9359606 0c-1.85645515 0-3.61095718.38988002-5.26833399 1.1650564-1.65794479.77760302-3.01571013 2.02408664-4.07641992 3.74457376-1.0607098 1.72102638-1.59120669 3.8828922-1.59120669 6.48101384 0 .0215701.00113597.0423313.00141996.0639015h10.93454064z" fill="#b43d51"/><path d="m20.2487188 4.90986131c-1.0823242-1.72056813-2.452549-2.96711043-4.1092546-3.74475006-1.6561377-.77521288-3.3909229-1.16511125-5.2015161-1.16511125-.0005679 0-.0011357 0-.0019875 0v11.4534669l10.934257.0010786c.000284-.0215712.0017036-.0417941.0017036-.0633653 0-2.59824389-.5405943-4.76021149-1.6232024-6.48131889" fill="#e98a32"/><path d="m0 11.4545455c.00880489 2.617157.5376665 4.7791094 1.58999318 6.4831605 1.06084754 1.72131 2.41878919 2.9809432 4.07694928 3.7764727 1.65759204.7987655 3.41203789 1.1943729 5.26873414 1.1949122l.000284-11.4545454z" fill="#92266c"/></g><g fill="#fffffe"><path d="m102.795059 12.4779458h.002971v-2.51553504c-.13472-.07188434-.500478-.20335974-.973374-.11438986-.490082.09251202-.667021.3635889-.667021.3635889v2.3338447s.395248-.1446021.667021-.174606c.607616-.067092.893815.1012632.970403.1070973"/><path d="m99.397337 9.8480209c-.4738775-.08896988-.8395433.04250552-.9736917.11438986v2.51553504h.002126c.0771725-.0058341.3631147-.1741893.9715657-.1070973.2716982.0300039.666702.174606.666702.174606v-2.3338447s-.1770924-.27107688-.666702-.3635889"/><path d="m103.156597 10.3636364v2.5379018l-.030775-.0026071c-.004056-.000474-.441112-.0412397-.827593-.0412397-.100675 0-.188707.0033181-.262663.0087693-.312286.023227-.685168.0850866-.877931.1272743v.0971741h2.187193v-2.7272727z"/><path d="m98.9236738 12.8576914c-.3870418 0-.8234781.0407657-.8277732.0412397l-.0312593.0026071v-2.5379018h-.187794v2.7272727h2.1871917v-.0971741c-.192566-.0421877-.5652907-.1040473-.8778831-.1272743-.0737336-.0054512-.1617844-.0087693-.2624821-.0087693"/><path d="m100.845468 18.2556957c.236752-.0340605.470298.0072987.696445.1021816l.16252-.752494-.094207-.0357636c-.356361-.1260239-.719627-.1450004-1.087825-.0742032-.616788.1189685-1.0291307.5551863-1.0853593 1.1714382-.0199759.2199336.0162767.4603035.0599278.6785341h-.5262795v.6670994h.6266524s.0022196.0070554.008385.0637418c.0258947.2403699.001233.4697918-.1413113.6770743-.1331729.1953613-.204445.2912174-.4165352.3987513-.027621.0136242-.0774376.0284648-.0774376.0284648v.6376614h2.7337437v-.6661262h-1.586237c.296679-.2595898.409136-.767578.39286-1.1395674h.818766v-.6670994h-.884366s-.056229-.2457223-.061408-.3099507c-.011591-.1600844-.018003-.0963426-.014303-.2559404.006658-.2921905.186688-.4819562.475969-.523802"/><path d="m92.56984 10.4206686-.0335548-.0269835c-.003184-.0030221-.0061231-.0051808-.0093072-.0073395-.0367388-.0278469-.062701-.0470591-.0734777-.0535351-.052659-.0284946-.1070325-.0479227-.1391178-.0505131-.0492301.0071236-.0832747.016406-.102134.0230979-.0448214.0844042-.1173194.2050743-.187858.3166779-.0511895.0822456-.1050731.1649229-.1538134.2305467-.0083274.0110093-.0156752.0211551-.0220433.0295739-.0004898.0004317-.0009797.0008635-.0017145.0017269-.0173897.022882-.0342896.0429577-.0497199.0593637-.1254019.1334062-.2946456.1949285-.4891166.182624-.0014696 0-.0026942 0-.0044087 0-.0710284 0-.1371584-.0151107-.1971651-.0375609-.2084318-.063681-.2669691-.1580152-.2833791-.2048585-.0007348-.0017269-.0012246-.0036698-.0017145-.0053967-.0024492-.0079871-.0036739-.0140314-.0041637-.0177011l-.0004899-.0030222c-.0002449-.0012952-.0002449-.0021587-.0002449-.0034539l-.0026942-.0196439.0122463-.0241772c.0906225-.191043.2042681-.3995712.3147295-.6020551.0582924-.1070704.115605-.21198208.1675292-.3114971l.0009797-.00172694.0325752-.06238577c.0022043-.00474909.0048985-.00971405.0073477-.01424727l-1.5851591.16902442-.3517133-.01575834c-.0543735.1016737-.1721828.3516485-.2454156.7125793-.075682.3710766-.0220433.7086937.0058782.8429635l.2995442.0526717c.0264519-.0720998.052659-.1441997.0800907-.2158677.0531489-.1383712.1685089-.2273087.3252613-.249759.1467105-.0205074.2811747.0287104.369103.125635.0142057.0161901.0269419.0334595.0377186.0507289.0916022-.0636809.2094115-.0867788.3095861-.0759854.1158498.0123045.2233722.0755537.2872978.1692403.0117565.0172694.0217984.0354023.0303708.0539669.0798458-.0405831.1797755-.0556938.2787255-.0397196.1606712.0269834.2875427.1433361.3176686.2799804.0675995-.022882.1447511-.0300056.2182288-.0172694.1611611.0269834.2848486.1478694.3115455.2968181l.0247375.0213709c.0183694.0164059.194471.1547771.3360381.2653014.1856536.1459266.3002789.2361593.3201178.2534287.0455562.0399355.0955211.0479226.1295657.0479226.0717633 0 .1369135-.0362657.1699785-.0956294.0369838-.0654079.023023-.1340538-.0377186-.1880207-.0178796-.0151108-.3301598-.2657332-.5366322-.4313037-.1388729-.110956-.2525184-.2024839-.2642748-.2117663l-.0756821-.0623857.1738973-.1724783.0796008.070157c.0269419.0239613.2630502.2111186.4717269.3764733.267214.2115503.4313142.3419344.4594807.3663275.0377185.0328119.0832747.050513.1325048.050513.0710284 0 .1347091-.0364816.1697335-.0973563.0372287-.0641127.0254722-.1331904-.0320853-.1845669-.019839-.0172694-.2380678-.1914747-.4134346-.3317887-.260356-.2074489-.3850232-.3073956-.4036375-.3238016l-.0715183-.0636809.1736523-.1666499.0783762.0662714c.0210636.0177011.2995441.2389655.5030774.4012981.1623857.1290889.3049325.2424194.3210976.2555873.0325751.0265518.0764168.0412308.1239324.0412308.029636 0 .0590271-.0062602.0844994-.0177012.0504547-.0230978.0832747-.0628175.092092-.1128988.0093072-.05224-.0102869-.1049117-.052659-.1463583-.2123506-.1655706-.6186823-.494553-1.4244879-1.1462576"/><path d="m92.0880881 12.6407674c-.0551931-.0433419-.0929679-.0731516-.1208793-.0953129-.0274917.0784468-.0547734.1570897-.0837341.2347521-.0058761.0160816-.0132212.0313787-.0214057.0458914.0375649.0300058.1324216.1031575.2195135.1698373l.0530945.0474603c.0107029.0092175.0226649.016866.0342072.0245146.0050366.0029417.0100733.0060796.0151099.0096097.0637974.0254952.1389273.0137282.1819486-.0280447.046379-.0447147.0560326-.1129634.0247635-.1684645-.0363058-.0313787-.1951698-.155913-.3026181-.2402433"/><path d="m95.0380916 10.4182143c-.1080889-.3189011-.2450014-.51670546-.3105753-.60003248-.2387563.05334487-.4068946.09968092-.501052.12518522-.0843093.02316803-.1044859.02881402-.1299468.02881402l-.1587705-.00953978c-.2219425-.01207073-.4436448-.02492023-.6655872-.03796441l-.387919-.02277865c-.2084914-.01187605-.4169828-.02394678-.6254742-.03757504-.0252207-.00194689-.0552454-.00506192-.0879123-.00798226-.0634121-.00623006-.1349909-.01343356-.1972021-.01343356-.0622111 0-.0871917.0072035-.094878.01031853h-.0002402c-.0338678.05626521-.058368.09968093-.0821475.14251258l-.0329071.05821213c-.0514022.0909199-.1080888.186707-.1662166.2840517-.0977604.1650965-.1988835.335839-.2819919.4927586.0004804.0003894.001201.0011681.0014412.0011681.0273825.0202477.0701377.0461414.120339.0654157.0405933.0151857.0859907.0266724.1323488.0266724h.0050441c.1578098-.0011681.2747859-.0486723.3574139-.146017 0-.0003894.0002401-.0003894.0002401-.0007787.0002402 0 .0004804 0 .0007206-.0003894.0333875-.039522.0924761-.1205127.154447-.2102645.0771034-.1113623.15805-.2361581.1986433-.309556l.0009608-.0015575.0091275-.0167433.0014412-.000584.0172942-.0118761c.0307453-.0204424.1083291-.0498405.2248249-.0626899.0050441-.0007788.0100883-.0003894.0148922-.0007788.0067255-.0007788.0134511-.0011681.0204168-.0011681.1333096 0 .2603741.0837164.3439628.1464063l.0036029.0023363.0297845.0223893c.6708716.498794 1.1618352.8620842 1.4034739 1.0384727.0477993.0352388.0871916.0638581.1150546.0833271.0432355-.0278406.0989613-.0693094.1198585-.0876102.0456375-.0463361.1825501-.1109729.5490914-.2203883.0074461-.1111676.0110491-.3936618-.1016035-.7283327"/><path d="m91.7042779 12.5476879c-.0128372-.0015462-.0251396-.0022334-.0379768-.0022334-.0850467 0-.1615353.0331568-.1904191.0828061-.0433257.0749033-.0850467.1541016-.1267677.24-.0096279.0190694-.0189884.0384824-.0283489.0589262-.0026744.0054975-.0021395.0108232-.0034768.0161489-.0056163.0250823.0005349.05068.0179187.0742162.013907.0187258.032628.0362491.0588373.0489621.0334303.0161488.0719421.0243951.1123259.0243951.0385117 0 .0748839-.0082463.1067095-.0214746.0382443-.0156335.0695351-.0391696.0877212-.0687187.0013372-.0017179.0037441-.0036077.0050814-.0056693.0246047-.0460415.0478722-.0925984.0716745-.1389835.0219303-.042262.0446629-.0841804.0657909-.1271296.0072209-.0127129.0104302-.0268003.0141744-.0408876.0013373-.0054975.0029419-.0104796.0045466-.0154617-.0077559-.0627058-.0727444-.1147602-.1577911-.1248962"/><path d="m90.7418168 12.1030759c-.0281871-.0565961-.0740198-.0946002-.1223733-.1014354-.0071041-.0010937-.0142082-.0016405-.0215414-.0016405-.0655408 0-.1427689.0393712-.1679769.1282297-.0309371.1088175-.0623325.217635-.0944154.3267259-.0215414.0735475-.0423952.1473684-.0637074.2214627-.0109999.0374573-.0219997.0754614-.0327704.1137389-.00275.009296-.0052708.0183185-.0080208.0273411-.0089373.0325359-.0114581.0656186-.0075624.0976076.0038958.0317157.0137499.0615175.0297913.0877649.0332287.0555024.086853.0880383.1464355.0880383h.001375c.0233747 0 .0444577-.0057416.064395-.0155844.0332287-.015311.0600408-.0437458.0797489-.0825701.0068749-.0144908.0137498-.0278879.0187914-.0448394.0061874-.0218728.012604-.0440191.0187914-.065892.0153539-.0538619.0304787-.1066302.0453744-.1607655.0405619-.1440875.0822697-.2936432.1292482-.4393712.0254372-.0784689.001375-.1457279-.0155831-.1788106"/><path d="m91.1733051 12.0040991c-.0123932-.003006-.0252453-.0040991-.037868-.0040991-.0743589 0-.1354067.0494626-.1590455.1295318-.0644904.2172527-.1271447.4355985-.1891105.6539442-.0029835.0095646-.005967.0191292-.0087211.0286938-.0089506.0322463-.0114751.0642193-.0094096.0945527.0029835.0347058.0123932.0683185.0291469.096739.0084916.0136637.0179012.025961.0284583.0366187.0312124.0322463.072523.0502823.1179646.0508289h.003672c.0302944 0 .0571462-.0101111.0810145-.0251412.035573-.022955.0638019-.0587539.0784901-.1093095.0112456-.0379851.0220322-.0762434.0330484-.114775.0557692-.1910184.1106204-.3823101.1650126-.572782.0059671-.0196757.0089506-.0398979.0091801-.0576607.0034426-.0959191-.0603593-.1888322-.1418328-.2071416"/><path d="m89.997633 12.001545c-.0856946.0091052-.1422904.0415749-.172457.0992987-.034438.0654547-.0675412.1315966-.1006444.1972231-.0112123.022849-.0234926.0460416-.0349719.0688906-.0005339.0013744-.0005339.0024051-.0010678.0032641-.0042714.0101361-.006941.0209593-.0096106.0312671-.0013348.0049821-.0024027.0097924-.0040045.0147745.0016018.0134002.0056062.0261132.0117463.0383108.0200221.0405441.0648716.0724984.124137.0848677.0194882.0039514.0395103.0060129.0595324.0060129.0189542 0 .0379085-.0020615.0555279-.0056693.0419129-.0077308.0784866-.0245669.1049158-.0477595.0018687-.0018898.0048053-.0032642.006941-.0056694.0170855-.0170079.0304335-.0395133.0424468-.0616751.0032035-.0056693.006941-.0120258.0096106-.0178669l.0315014-.0599572c.0368407-.0704368.0715456-.1372658.096373-.2054693.0114794-.0317824-.0016017-.0663137-.0360397-.0941448-.0440486-.0353902-.1121238-.0527417-.1839363-.045698"/><path d="m92.1331591 19.6363636c-.1969342 0-.2710901.1453823-.2710901.1453823v2.0312282c.0679083.0034718.1360883.0052077.2045399.0052077.1132711 0 .2276288-.0052077.3422581-.0151892v-2.0212467s-.079317-.1453823-.2757079-.1453823"/><path d="m92.9158704 18.2247213c-.4368.4977057-.5105535 1.1788813-.506876 1.1788813.0042904 0 .6791035-.5705467.6791035-.5705467s.058635.0360476.0843772.0805477c.0257422.0462404.0380004.115601.0380004.115601l-.6852326.5638344c0 .0231202.5148438.1576151 1.087914-.2060929.795352-.5029264.9829022-1.9324006.9829022-1.9324006s-1.22541.2515874-1.6801887.7701758"/><path d="m91.7556859 18.9948196-.8504036-.3850685s.0049061-.062185.0280352-.1054536c.0228955-.0428337.0848068-.0828408.0848068-.0828408s.8394231.392896.8438621.3924612c.0044389-.0004349-.1691463-.5792336-.7296183-.944516-.5836012-.3809374-2.0042893-.4148564-2.0042893-.4148564s.4013718 1.2091282 1.3688228 1.5259238c.6969105.2283015 1.2620551.0352236 1.2587843.0143503"/></g><path d="m22.0704036.54545455h-19.57431294c-.69838305 0-1.31672289.26088325-1.78924383.75471534-.4623644.48435867-.70684683 1.10450294-.70684683 1.79241857 0 .69495995.24859341 1.31218933.71917977 1.78488842.47082819.47245617 1.08529887.72240856 1.77691089.72240856h7.17293559v21.77403556c0 .7216798.26261911 1.3663578.75859685 1.8635906.4964613.4986902 1.1380161.7624884 1.855745.7624884.7107159 0 1.3549308-.2601545 1.8634833-.7505859.5170162-.4996619.7897919-1.1482264.7897919-1.8754931v-21.77403556h7.1337603c.684841 0 1.3014881-.24509423 1.7841656-.71050607.4916249-.47415653.7513421-1.09551535.7513421-1.79679091 0-.69447415-.2553644-1.31850495-.7394928-1.8052927-.4841284-.4853303-1.1048865-.74184121-1.7960149-.74184121" fill="#000105"/><path d="m49.8004116 0c-.7350615 0-1.3901396.27562804-1.8943289.79685555-.4960929.51268279-.7583694 1.16354581-.7583694 1.88203413v15.79282732c0 1.4110984-.3216508 2.6154147-.9561197 3.5799907-.648699.9853275-1.4782193 1.7028393-2.5364035 2.1940383-1.0763399.4997436-2.2424771.7533995-3.4657803.7533995-1.2230578 0-2.3889496-.2536559-3.4652896-.7529113-1.0589202-.4921755-1.8886858-1.2096872-2.5366488-2.1945265-.6344689-.9635995-.9561197-2.1679158-.9561197-3.5799907v-15.79282732c0-.72434755-.2728265-1.37911673-.7897739-1.89302019-.5162114-.51390347-1.1742336-.78586949-1.9024253-.78586949-.7350615 0-1.3901396.27562804-1.8940835.79685555-.4960929.51268279-.7583695 1.16354581-.7583695 1.88203413v15.67417792c0 2.5180049.6138597 4.6895827 1.8241595 6.4534557 1.2014672 1.7499573 2.7692384 3.0712141 4.6606231 3.9266619 1.8585081.8405557 3.8161366 1.2668148 5.8179277 1.2668148 2.0020365 0 3.959665-.4262591 5.8184185-1.2668148 1.8911393-.8554478 3.4594012-2.1767046 4.6603777-3.9266619 1.2105451-1.763873 1.8244048-3.9354508 1.8244048-6.4534557v-15.67417792c0-.72434755-.2733172-1.37911673-.7897739-1.89302019-.5167021-.51390347-1.174479-.78586949-1.9024253-.78586949" fill="#000105"/><path d="m78.4674477 22.8637374c-.3985887 0-.7696377.082946-1.1178189.2544161-1.1141305.5745584-2.2157206 1.0174219-3.2747717 1.3154938-1.036675.2927361-2.2617022.4404382-3.640657.4404382-2.1259705 0-3.9494956-.4314645-5.4201676-1.282752-1.4573939-.8430413-2.568082-2.010348-3.3013279-3.4691782-.7497206-1.4898743-1.1296217-3.2130644-1.1296217-5.1222766 0-1.9089696.3799011-3.6326448 1.1296217-5.12251907.7327541-1.45786005 1.8436881-2.62516674 3.3013279-3.46869315 1.4714097-.85128744 3.2949347-1.283237 5.4201676-1.283237 1.3789548 0 2.603982.14818708 3.640657.44043818 1.0558545.2975868 2.1574446.7404503 3.2875581 1.32204212.3324441.16443672.7039849.2483528 1.1050325.2483528.7108699 0 1.3263342-.24738267 1.7800025-.7154695.4440785-.45693035.6786582-1.0213024.6786582-1.6307854 0-.99947451-.4590779-1.77509196-1.315515-2.23590283-1.4610823-.81563523-2.952655-1.45082663-4.4341461-1.88811188-1.5001789-.44189337-3.2169874-.66599297-5.1019852-.66599297-2.7979897 0-5.3503347.61190832-7.5864643 1.81899026-2.2523583 1.21532802-4.0468683 2.98411415-5.33386 5.25785197-1.2791232 2.25967097-1.9275368 4.92509807-1.9275368 7.92303647 0 2.9986661.6484136 5.6640932 1.9272909 7.9230365 1.2864999 2.2727677 3.0810099 4.0420389 5.3341059 5.2580945 2.2361296 1.207082 4.7884746 1.8189903 7.5864643 1.8189903 1.8852436 0 3.6020522-.2240996 5.102231-.666478 1.4782946-.4358301 2.9701132-1.0705364 4.4223434-1.8815636.867994-.4676017 1.3270719-1.2429766 1.3270719-2.2424511 0-.6412547-.2387598-1.2165407-.6921822-1.6644974-.4531765-.4457739-1.0639689-.6812725-1.7664785-.6812725" fill="#000105"/><path d="m100.952896 24.2265441c1.414897-.7153769 2.585128-1.8480976 3.509479-3.3959793.924593-1.5449718 1.386284-3.5077722 1.386284-5.8874312 0-2.3367364-.461691-4.2811068-1.386284-5.82898854-.924351-1.54739675-2.094582-2.66847733-3.509479-3.36784926-1.4144121-.69718941-2.8959925-1.04784538-4.4423163-1.04784538-1.5858488 0-3.0846457.35065597-4.5000279 1.04784538-1.4156246.69937193-2.5749431 1.82045251-3.4806228 3.36784926-.9056797 1.54788174-1.3586408 3.49225214-1.3586408 5.82898854 0 2.379659.4529611 4.3424594 1.3586408 5.8874312.9056797 1.5478817 2.0649982 2.6806024 3.4806228 3.3959793 1.4153822.718287 2.9141791 1.0745205 4.5000279 1.0745205 1.5463238 0 3.0279042-.3562335 4.4423163-1.0745205zm3.141145-22.35662146c2.187695 1.24378592 3.886057 3.00991828 5.093872 5.29160705 1.207088 2.28459879 1.812087 4.89487601 1.812087 7.84053161 0 2.941048-.604999 5.5547202-1.812087 7.8395615-1.207815 2.2819313-2.906177 4.0475786-5.093872 5.2913646-2.188181 1.2466959-4.7170518 1.8670126-7.5834613 1.8670126-2.9061771 0-5.453477-.6203167-7.6414149-1.8670126-2.1896352-1.243786-3.8768426-3.0094333-5.0652592-5.2913646-1.1884167-2.2848413-1.7842012-4.8985135-1.7842012-7.8395615 0-2.9456556.5957845-5.55593282 1.7842012-7.84053161 1.1884166-2.28168877 2.875624-4.04782113 5.0652592-5.29160705 2.1879379-1.24645342 4.7352378-1.86992264 7.6414149-1.86992264 2.8664095 0 5.3952803.62346922 7.5834613 1.86992264z" fill="#000105"/></g></svg>