<svg
   xmlns:svg="http://www.w3.org/2000/svg"
   xmlns="http://www.w3.org/2000/svg"
   version="1.0"
   viewBox="0 0 127.52535 47.044998"
   id="svg10826">
  <defs
     id="defs10828" />
  <g
     transform="translate(-253.38018,-603.1254)"
     id="layer1">
    <path
       d="M 317.12766,603.1254 L 255.44172,618.25134 C 254.83353,618.41236 254.29494,618.63425 253.95641,618.94853 C 253.51894,619.3569 253.37271,619.90398 253.38047,620.40353 C 253.38823,620.87107 253.53519,621.37862 253.9261,621.76759 C 254.28791,622.12843 254.84784,622.38888 255.53266,622.55572 L 317.12766,637.65134 L 378.75297,622.55572 C 379.43682,622.38888 379.99773,622.12843 380.35954,621.76759 C 380.75143,621.37862 380.89837,620.87107 380.90516,620.40353 C 380.91389,619.90398 380.76863,619.3569 380.32922,618.94853 C 379.99167,618.63425 379.45307,618.41236 378.84391,618.25134 L 317.12766,603.1254 z M 317.12766,608.30884 L 317.15797,608.30884 L 367.1736,620.37322 L 317.15797,632.4679 L 317.12766,632.4679 L 267.11204,620.37322 L 317.12766,608.30884 z M 317.12766,612.18884 L 287.78516,619.46384 C 287.40977,619.55308 287.16727,619.70731 287.05766,619.82759 C 286.92477,619.97406 286.84547,620.14527 286.84547,620.37322 C 286.84547,620.59923 286.92477,620.80074 287.05766,620.94915 C 287.19637,621.10241 287.46433,621.22172 287.81547,621.3129 L 317.12766,628.5879 L 317.15797,628.5879 L 346.43985,621.3129 C 346.79002,621.22172 347.08829,621.10241 347.22797,620.94915 C 347.3628,620.80074 347.44016,620.59923 347.44016,620.37322 C 347.44016,620.14527 347.3628,619.97406 347.22797,619.82759 C 347.11933,619.70731 346.84555,619.55308 346.47016,619.46384 L 317.12766,612.18884 z M 317.12766,616.9479 L 330.76829,620.31259 L 317.12766,623.67728 L 303.48704,620.31259 L 317.12766,616.9479 z M 356.2611,633.52884 C 355.09225,633.52884 354.13922,634.44137 354.13922,635.55978 C 354.13922,636.10007 354.3468,636.60035 354.74547,636.98447 C 355.14705,637.36955 355.69365,637.59072 356.2611,637.59072 C 356.82952,637.59072 357.37514,637.36956 357.77672,636.98447 C 358.17442,636.60131 358.38297,636.10007 358.38297,635.55978 C 358.38297,635.01949 358.17248,634.51824 357.77672,634.13509 C 357.37514,633.75 356.82952,633.52884 356.2611,633.52884 z M 356.2611,634.01384 C 356.70148,634.01384 357.10257,634.17074 357.41297,634.46853 C 357.71755,634.76341 357.89797,635.14365 357.89797,635.55978 C 357.89797,636.42308 357.16417,637.13603 356.2611,637.13603 C 355.82169,637.13603 355.42059,636.9801 355.10922,636.68134 C 354.80367,636.38549 354.62422,635.97591 354.62422,635.55978 C 354.62422,635.14365 354.80367,634.76341 355.10922,634.46853 C 355.41962,634.17074 355.82169,634.01384 356.2611,634.01384 z M 355.47297,634.62009 C 355.47297,634.68023 355.47297,636.43933 355.47297,636.49947 C 355.52632,636.49946 355.84497,636.49947 355.89735,636.49947 C 355.89735,636.44223 355.89735,635.80228 355.89735,635.80228 L 356.13985,635.80228 C 356.39593,635.80228 356.55452,635.92814 356.68547,636.49947 C 356.68547,636.49946 357.07129,636.50238 357.14016,636.49947 C 357.02958,635.98827 356.88117,635.77027 356.77641,635.68103 L 356.80672,635.65072 C 356.99975,635.54111 357.04922,635.40337 357.04922,635.16572 C 357.04922,635.15796 357.04922,635.14122 357.04922,635.1354 C 357.04631,635.01318 357.0257,634.85483 356.89766,634.74134 C 356.81133,634.66374 356.67723,634.62009 356.5036,634.62009 C 356.50263,634.62009 355.53505,634.62009 355.47297,634.62009 z M 355.89735,634.98384 L 356.38235,634.98384 C 356.4939,634.98384 356.55477,635.00882 356.59454,635.07478 C 356.59454,635.07575 356.62485,635.10776 356.62485,635.19603 C 356.62485,635.27654 356.59454,635.31728 356.59454,635.31728 C 356.56253,635.37451 356.51233,635.43853 356.38235,635.43853 L 355.92766,635.43853 L 355.89735,635.43853 L 355.89735,634.98384 z M 364.71829,640.56134 C 361.82866,640.56134 360.74808,640.94934 359.98954,641.65259 C 359.34546,642.24817 359.29235,643.12359 359.29235,644.01697 L 359.29235,646.71478 C 359.29235,647.60718 359.34546,648.48357 359.98954,649.07915 C 360.74808,649.78337 361.82866,650.1704 364.71829,650.1704 L 373.87266,650.1704 C 376.76229,650.1704 377.81062,649.78337 378.5711,649.07915 C 379.21518,648.48357 379.29859,647.60718 379.2986,646.71478 L 379.2986,644.01697 C 379.2986,643.1236 379.21518,642.24817 378.5711,641.65259 C 377.81062,640.94934 376.76229,640.56134 373.87266,640.56134 L 364.71829,640.56134 z M 255.04766,640.59165 L 255.04766,646.68447 C 255.04766,647.57784 255.10174,648.45423 255.74485,649.04884 C 256.5063,649.75403 257.583,650.14009 260.4736,650.14009 L 275.05391,650.14009 L 275.05391,640.59165 L 268.20329,640.59165 L 268.20329,647.9879 L 264.1111,647.9879 C 262.92285,647.9879 262.48441,647.82422 262.1711,647.53322 C 261.90726,647.28781 261.89829,646.93182 261.89829,646.56322 L 261.89829,640.59165 L 255.04766,640.59165 z M 280.69204,640.59165 L 280.69204,650.14009 L 286.26954,650.14009 L 286.26954,642.71353 L 287.11829,642.71353 C 288.30848,642.71353 288.74498,642.87721 289.05829,643.16822 C 289.3231,643.41363 289.36141,643.77155 289.36141,644.13822 L 289.36141,650.14009 L 294.9086,650.14009 L 294.9086,642.71353 L 295.72704,642.71353 C 296.91723,642.71353 297.35373,642.87721 297.66704,643.16822 C 297.93185,643.41363 297.97016,643.77155 297.97016,644.13822 L 297.97016,650.14009 L 303.54766,650.14009 L 303.54766,644.04728 C 303.54766,643.15391 303.4623,642.27751 302.82016,641.6829 C 302.05774,640.97771 300.98201,640.59165 298.09141,640.59165 L 280.69204,640.59165 z M 309.18579,640.59165 L 309.18579,650.14009 C 312.79419,650.14009 322.68164,650.14009 324.4936,650.14009 C 327.06701,650.14009 328.04938,649.74894 328.70704,649.13978 C 329.54221,648.36572 329.61447,647.12072 328.76766,646.2904 C 328.1973,645.73265 327.33546,645.36575 325.31204,645.29009 C 327.09005,645.19212 327.87235,644.86935 328.40391,644.3504 C 329.21386,643.555 329.2369,642.3619 328.3736,641.56165 C 327.72952,640.96413 326.74278,640.59165 324.22079,640.59165 C 322.03732,640.59165 309.18579,640.59165 309.18579,640.59165 z M 334.34516,640.59165 L 334.34516,650.14009 L 339.92266,650.14009 L 339.92266,646.68447 C 339.92267,646.68446 342.42987,646.68447 342.6811,646.68447 C 345.48731,646.68446 347.58663,647.20196 348.89516,650.14009 L 355.23047,650.14009 C 353.84046,647.35134 351.93757,646.30859 350.77454,645.89634 C 352.20723,645.77412 352.93085,645.54811 353.44204,645.04759 C 354.33735,644.17071 354.41858,642.61604 353.41172,641.6829 C 352.67743,641.0039 351.54447,640.59165 348.68297,640.59165 C 346.20366,640.59165 334.34516,640.59165 334.34516,640.59165 z M 339.92266,642.68322 C 339.92266,642.68321 345.83069,642.68322 346.5611,642.68322 C 347.44186,642.68321 347.74013,642.84545 347.95547,643.07728 C 348.09516,643.22763 348.16766,643.41047 348.16766,643.6229 C 348.16864,643.82757 348.08545,643.98884 347.95547,644.13822 C 347.74402,644.37878 347.45932,644.53228 346.5611,644.53228 L 339.92266,644.53228 L 339.92266,642.68322 z M 314.76329,642.71353 C 314.76329,642.71353 320.75765,642.71353 321.40172,642.71353 C 322.17772,642.71353 322.45539,642.81198 322.64454,643.01665 C 322.76773,643.15051 322.82641,643.31638 322.82641,643.50165 C 322.82641,643.68207 322.75996,643.8557 322.64454,643.98665 C 322.45927,644.19908 322.19324,644.32009 321.40172,644.32009 L 314.76329,644.32009 L 314.76329,642.71353 z M 366.14297,642.74384 L 370.20485,642.74384 C 371.39504,642.74384 371.83251,642.90947 372.14485,643.19853 C 372.41063,643.44297 372.44797,643.80284 372.44797,644.16853 L 372.44797,647.9879 L 368.3861,647.9879 C 367.19591,647.9879 366.76038,647.82324 366.4461,647.53322 C 366.18226,647.28781 366.14297,646.93084 366.14297,646.56322 L 366.14297,642.74384 z M 314.76329,646.32072 C 314.76329,646.32072 321.03458,646.32072 321.70485,646.32072 C 322.51189,646.32072 322.81137,646.44075 323.00829,646.65415 C 323.13633,646.79189 323.19016,646.97547 323.19016,647.16947 C 323.19016,647.35571 323.1276,647.51867 323.00829,647.65447 C 322.81526,647.87563 322.52741,648.01822 321.70485,648.01822 L 314.76329,648.01822 L 314.76329,646.32072 z "
       style="fill:#000000;fill-opacity:1"
       id="path8702" />
  </g>
</svg>