<?xml version="1.0" encoding="UTF-8" standalone="no"?>
<svg width="113px" height="73px" viewBox="0 0 113 73" version="1.1" xmlns="http://www.w3.org/2000/svg" xmlns:xlink="http://www.w3.org/1999/xlink">
    <!-- Generator: Sketch 41.2 (35397) - http://www.bohemiancoding.com/sketch -->
    <title>Page 1</title>
    <desc>Created with Sketch.</desc>
    <defs>
        <polygon id="path-1" points="0.17268958 58.8427406 69.8953819 58.8427406 69.8953819 0.114460972 0.17268958 0.114460972"></polygon>
        <polygon id="path-3" points="0 0.138802343 0 35.9604909 34.2722969 35.9604909 34.2722969 0.138802343 2.45838259e-21 0.138802343"></polygon>
    </defs>
    <g id="Symbols" stroke="none" stroke-width="1" fill="none" fill-rule="evenodd">
        <g id="Header-Bar" transform="translate(-200.000000, -55.000000)">
            <g id="Page-1" transform="translate(200.000000, 55.000000)">
                <g id="Group-3" transform="translate(9.000000, 14.000000)">
                    <mask id="mask-2" fill="white">
                        <use xlink:href="#path-1"></use>
                    </mask>
                    <g id="Clip-2"></g>
                    <path d="M69.8953819,1.11351233 C69.8953819,1.49025161 69.7506274,2.0406043 69.4629324,2.76420606 C69.4337275,2.88025196 69.3472013,3.09740535 69.2033538,3.41566624 C65.8580374,3.76325742 61.8787398,5.05215026 57.2656424,7.28161608 C52.911398,9.39594688 48.5137998,12.2486357 44.0737548,15.8391359 C36.5762698,21.9203418 29.9585584,29.551134 24.2209834,38.7307837 C21.3663448,43.3068543 19.1745295,47.563571 17.6466258,51.5016624 L17.12765,52.8481227 C16.6369722,54.1514075 16.3489143,54.9331232 16.2625696,55.1938166 C15.5703601,57.6264083 14.6764375,58.8427952 13.580802,58.8427952 C13.1766503,58.8427952 12.6576746,58.7558974 12.0238748,58.5821019 C15.2819394,51.6903964 16.9112439,44.0302739 16.9112439,35.603374 C16.9112439,29.6673621 16.2767185,24.4112297 15.0082119,19.8353413 C13.6524536,14.9125904 11.8939948,12.4508506 9.73138434,12.4508506 C7.68377932,12.4508506 4.61273459,14.6810452 0.51861293,19.1403412 L0.17268958,18.3149032 C4.75730769,13.2183567 8.65007911,10.6699013 11.8508224,10.6699013 C14.3013093,10.6699013 16.2192158,12.5377484 17.603272,16.2734427 C19.2178833,20.6755355 20.025461,26.4237243 20.025461,33.5181914 C20.025461,37.4859774 19.6936866,41.6561606 19.0306819,46.0285588 C20.4147381,43.5382174 22.5914975,39.8750291 25.5616858,35.0386295 C29.3962289,29.3339806 33.4186989,24.2951838 37.6290957,19.9222391 C45.7023336,11.5536355 54.5840562,5.38534956 64.2726309,1.41756352 C66.4060366,0.548767763 67.8191162,0.114460972 68.5111443,0.114460972 C69.4337275,0.114460972 69.8953819,0.447660268 69.8953819,1.11351233" id="Fill-1" fill="#FFFFFF" mask="url(#mask-2)"></path>
                </g>
                <path d="M76,44.3191308 C76,44.5440848 75.2135294,45.4832589 73.6420603,47.1375558 C68.7257911,52.3537454 64.7673084,55.8450466 61.7660601,57.6118205 C60.193855,58.5372735 58.9076057,59 57.9073123,59 C55.5920636,59 54.4344392,57.5979189 54.4344392,54.7933955 C54.4344392,53.9522551 54.5914021,52.7045365 54.906248,51.0495175 L54.3059983,51.6871882 C49.7038389,56.5628775 45.8169371,59 42.6441889,59 C40.2152203,59 39,57.7196035 39,55.1575466 C39,52.567867 40.4864552,49.5977876 43.4588135,46.2474888 C45.6027463,43.8269761 48.2747957,41.7296317 51.4762499,39.9556362 C55.0486739,37.9852121 58.307356,37 61.2513764,37 C65.0812342,37 66.9966231,38.2197348 66.9966231,40.6595654 C66.9966231,42.9592962 65.309778,44.7818573 61.93756,46.1281513 L61.7660601,45.6233587 C63.9098089,44.4177061 64.9814993,43.0015428 64.9814993,41.3746882 C64.9814993,39.2437631 63.3804041,38.1778493 60.17987,38.1778493 C57.8357313,38.1778493 55.2632328,38.9388294 52.4621903,40.4597065 C49.9469198,41.8399422 47.832245,43.4882812 46.117062,45.4036404 C43.2873136,48.5874803 41.8724394,51.2638196 41.8724394,53.4328388 C41.8724394,55.5460708 42.9584827,56.6020549 45.1311215,56.6020549 C47.2745023,56.6020549 49.7467139,55.1620601 52.5481243,52.2806263 C54.6061231,50.1623392 56.4068721,47.8041131 57.9503713,45.2052258 C58.379121,44.9791886 58.7500908,44.8659894 59.0649366,44.8659894 C59.3790464,44.8659894 59.7220462,45.0763196 60.093936,45.49698 C58.0072312,48.918773 56.9640628,51.8350512 56.9640628,54.2467174 C56.9640628,56.0698201 57.7358124,56.9808298 59.2794955,56.9808298 C60.8509646,56.9808298 63.3522502,55.5085183 66.7820642,52.5640756 C69.5542166,50.1807543 71.6979654,48.1195181 73.2133106,46.380367 L74.24231,45.2025177 C74.9853536,44.3613774 75.4566103,43.9407169 75.6573682,43.9407169 C75.8857281,43.9407169 76,44.066915 76,44.3191308" id="Fill-4" fill="#FFFFFF"></path>
                <path d="M91.8507573,15.1052603 C91.8507573,14.0424368 91.4195707,13.5105747 90.5571974,13.5105747 C89.2636374,13.5105747 87.5100216,15.3853299 85.2967202,19.1339398 C83.8880538,21.5401969 82.651862,23.9880592 81.5887,26.4777067 C80.2089027,29.723272 79.0730128,32.9819853 78.1823255,36.2552874 C77.808507,37.6264576 77.4635577,39.1509007 77.1476626,40.8295172 C79.1883043,38.5916621 81.617014,35.3320483 84.4345319,31.0517564 C89.3783738,23.5820933 91.8507573,18.2670749 91.8507573,15.1052603 M100,43.8929922 C100,44.0331171 99.4677713,44.6764666 98.4046094,45.823221 C90.3267993,54.6082206 84.2761217,59 80.2522065,59 C76.0837604,59 74,55.6290788 74,48.886516 C74,43.7393592 75.2215721,38.1300426 77.6649015,32.0589263 C80.8558678,24.1137753 84.046464,18.2809433 87.2372452,14.55971 C88.7030948,12.853717 90.0249687,12 91.2039773,12 C92.4686681,12 93.1011986,12.8117515 93.1011986,14.4338138 C93.1011986,17.5673512 90.600316,23.0226746 85.5985508,30.799964 C84.3625441,32.7303729 82.9968113,34.6750104 81.5024627,36.6329761 L79.3467145,39.4446586 L77.6219679,41.5847145 C77.5066763,41.7251996 77.2620288,42.0326457 76.8889506,42.5081336 C76.6874217,43.6554284 76.5871199,44.9282591 76.5871199,46.326806 C76.5871199,53.404912 78.3118665,56.943875 81.7613598,56.943875 C84.6932439,56.943875 88.7604629,54.3562481 93.9635719,49.1802738 C96.2629256,46.886765 97.8440667,45.222017 98.70644,44.1867501 C99.1087575,43.7110821 99.4105882,43.473158 99.611932,43.473158 C99.870644,43.473158 100,43.6136431 100,43.8929922" id="Fill-6" fill="#FFFFFF"></path>
                <path d="M108.735387,42.0350565 C108.735387,40.914228 108.100044,40.3535497 106.829902,40.3535497 C104.938411,40.3535497 102.778861,41.6660827 100.351435,44.2909726 C99.3068257,45.4125053 98.3612617,46.9024838 97.5143795,48.7617882 C97.9941582,48.8712833 98.5308199,48.9258548 99.1234557,48.9258548 C102.25692,48.9258548 104.966761,47.6818003 107.253343,45.1933391 C108.24107,44.126906 108.735387,43.0745559 108.735387,42.0350565 M111.697839,53.143881 C106.58347,57.7108129 102.508622,60 99.4622086,60 C97.8533141,60 96.5406466,59.4731208 95.5242063,58.4207707 C94.5079476,57.3684206 94,56.062401 94,54.503768 C94,52.2890446 94.8321617,49.9100785 96.4981208,47.3670458 C97.9380023,45.1523224 99.6879227,43.2520014 101.748791,41.6660827 C104.035373,39.8889876 106.067708,39 107.846161,39 C109.680769,39 110.598346,39.7523828 110.598346,41.2557401 C110.598346,44.0448727 108.501677,46.4379218 104.308519,48.433655 C102.45083,49.3090877 100.663655,49.7460119 98.9468099,49.7460119 C98.6649398,49.7460119 98.0741214,49.7051713 97.1738092,49.622962 C96.8077962,50.9085613 96.6251531,51.9749943 96.6251531,52.8222612 C96.6251531,54.1898938 97.0545915,55.3242772 97.9140134,56.2264676 C98.7734353,57.128834 99.9074578,57.5800173 101.316808,57.5800173 C103.965223,57.5800173 107.219541,55.9125934 111.080851,52.5761612 C111.080851,52.5761612 112.60015,51.2704937 112.948535,51.5743338 C113.29692,51.8779979 111.764899,53.0840284 111.697839,53.143881" id="Fill-8" fill="#FFFFFF"></path>
                <g id="Group-12" transform="translate(0.000000, 11.000000)">
                    <mask id="mask-4" fill="white">
                        <use xlink:href="#path-3"></use>
                    </mask>
                    <g id="Clip-11"></g>
                    <path d="M6.87596577,17.3431945 C6.87596577,17.3431945 12.1437235,9.94186645 20.0722069,9.94186645 C32.4857216,9.94186645 31.3663231,35.9604909 31.3663231,35.9604909 C31.3663231,35.9604909 34.2722969,29.6204419 34.2722969,18.0700453 C34.2722969,3.53119966 25.7031207,0.138802343 17.69446,0.138802343 C9.68579937,0.138802343 -5.44189852e-05,4.58131887 -5.44189852e-05,4.58131887 C-5.44189852e-05,4.58131887 7.19631219,6.27742605 6.87596577,17.3431945" id="Fill-10" fill="#328156" mask="url(#mask-4)"></path>
                </g>
                <path d="M35,18.9410805 C35,18.9410805 37.4702098,28.6496884 35,39 C35,39 45.2789747,18.3793399 75,10.59657 C75,10.59657 42.7638258,3.58744285 35,18.9410805" id="Fill-13" fill="#B4D448"></path>
                <path d="M34.4369004,16 C37.252214,11.5847553 42.2426199,8.56341226 48,8.26891123 C45.9112546,3.42029935 40.8887454,0 35.0162362,0 C29.1103321,0 24.0667897,3.46082381 22,8.35362831 C27.2802583,8.95904977 31.8066421,11.8747148 34.4369004,16" id="Fill-15" fill="#FFD301"></path>
            </g>
        </g>
    </g>
</svg>