<?xml version="1.0" encoding="UTF-8"?>
<svg viewBox="0 0 113 73" version="1.1" xmlns="http://www.w3.org/2000/svg" xmlns:xlink="http://www.w3.org/1999/xlink">
    <title>vale</title>
    <g id="Page-1" stroke="none" stroke-width="1" fill="none" fill-rule="evenodd">
        <g id="vale" fill-rule="nonzero">
            <path d="M78.8953819,15.1135123 C78.8953819,15.4902516 78.7506274,16.0406043 78.4629324,16.7642061 C78.4337275,16.880252 78.3472013,17.0974054 78.2033538,17.4156662 C74.8580374,17.7632574 70.8787398,19.0521503 66.2656424,21.2816161 C61.911398,23.3959469 57.5137998,26.2486357 53.0737548,29.8391359 C45.5762698,35.9203418 38.9585584,43.551134 33.2209834,52.7307837 C30.3663448,57.3068543 28.1745295,61.563571 26.6466258,65.5016624 L26.12765,66.8481227 C25.6369722,68.1514075 25.3489143,68.9331232 25.2625696,69.1938166 C24.5703601,71.6264083 23.6764375,72.8427952 22.580802,72.8427952 C22.1766503,72.8427952 21.6576746,72.7558974 21.0238748,72.5821019 C24.2819394,65.6903964 25.9112439,58.0302739 25.9112439,49.603374 C25.9112439,43.6673621 25.2767185,38.4112297 24.0082119,33.8353413 C22.6524536,28.9125904 20.8939948,26.4508506 18.7313843,26.4508506 C16.6837793,26.4508506 13.6127346,28.6810452 9.51861293,33.1403412 L9.17268958,32.3149032 C13.7573077,27.2183567 17.6500791,24.6699013 20.8508224,24.6699013 C23.3013093,24.6699013 25.2192158,26.5377484 26.603272,30.2734427 C28.2178833,34.6755355 29.025461,40.4237243 29.025461,47.5181914 C29.025461,51.4859774 28.6936866,55.6561606 28.0306819,60.0285588 C29.4147381,57.5382174 31.5914975,53.8750291 34.5616858,49.0386295 C38.3962289,43.3339806 42.4186989,38.2951838 46.6290957,33.9222391 C54.7023336,25.5536355 63.5840562,19.3853496 73.2726309,15.4175635 C75.4060366,14.5487678 76.8191162,14.114461 77.5111443,14.114461 C78.4337275,14.114461 78.8953819,14.4476603 78.8953819,15.1135123" id="Fill-1" fill="#000000"></path>
            <path d="M76,44.3191308 C76,44.5440848 75.2135294,45.4832589 73.6420603,47.1375558 C68.7257911,52.3537454 64.7673084,55.8450466 61.7660601,57.6118205 C60.193855,58.5372735 58.9076057,59 57.9073123,59 C55.5920636,59 54.4344392,57.5979189 54.4344392,54.7933955 C54.4344392,53.9522551 54.5914021,52.7045365 54.906248,51.0495175 L54.3059983,51.6871882 C49.7038389,56.5628775 45.8169371,59 42.6441889,59 C40.2152203,59 39,57.7196035 39,55.1575466 C39,52.567867 40.4864552,49.5977876 43.4588135,46.2474888 C45.6027463,43.8269761 48.2747957,41.7296317 51.4762499,39.9556362 C55.0486739,37.9852121 58.307356,37 61.2513764,37 C65.0812342,37 66.9966231,38.2197348 66.9966231,40.6595654 C66.9966231,42.9592962 65.309778,44.7818573 61.93756,46.1281513 L61.7660601,45.6233587 C63.9098089,44.4177061 64.9814993,43.0015428 64.9814993,41.3746882 C64.9814993,39.2437631 63.3804041,38.1778493 60.17987,38.1778493 C57.8357313,38.1778493 55.2632328,38.9388294 52.4621903,40.4597065 C49.9469198,41.8399422 47.832245,43.4882812 46.117062,45.4036404 C43.2873136,48.5874803 41.8724394,51.2638196 41.8724394,53.4328388 C41.8724394,55.5460708 42.9584827,56.6020549 45.1311215,56.6020549 C47.2745023,56.6020549 49.7467139,55.1620601 52.5481243,52.2806263 C54.6061231,50.1623392 56.4068721,47.8041131 57.9503713,45.2052258 C58.379121,44.9791886 58.7500908,44.8659894 59.0649366,44.8659894 C59.3790464,44.8659894 59.7220462,45.0763196 60.093936,45.49698 C58.0072312,48.918773 56.9640628,51.8350512 56.9640628,54.2467174 C56.9640628,56.0698201 57.7358124,56.9808298 59.2794955,56.9808298 C60.8509646,56.9808298 63.3522502,55.5085183 66.7820642,52.5640756 C69.5542166,50.1807543 71.6979654,48.1195181 73.2133106,46.380367 L74.24231,45.2025177 C74.9853536,44.3613774 75.4566103,43.9407169 75.6573682,43.9407169 C75.8857281,43.9407169 76,44.066915 76,44.3191308" id="Fill-4" fill="#000000"></path>
            <path d="M91.8507573,15.1052603 C91.8507573,14.0424368 91.4195707,13.5105747 90.5571974,13.5105747 C89.2636374,13.5105747 87.5100216,15.3853299 85.2967202,19.1339398 C83.8880538,21.5401969 82.651862,23.9880592 81.5887,26.4777067 C80.2089027,29.723272 79.0730128,32.9819853 78.1823255,36.2552874 C77.808507,37.6264576 77.4635577,39.1509007 77.1476626,40.8295172 C79.1883043,38.5916621 81.617014,35.3320483 84.4345319,31.0517564 C89.3783738,23.5820933 91.8507573,18.2670749 91.8507573,15.1052603 M100,43.8929922 C100,44.0331171 99.4677713,44.6764666 98.4046094,45.823221 C90.3267993,54.6082206 84.2761217,59 80.2522065,59 C76.0837604,59 74,55.6290788 74,48.886516 C74,43.7393592 75.2215721,38.1300426 77.6649015,32.0589263 C80.8558678,24.1137753 84.046464,18.2809433 87.2372452,14.55971 C88.7030948,12.853717 90.0249687,12 91.2039773,12 C92.4686681,12 93.1011986,12.8117515 93.1011986,14.4338138 C93.1011986,17.5673512 90.600316,23.0226746 85.5985508,30.799964 C84.3625441,32.7303729 82.9968113,34.6750104 81.5024627,36.6329761 L79.3467145,39.4446586 L77.6219679,41.5847145 C77.5066763,41.7251996 77.2620288,42.0326457 76.8889506,42.5081336 C76.6874217,43.6554284 76.5871199,44.9282591 76.5871199,46.326806 C76.5871199,53.404912 78.3118665,56.943875 81.7613598,56.943875 C84.6932439,56.943875 88.7604629,54.3562481 93.9635719,49.1802738 C96.2629256,46.886765 97.8440667,45.222017 98.70644,44.1867501 C99.1087575,43.7110821 99.4105882,43.473158 99.611932,43.473158 C99.870644,43.473158 100,43.6136431 100,43.8929922" id="Fill-6" fill="#000000"></path>
            <path d="M108.735387,42.0350565 C108.735387,40.914228 108.100044,40.3535497 106.829902,40.3535497 C104.938411,40.3535497 102.778861,41.6660827 100.351435,44.2909726 C99.3068257,45.4125053 98.3612617,46.9024838 97.5143795,48.7617882 C97.9941582,48.8712833 98.5308199,48.9258548 99.1234557,48.9258548 C102.25692,48.9258548 104.966761,47.6818003 107.253343,45.1933391 C108.24107,44.126906 108.735387,43.0745559 108.735387,42.0350565 M111.697839,53.143881 C106.58347,57.7108129 102.508622,60 99.4622086,60 C97.8533141,60 96.5406466,59.4731208 95.5242063,58.4207707 C94.5079476,57.3684206 94,56.062401 94,54.503768 C94,52.2890446 94.8321617,49.9100785 96.4981208,47.3670458 C97.9380023,45.1523224 99.6879227,43.2520014 101.748791,41.6660827 C104.035373,39.8889876 106.067708,39 107.846161,39 C109.680769,39 110.598346,39.7523828 110.598346,41.2557401 C110.598346,44.0448727 108.501677,46.4379218 104.308519,48.433655 C102.45083,49.3090877 100.663655,49.7460119 98.9468099,49.7460119 C98.6649398,49.7460119 98.0741214,49.7051713 97.1738092,49.622962 C96.8077962,50.9085613 96.6251531,51.9749943 96.6251531,52.8222612 C96.6251531,54.1898938 97.0545915,55.3242772 97.9140134,56.2264676 C98.7734353,57.128834 99.9074578,57.5800173 101.316808,57.5800173 C103.965223,57.5800173 107.219541,55.9125934 111.080851,52.5761612 C111.080851,52.5761612 112.60015,51.2704937 112.948535,51.5743338 C113.29692,51.8779979 111.764899,53.0840284 111.697839,53.143881" id="Fill-8" fill="#000000"></path>
            <path d="M6.87596577,28.3431945 C6.87596577,28.3431945 12.1437235,20.9418664 20.0722069,20.9418664 C32.4857216,20.9418664 31.3663231,46.9604909 31.3663231,46.9604909 C31.3663231,46.9604909 34.2722969,40.6204419 34.2722969,29.0700453 C34.2722969,14.5311997 25.7031207,11.1388023 17.69446,11.1388023 C9.68579937,11.1388023 -5.44189852e-05,15.5813189 -5.44189852e-05,15.5813189 C-5.44189852e-05,15.5813189 7.19631219,17.277426 6.87596577,28.3431945" id="Fill-10" fill="#328156"></path>
            <path d="M35,18.9410805 C35,18.9410805 37.4702098,28.6496884 35,39 C35,39 45.2789747,18.3793399 75,10.59657 C75,10.59657 42.7638258,3.58744285 35,18.9410805" id="Fill-13" fill="#B4D448"></path>
            <path d="M34.4369004,16 C37.252214,11.5847553 42.2426199,8.56341226 48,8.26891123 C45.9112546,3.42029935 40.8887454,0 35.0162362,0 C29.1103321,0 24.0667897,3.46082381 22,8.35362831 C27.2802583,8.95904977 31.8066421,11.8747148 34.4369004,16" id="Fill-15" fill="#FFD301"></path>
        </g>
    </g>
</svg>