<?xml version="1.0" encoding="UTF-8"?>
<svg width="123px" height="171px" viewBox="0 0 123 171" version="1.1" xmlns="http://www.w3.org/2000/svg" xmlns:xlink="http://www.w3.org/1999/xlink">
    <!-- Generator: Sketch 63.1 (92452) - https://sketch.com -->
    <title>44</title>
    <desc>Created with Sketch.</desc>
    <g id="Page-1" stroke="none" stroke-width="1" fill="none" fill-rule="evenodd">
        <g id="Sticker-Sheet" transform="translate(-739.000000, -922.000000)" fill="#000000">
            <g id="44" transform="translate(739.000000, 922.000000)">
                <path d="M4.45617402,54.0460568 C4.38203201,53.768542 4.2403752,53.6190154 3.97901425,53.6695479 C3.52919177,53.756116 3.27735745,54.0328024 3.25167698,54.4975361 C3.23759414,54.7522698 3.38753496,54.8015598 3.59960597,54.7638674 C4.03534562,54.6864118 4.23747579,54.3463527 4.45617402,54.0460568 M2.15528644,135.873157 C2.59972431,134.623512 2.88759414,133.334104 3.2612036,132.067063 C2.52889591,133.228069 2.13250538,134.49014 2.15528644,135.873157 M5.44901425,51.4544 C7.30297875,49.4554651 9.23771248,47.5356426 11.2026829,45.6456426 C8.81481307,47.1197846 6.9703752,49.1278319 5.44901425,51.4544 M41.9873574,31.6704947 C45.8149906,29.9391337 48.9985409,27.3454059 52.0371208,24.5503763 C48.8672391,26.9320331 45.7014995,29.3161751 42.3174758,31.3929799 C42.196529,31.4675361 42.0971208,31.5772994 41.9873574,31.6704947 M85.7630379,127.864578 C84.6504935,131.665702 82.4419728,134.889015 81.3302569,138.57872 C82.7286001,137.592506 86.3391918,129.102625 85.7630379,127.864578 M40.8681859,165.653394 C41.6145764,165.653394 42.3680083,165.718009 43.106529,165.641796 C46.1326829,165.330731 49.1190734,164.756649 52.1050498,164.191264 C56.5353456,163.352506 60.6218545,161.469962 64.8143989,159.924992 C66.7487184,159.211737 68.5989551,158.239193 69.9094876,156.523572 C74.2403752,150.852743 77.7271208,144.747832 80.202387,138.009607 C82.1781267,132.632033 84.7486592,127.475643 86.8602569,122.144045 C88.3679492,118.338364 89.3301385,114.35085 89.7613219,110.258956 C90.1204344,106.85008 89.9187184,103.431264 89.9431563,100.015347 C89.9630379,97.2062343 89.9133338,94.3991929 90.0901977,91.580968 C90.214458,89.596116 89.7691918,87.5284237 89.5989551,85.49511 C89.2986592,81.914755 89.3529196,78.3787195 90.4410261,74.9056426 C91.4450498,71.7013822 92.8061148,68.6503763 94.4960557,65.7679503 C97.9169432,59.9318556 102.205168,54.7328024 106.703393,49.7130982 C109.119428,47.0174769 111.489073,44.2953467 113.486766,41.2737491 C117.162801,35.7139266 118.92647,29.5733941 118.774458,22.9246367 C118.655582,17.726826 116.378718,13.6912639 111.894576,10.9492521 C104.100139,6.18345324 95.8707894,4.65836449 87.0367066,7.56067218 C80.1949314,9.808542 74.1032746,13.3801988 68.5306119,17.9165302 C65.0550498,20.7459385 61.8818545,23.9133349 58.415819,26.7510272 C53.6951681,30.6167669 48.8991326,34.3673586 43.3393101,36.9958793 C39.0365882,39.0304355 34.5139255,40.4615006 29.9651681,41.806826 C26.082032,42.9554059 22.3790734,44.5057609 18.8807302,46.5407313 C14.8430971,48.8892521 11.433393,51.8938674 9.07327461,55.9874177 C8.79286041,56.4749325 8.78209118,56.4687195 8.14339295,56.481974 C7.9495468,56.486116 7.93753496,56.6472402 7.87250538,56.776471 C7.28185449,57.9548734 6.89623319,59.1842225 6.88049354,60.5167077 C6.86972431,61.4167669 7.21723911,62.7041041 6.90907343,63.1373586 C5.9195468,64.5274177 6.66469473,65.8739858 6.84694325,67.0453467 C7.0735113,68.4983645 7.45416218,70.0060568 7.89942846,71.461974 C9.01652905,75.1168852 10.3001385,78.7063527 12.1205527,82.0638674 C13.7897835,85.1438674 15.4068249,88.2512047 15.8885409,91.7396071 C16.0277125,92.7506722 17.2462924,93.9050509 15.9457006,94.9848734 C15.9452864,94.9852876 16.0368249,95.0859385 16.0757598,95.1459976 C16.7662332,96.2100805 17.1149906,97.4112639 17.1675941,98.6451692 C17.2185409,99.8239858 17.6397835,100.925761 17.690316,102.090909 C17.7719137,103.971382 18.4694285,105.799252 18.0664107,107.730672 C17.8833338,108.609607 17.9259965,109.541974 17.9243397,110.450317 C17.9206119,112.472033 17.2355231,114.398483 17.1294876,116.425169 C17.0897243,117.1844 16.4265882,118.149075 16.0612628,119.018483 C14.7515586,122.134933 12.4283042,124.50872 10.3900202,127.109075 C8.47226869,129.554933 6.31759414,131.952743 6.11587816,135.306116 C6.03469473,136.658897 5.63209118,138.086649 6.33002017,139.356175 C8.20759414,142.76795 9.19504976,146.635761 11.7709669,149.694637 C13.7757006,152.075465 15.1218545,154.959962 17.5643989,157.028483 C19.9530971,159.051441 22.2336888,161.229311 24.9930971,162.723749 C26.347535,163.457299 27.7210261,164.208246 29.3111444,164.559075 C33.1317361,165.402388 36.9751089,165.706826 40.8681859,165.653394 M72.4874758,8.20061301 C72.6983042,8.13682602 72.926529,8.10493253 73.1174758,8.00345324 C77.8870024,5.4668852 82.8578308,3.45800946 88.1297835,2.22451833 C88.320316,2.1797846 88.581677,2.18641182 88.6947539,1.89357159 C88.3381267,1.94451833 88.0030379,1.98428165 87.6708486,2.04185561 C83.2935705,2.80315738 79.2360557,4.47363076 75.2949314,6.45185561 C74.314103,6.94434082 73.2404935,7.32664851 72.5073574,8.22380827 C71.3322687,8.30582011 70.6148722,9.29741774 69.5980083,9.70540591 C69.4199018,9.77664851 69.2277125,10.1005538 69.4994285,10.3755834 C69.5897243,10.4667077 69.7143989,10.5255242 69.770316,10.4182461 C70.3622095,9.28954792 71.7978308,9.20132307 72.4874758,8.20061301 M59.1634521,25.3700805 C60.5278308,24.5213822 61.6134521,23.3620331 62.6970024,22.2014414 C61.5301977,23.2688379 60.1202569,24.0694887 59.1854048,25.3932757 C58.1892509,25.7461751 57.5526237,26.55511 56.8414403,27.2683645 C57.7452273,26.7970035 58.5210261,26.1657609 59.1634521,25.3700805 M89.2700793,133.904459 C88.4781267,136.070731 87.7197243,138.224163 86.1167657,140.008128 C85.1479492,141.085879 84.375464,142.383572 83.7363515,143.690791 C83.5048131,144.165465 83.0794285,144.308779 82.8371208,144.732921 C82.2717361,145.723276 82.0642214,146.842033 81.3401977,147.804222 C79.708245,149.97298 78.0974166,152.151264 76.3938072,154.269489 C75.2696651,155.667004 74.2175941,157.135347 73.0495468,158.50014 C70.8729196,161.042506 68.0948722,162.747773 65.0111444,163.961796 C61.4477717,165.364696 57.9179492,166.886885 54.275464,168.050376 C47.487535,170.218305 40.5591918,171.091441 33.3889551,170.236116 C29.0692509,169.72085 24.8622095,168.904873 21.1600793,166.698838 C15.2394876,163.170258 10.3585409,158.471146 6.91114443,152.408897 C6.78191366,152.181915 6.61581899,151.975643 6.46049354,151.7644 C5.05138112,149.847891 3.77936928,147.868009 3.13238704,145.533986 C2.81179532,144.379607 2.33836337,143.271205 1.81564147,142.181856 C0.265286444,138.951501 0.563097095,135.69795 1.81522727,132.457654 C3.07564147,129.196234 5.18061189,126.427299 7.53368881,123.972329 C10.67789,120.691856 12.1532746,116.887418 12.6229788,112.490258 C13.059961,108.400435 12.3421503,104.43943 11.6135705,100.463512 C11.1666474,98.0238674 10.7669432,95.5742816 10.2868841,93.1412639 C9.51232786,89.2191929 7.70806751,85.7233349 5.85534562,82.2187787 C3.44345212,77.6555242 1.59984266,72.8516189 0.485227272,67.7859385 C-0.447553793,63.5470035 0.012209521,59.3846958 1.45570065,55.3880686 C2.28741662,53.0855242 3.36848171,50.8256426 5.12055272,48.9604947 C6.82623319,47.1442225 8.54723911,45.3656426 10.5813811,43.91511 C15.4701977,40.4279503 20.8597835,37.9816781 26.574103,36.2010272 C33.0981859,34.1681278 39.452032,31.7628615 45.0263515,27.6676544 C49.1567657,24.6332166 53.0867066,21.358542 56.8613219,17.8941633 C62.0011444,13.176826 67.3845172,8.78546508 73.605819,5.5377136 C79.6365882,2.3897846 85.9353456,-0.0606295973 92.8288959,0.00114258264 C103.204636,0.0971810536 112.088423,3.76368993 118.381795,12.2978911 C123.03576,18.6103171 123.79002,25.8435124 122.269488,33.3952284 C121.994872,34.7587787 121.716943,36.1219148 121.398423,37.4755242 C120.579547,40.9527432 119.165464,44.1499621 117.087831,47.0825065 C115.877121,48.7915006 114.571559,50.4280095 113.36002,52.1187787 C111.937653,54.1032166 110.353748,55.9215598 108.716411,57.6943408 C106.820198,59.7475361 105.140198,61.9506722 103.543452,64.2316781 C102.98718,65.026116 102.105346,65.5082461 101.567298,66.3631574 C99.5331563,69.5959976 97.418245,72.7807905 95.9660557,76.3367077 C95.1819728,78.256116 94.3825646,80.1278911 94.2280675,82.2908497 C94.1340438,83.6171219 94.2148131,84.9388379 94.0992509,86.256826 C93.9261148,88.2309089 94.2665882,90.1764118 94.5805527,92.1057609 C94.7010853,92.8463527 93.8030971,93.4457018 93.996529,93.4974769 C95.0432154,93.7754059 94.3071799,94.3635716 94.3287184,94.7910272 C94.3411444,95.0436899 94.1808486,95.3212047 94.2380083,95.5531574 C95.2097243,99.4959385 94.7897243,103.522802 94.8725646,107.504933 C94.949606,111.201678 95.2726829,114.968424 94.2732154,118.591856 C93.9083042,119.913157 93.642387,121.27008 93.2575941,122.590968 C92.7957598,124.175288 91.943748,125.661441 91.801677,127.314518 C91.6016178,129.642743 90.4248722,131.594045 89.5774166,133.675406 C89.5310261,133.789725 89.3591326,133.853512 89.2439847,133.944222 C89.3525054,132.704518 90.3677125,131.780435 90.4033338,130.505524 C89.5335113,132.354104 88.4474758,134.105347 87.9968249,136.143217 C88.4213811,135.396826 88.8455231,134.65085 89.2700793,133.904459" id="Fill-217"></path>
                <path d="M51.0574521,43.4717905 C53.4875705,42.0456958 55.4579255,40.0914947 57.3023634,37.9939799 C55.228458,39.8293053 53.1897598,41.7039799 51.0574521,43.4717905 L51.0574521,43.4717905 Z M65.1046711,31.2665242 C65.0239018,31.1803704 64.9431326,31.0942166 64.8623634,31.0080627 C62.7329551,32.9535657 60.4262687,34.7006663 58.5772746,36.9601337 L65.1046711,31.2665242 Z M16.1523042,134.354572 C14.904316,135.593447 14.336032,139.435163 15.1549077,140.226288 C15.3885172,138.280785 15.3947302,136.261968 16.1523042,134.354572 L16.1523042,134.354572 Z M25.599819,56.9598379 C22.6718308,58.9442757 20.0586356,61.2207254 18.7936651,64.6851041 C20.8070971,61.8838615 23.0189314,59.2627964 25.599819,56.9598379 L25.599819,56.9598379 Z M69.1029551,27.737116 C73.9983989,23.9024414 79.1320083,20.4985361 84.8761503,18.0829148 C81.1131326,18.5811988 70.6752628,25.4788911 69.1029551,27.737116 L69.1029551,27.737116 Z M67.3811208,119.198122 C66.2114166,121.534631 65.4865646,124.03682 64.797748,126.533211 C64.0931918,129.086347 63.1421859,131.550844 62.3170971,134.057175 C61.5371563,136.426406 60.4101148,138.681731 59.4359137,140.987175 C63.6052628,134.263033 65.160174,126.615637 67.3811208,119.198122 L67.3811208,119.198122 Z M25.4966829,81.6942757 C25.5161503,81.5505479 25.4842569,81.3434473 25.5662687,81.2767609 C25.7145527,81.1558142 25.7911799,81.3401337 25.8897598,81.4490686 C26.1689314,81.7555775 26.038458,82.2182402 26.4211799,82.5251633 C27.127393,83.0905479 27.6132509,83.8021456 27.9649077,84.7009621 C28.2647894,85.4672343 29.0832509,86.0243349 29.6411799,86.6994828 C29.7658545,86.8498379 29.9220083,87.1041574 29.7612983,87.3178852 C29.4626592,87.7142757 29.7020675,87.8443349 30.0309432,87.9375302 C30.4372746,88.0518497 30.652245,88.359187 30.790174,88.713329 C31.2880438,89.9890686 31.9507657,91.2006071 32.0990498,92.6059917 C32.1947302,93.5126781 32.3409432,94.5962284 32.6768604,95.2577077 C33.6121267,97.1009029 33.6460912,99.0443349 33.5574521,100.89043 C33.4770971,102.562146 33.155677,104.274453 33.2327184,105.949069 C33.2989906,107.395873 32.5712391,108.575104 32.3686947,109.922501 C32.1234876,111.553625 30.9927184,112.977234 30.7698782,114.67256 C30.6323634,115.713862 29.5330734,116.504986 29.5426001,117.32966 C29.5641385,119.236228 27.8754403,120.262205 27.5772154,121.981554 C27.4823634,122.528299 27.2582805,123.347175 26.7827776,123.867412 C25.805677,124.935222 25.5198782,126.413092 24.5079847,127.476761 C23.2339018,128.816288 22.5724225,130.609779 21.2138427,131.939364 C20.3978663,132.738359 19.7599965,133.768891 19.0459137,134.688418 C18.3989314,135.520134 18.4569196,136.809956 18.2431918,137.90966 C17.9333693,139.501435 18.8466829,140.74114 19.2588131,142.139483 C20.2437835,145.48043 22.2965646,148.242323 24.6997598,150.470725 C29.3930734,154.823151 35.0141977,156.253388 41.2640793,153.975282 C41.8986356,153.744157 42.5323634,153.511376 43.1723042,153.296406 C46.9249669,152.036406 50.1669196,149.953802 53.1781622,147.397767 C57.1188722,144.052678 58.9848486,139.387944 61.168103,134.97256 C61.93189,133.428418 62.2288722,131.535104 62.8054403,129.820311 C63.200174,128.646465 63.6251444,127.474276 63.8968604,126.269364 C64.1706474,125.054512 64.5438427,123.874039 64.9075113,122.689838 C65.2703515,121.507708 65.7814758,120.365755 66.0689314,119.167885 C66.3249077,118.10256 66.8488722,117.150725 67.0696415,116.046465 C67.3645527,114.570252 67.8462687,113.099838 68.2472154,111.626524 C69.6886356,106.328063 70.7668012,100.960015 71.4162687,95.5041574 C71.7762095,92.4804887 72.0383989,89.4282402 72.6646711,86.4559325 C74.6876296,76.8493645 79.1112983,68.3615538 85.2041977,60.7332106 C87.9275705,57.3239207 90.8166237,54.0459325 93.6675705,50.7401929 C97.7499373,46.007116 99.9650853,40.3735657 101.633902,34.4637432 C102.67189,30.7893645 102.492127,27.1593053 101.143488,23.613329 C100.374316,21.5924414 99.2286356,19.9049858 96.8113574,19.50611 C94.5605882,19.1345716 92.3644935,19.6676485 90.2363279,20.0611396 C88.9709432,20.2955775 87.5924817,20.8974118 86.3225409,21.5116722 C83.2760912,22.9858142 80.1861503,24.3779444 77.5373338,26.5235065 C76.9065054,27.0338024 76.1211799,27.1021456 75.4907657,27.6120272 C74.6839018,28.2643941 74.120174,29.1454 73.2399965,29.7314947 C72.7346711,30.0674118 72.1291089,30.1001337 71.6631326,30.5309029 C68.7082214,33.2604887 65.368103,35.5564059 62.7010616,38.6165242 C61.7753219,39.6793645 60.6317125,40.5496012 59.6231326,41.543684 C55.8360912,45.2743941 51.4289906,48.0656958 46.4643752,49.8894237 C40.378103,52.1252816 34.6981622,55.1224414 29.3847894,58.7843941 C27.3531326,60.1843941 25.1769196,61.5048674 23.720174,63.6334473 C22.8756178,64.8681811 21.7895823,66.1269385 21.6578663,67.5414355 C21.4623634,69.6335657 21.249464,71.8184769 21.96189,73.9027373 C22.1337835,74.4055775 21.8272746,75.1064059 21.9341385,75.2782994 C22.3462687,75.9381219 22.5947894,76.6845124 23.0412983,77.3174118 C24.0055586,78.6855183 25.3351444,79.8548083 25.4966829,81.6942757 L25.4966829,81.6942757 Z M24.3410616,122.042027 C24.6616533,121.92108 24.7411799,121.600489 24.8517717,121.344098 C25.9046711,118.90611 27.0428959,116.497944 27.7474521,113.926583 C28.1595823,112.421791 28.8827776,110.987826 28.8591681,109.374512 C28.1314166,112.227944 26.8631326,114.888773 25.962245,117.678004 C25.4842569,119.158359 24.5899965,120.489187 24.3650853,122.06398 C23.0781622,123.761376 22.4465054,125.800075 21.406032,127.625873 C22.5065646,125.827826 23.8001148,124.128773 24.3410616,122.042027 L24.3410616,122.042027 Z M72.1104699,115.259069 C72.0657361,114.984453 72.1088131,114.740489 71.8350261,114.60256 C71.7865646,115.025045 71.4465054,115.428477 72.005677,115.798773 C72.3308249,116.013743 72.0251444,116.363329 71.94189,116.623447 C71.1926001,118.962856 70.4640202,121.312205 69.7404107,123.655341 C69.0520083,125.886228 68.229819,128.086465 67.7137243,130.371199 C67.4548486,131.518122 66.8985764,132.549069 66.4773338,133.631376 C66.2834876,134.128418 66.1202924,134.602678 66.1202924,135.142796 C66.1198782,136.241258 66.0436651,136.269838 65.0280438,135.692441 C64.9431326,135.644394 64.8147302,135.673388 64.6776296,135.66469 C64.6776296,135.786879 64.6399373,135.907826 64.6830143,135.980311 C65.3308249,137.055578 65.1937243,138.344986 64.4328367,139.380903 C63.9308249,140.064335 63.473961,140.755637 63.2569196,141.653625 C62.9309432,143.005163 62.0043752,144.068832 60.9282805,144.957708 C60.830529,145.038477 60.608103,145.001199 60.597748,145.189246 C60.5372746,146.303447 59.640529,146.837767 58.9641385,147.501317 C58.3183989,148.134631 57.5223042,148.597293 56.9154995,149.292737 C55.8770971,150.48398 54.7090498,151.470193 53.2858545,152.263388 C52.6289314,152.629542 51.9616533,153.324986 51.230174,153.611613 C48.5275113,154.67114 45.8774521,155.856583 43.1399965,156.844039 C38.5146119,158.512856 33.9608841,158.02327 29.3702924,156.909483 C26.6697006,156.254217 24.2283989,155.045992 21.9966829,153.386702 C21.1434285,152.752146 20.4529551,151.97966 19.7517125,151.195578 C17.072245,148.201317 15.1938427,144.773388 14.2502924,140.876583 C13.6459728,138.381021 14.0270379,135.940962 15.2770971,133.694335 C15.6059728,133.10327 15.8590498,132.328299 16.9686947,132.462086 C17.4520675,132.520489 17.9317125,131.621258 18.3065646,131.050489 C20.9570379,127.015755 23.1121267,122.730015 24.8476296,118.227649 C26.6746711,113.488359 28.2689314,108.699364 28.8844344,103.611731 C29.3313574,99.9187136 28.832245,96.3768793 27.9321859,92.8130923 C27.2114758,89.9588319 25.7220083,87.5726189 24.0212983,85.2489503 C22.7468012,83.5080627 21.6069196,81.6694237 20.3485764,79.91611 C19.9024817,79.2948083 20.4653811,78.8984177 20.5975113,78.0994237 C19.9086947,79.0359325 19.7956178,78.8478852 19.5023634,78.077471 C19.2091089,77.307471 18.6714758,76.5884177 18.2469196,75.8420272 C17.3389906,74.244039 16.8199965,72.5019089 16.8026001,70.7067609 C16.7959728,70.0258142 16.440174,69.4575302 16.5321267,68.8130331 C16.6476888,68.0003704 16.7044344,67.1669976 16.934316,66.3854 C17.3402332,65.0032106 17.5949669,63.5460509 18.9460912,62.607471 C19.3192864,62.3481811 19.0976888,61.5438024 19.5218308,61.0885953 C21.3368604,59.1397787 23.0458545,57.062974 25.315677,55.617826 C30.716032,52.1791278 36.3723634,49.2503112 42.2975113,46.7825006 C46.4229551,45.0639799 50.3615941,42.8931515 53.6130734,39.7004887 C58.3979255,35.0026189 63.4308841,30.5806071 68.6088131,26.3255183 C73.5175113,22.2920272 78.7770379,18.8305479 84.8086356,16.6646899 C87.3410616,15.7555183 89.9376888,15.2158142 92.6212983,15.0306663 C96.4518308,14.7664059 99.320174,16.5097787 101.545677,19.4054592 C105.819405,24.9669385 106.8226,31.2259325 105.178221,37.9567018 C104.072718,42.4835065 102.444494,46.8243349 100.148162,50.8876485 C99.0699965,52.7946308 98.0427776,54.7248083 96.2646119,56.175755 C95.4163279,56.8678852 94.9619492,58.0367609 94.3099965,58.9761692 C92.0803515,62.1878852 89.2753811,64.9419089 87.0560912,68.1730923 C86.0678072,69.611613 85.2323634,71.1292461 84.3008249,72.5938615 C82.2679255,75.7902521 80.8799373,79.3180035 79.351535,82.7579444 C78.0103515,85.7762284 77.5253219,89.0745124 77.0419492,92.3433882 C76.5217125,95.8653408 75.9708249,99.3839799 75.3710616,102.893092 C75.0247894,104.920193 74.7833101,107.013151 74.0621859,108.912264 C73.5614166,110.231909 73.5427776,111.637293 72.9434285,112.916347 C72.5992273,113.649897 72.9691089,114.654749 72.1104699,115.259069 L72.1104699,115.259069 Z" id="Fill-219"></path>
                <path d="M59.6331148,100.812767 C59.7457776,100.871998 59.8588545,100.931643 59.9715172,100.990873 C60.333529,100.030341 61.3624048,99.3473231 60.8889728,98.0355479 C60.4702154,98.9612876 60.0518722,99.8870272 59.6331148,100.812767 L59.6331148,100.812767 Z M38.0623456,64.6894532 C35.7134107,65.1305775 33.3044166,67.3424118 33.5492095,68.8409917 C34.686606,66.9837136 36.3351267,65.7937136 38.0623456,64.6894532 L38.0623456,64.6894532 Z M57.9659551,50.4927077 C57.8971977,50.4011692 57.8280261,50.310045 57.7592687,50.2193349 C54.6295646,52.9319385 51.4994462,55.6449562 48.3701563,58.357974 C48.4364285,58.4354296 48.5031148,58.5128852 48.5698012,58.590755 L57.9659551,50.4927077 Z M67.0013397,41.8611692 C69.9434107,39.688684 72.9670793,37.642116 76.2169018,35.9397491 C79.5019314,34.2187432 82.8250675,32.5822343 86.1950083,31.0559029 C79.3482628,33.8521751 72.5827006,36.7992166 67.0013397,41.8611692 L67.0013397,41.8611692 Z M45.8613397,129.711169 C46.6528782,128.420933 47.6134107,127.283122 48.2591503,125.872353 C49.7208663,122.680518 51.4174344,119.59472 52.8083219,116.363122 C54.8813989,111.548447 57.0629965,106.78472 59.6206888,102.202826 C59.7805705,101.915785 59.9292687,101.627086 59.5047125,101.210814 C54.4174935,110.53324 50.8006888,120.441761 45.8613397,129.711169 L45.8613397,129.711169 Z M67.2983219,46.8344828 C65.9720498,47.4280331 65.3163693,48.7108142 64.364535,49.6895716 C63.1144758,50.4160805 62.423174,51.724542 61.3106296,52.6022343 C59.392464,54.1153112 57.4233515,55.5799266 55.629032,57.2317609 C51.9157184,60.6509917 47.8155409,63.4435361 43.2688545,65.6412876 C41.5809847,66.4576781 39.6118722,66.6320568 38.1696237,68.0436544 C37.2873752,68.9068497 36.2150083,69.6047787 36.1354817,70.9567313 C36.0174344,72.9598083 36.3305705,74.8953704 37.2956592,76.6959029 C39.0800379,80.0244237 41.4836474,82.934187 43.5844758,86.0485657 C45.7677302,89.2851337 47.7186178,92.5784473 48.2156592,96.609039 C48.6903338,100.464424 48.404535,104.285844 48.1779669,108.113891 C48.1319906,108.889276 47.6071977,109.628625 47.5786178,110.526613 C47.5392687,111.780814 47.5264285,113.175015 46.7299196,114.202649 C45.2930557,116.057441 44.8167243,118.319808 43.8760734,120.378388 C43.5679077,121.053536 43.7567835,122.048447 43.1640616,122.564956 C42.3729373,123.254601 42.1600379,124.16253 41.781458,125.029453 C41.6340024,125.367856 41.4289728,125.707915 41.1692687,125.965962 C40.3122864,126.817974 39.7725823,127.942944 39.1757184,128.915075 C38.0039432,130.824128 36.6996237,132.514069 35.0535882,134.01182 C34.5793279,134.443832 33.8300379,134.391228 33.5450675,135.06472 C33.2600971,135.736968 32.7361326,136.234424 32.1869018,136.697915 C31.6260734,137.171347 31.3394462,137.790578 31.116606,138.515015 C31.5279077,138.633063 31.7934107,138.465311 32.0642983,138.365903 C33.7683219,137.741702 35.2254817,136.640755 36.871103,135.892293 C39.7576711,134.579276 42.1927598,132.674364 44.1208663,130.127856 C45.563529,128.22253 46.5427006,126.066613 47.5753042,123.940104 C49.621458,119.725607 51.700748,115.524364 53.6197421,111.251465 C54.6945941,108.857796 55.8125231,106.488566 57.0021089,104.154956 C58.978677,100.278033 60.7398604,96.3017018 62.4563101,92.310045 C63.8310438,89.1132402 64.9688545,85.8174414 65.7135882,82.4002816 C66.3630557,79.4167905 67.4954817,76.589039 68.6026415,73.7563171 C70.7105113,68.3625893 72.8548308,62.9904 76.3299788,58.2734769 C79.4522273,54.0353704 82.6146533,49.8258438 85.4361918,45.3731811 C87.5419906,42.0496308 89.3698604,38.6096899 90.2670202,34.7456071 C90.3631148,34.3309917 90.6704521,33.7871456 90.3179669,33.4822935 C90.0193279,33.2238319 89.5322273,33.5634769 89.15489,33.7125893 C85.1984403,35.2782698 81.3898604,37.1425893 77.7047125,39.2753112 C77.0390912,39.6605183 76.4476119,40.5315834 75.4290912,40.1057846 C75.2853634,40.0457254 74.9850675,40.2474414 75.072464,40.4201633 C75.3810438,41.0306958 74.7821089,41.0232402 74.5526415,41.1748379 C73.1033515,42.1328852 71.6727006,43.1141278 70.259032,44.1251929 C69.1531148,44.9159029 68.3847717,46.0429444 67.2983219,46.8344828 L67.2983219,46.8344828 Z M38.0946533,124.951998 C38.4140024,124.929631 38.5055409,124.670755 38.6227598,124.440873 C40.1056001,121.530696 41.2053042,118.451524 42.5518722,115.48253 C43.1976119,114.057264 42.9768427,112.347441 44.0616356,111.079986 C44.2471977,110.862944 44.1887953,110.649217 43.9299196,110.538211 C43.5902746,110.392412 43.4076119,110.61898 43.3695054,110.896495 C43.2220498,111.978802 42.7051267,112.928151 42.3460143,113.935903 C41.4206888,116.531702 40.6279077,119.164779 39.3898604,121.654128 C38.8754225,122.689217 38.3050675,123.77898 38.120748,124.97685 C37.2057776,126.189217 36.5525823,127.539098 36.0418722,128.963122 C36.6826415,127.604128 37.9115764,126.546672 38.0946533,124.951998 L38.0946533,124.951998 Z M78.2825231,61.8612876 C78.6842983,62.5414059 78.5480261,62.9684473 78.2779669,63.6270272 C77.6198012,65.2328852 76.2757184,66.494542 76.0218131,68.2859621 C75.9315172,68.9254887 75.43489,69.4084473 75.1308663,69.9464947 C74.3567243,71.3158438 74.2080261,72.9092757 73.5117539,74.2434177 C72.851103,75.5092166 72.5677894,76.8955479 71.8942983,78.1331811 C71.5364285,78.7901041 71.6623456,79.6081515 71.1963693,80.2451929 C70.8819906,80.6743053 70.1049492,83.3454887 70.0146533,83.8595124 C69.7880853,85.1543053 69.5246533,86.4428852 69.2632924,87.7314651 C69.2185586,87.9526485 69.1191503,88.180045 68.8180261,88.1324118 C68.5073752,88.0835361 68.3570202,88.2247787 68.4763101,88.5006367 C68.922819,89.5344828 68.3897421,90.4606367 67.9925231,91.272471 C66.837316,93.6317609 65.8341208,96.0569089 64.8197421,98.472116 C64.6188545,98.9509325 63.6856592,98.8208734 64.0182628,99.7747787 C64.1860143,100.256495 63.6438249,101.09111 63.2685586,101.714069 C62.9032332,102.322116 62.6576119,103.000578 62.3266651,103.630992 C59.8890912,108.277915 57.6490912,113.017205 55.5267243,117.817382 C54.3495646,120.479867 52.9445941,123.040459 51.7044758,125.676435 C51.3913397,126.342471 51.1863101,127.090104 50.9758959,127.80253 C50.782464,128.456968 50.4987361,129.395548 49.6993279,129.80685 C49.5510438,129.883063 49.458677,129.950578 49.4102154,130.102589 C48.4327006,133.180933 45.8066651,134.790933 43.4647717,136.59395 C41.7880853,137.885015 39.743174,138.64756 37.840748,139.539749 C36.6635882,140.091465 35.5808663,140.969572 34.2094462,141.163418 C32.8347125,141.358092 31.4690912,141.606199 30.0753042,141.634364 C28.7233515,141.661702 27.4732924,141.345252 26.3537066,140.568211 C25.7671977,140.161465 25.6781444,139.644542 25.9341208,138.991347 C26.5682628,137.371406 27.5246533,136.015311 28.9975527,135.052293 C29.5616947,134.682826 30.1647717,134.363063 30.5404521,133.759986 C30.8084403,133.329631 31.2624048,133.871406 31.7602746,133.38182 C33.5218722,131.649217 34.6190912,129.542175 35.749032,127.424364 C38.0892687,123.03756 39.8313989,118.399335 41.5089137,113.73543 C42.2345941,111.717027 42.6123456,109.612885 42.942464,107.497146 C43.1512214,106.161347 43.2916356,104.82472 43.381103,103.477737 C43.4221089,102.853122 43.673529,102.339927 44.4402154,102.720163 C44.8974935,102.947146 45.0383219,102.614542 45.2528782,102.379276 C45.4053042,102.211938 45.3742391,102.020578 45.2276119,101.879749 C44.9600379,101.623773 44.7276711,101.890518 44.5184995,101.992412 C43.6602746,102.409927 43.3798604,102.160992 43.4233515,101.222412 C43.5442983,98.6361396 43.6097421,96.049039 42.9379077,93.5066722 C42.6036474,92.2396308 42.1343574,91.0239503 41.5225823,89.8757846 C39.7344758,86.5178556 37.42489,83.4912876 35.382464,80.2940686 C33.8884403,77.9538319 32.3517539,75.6140095 32.0377894,72.7576781 C31.9644758,72.0928852 31.4367835,71.2827077 32.3563101,70.7430035 C32.4072569,70.7135953 32.4519906,70.6191574 32.4478486,70.558684 C32.2697421,67.9459029 32.3505113,67.8804592 34.1261918,66.0492757 C35.2784995,64.8609325 36.6838841,64.034187 38.1157776,63.3760213 C43.3844166,60.9533586 47.8242391,57.4285065 52.1704521,53.6563763 C57.4610438,49.0641278 62.281103,43.9404592 67.7775527,39.608329 C73.7992095,34.8632402 80.686961,31.6117609 87.9980261,29.3655479 C91.8571385,28.1801041 94.7163693,31.060045 93.8751267,35.0649562 C93.0351267,39.0636544 91.5187361,42.8063763 89.5044758,46.3672639 C87.1919906,50.4546012 84.5423456,54.326968 81.9784403,58.2502816 C81.2751267,59.3267905 80.678677,60.4944237 79.8208663,61.4876781 C79.3760143,62.0025302 79.0458959,62.4548379 78.2825231,61.8612876 L78.2825231,61.8612876 Z" id="Fill-221"></path>
                <path d="M67.2982805,46.8345657 C66.6334876,48.1074059 65.5872154,48.9896544 64.3644935,49.6896544 C65.3163279,48.710897 65.9720083,47.428116 67.2982805,46.8345657" id="Fill-223"></path>
            </g>
        </g>
    </g>
</svg>