<?xml version="1.0" encoding="UTF-8"?>
<svg width="91px" height="41px" viewBox="0 0 91 41" version="1.1" xmlns="http://www.w3.org/2000/svg" xmlns:xlink="http://www.w3.org/1999/xlink">
    <!-- Generator: Sketch 63.1 (92452) - https://sketch.com -->
    <title>50</title>
    <desc>Created with Sketch.</desc>
    <g id="Page-1" stroke="none" stroke-width="1" fill="none" fill-rule="evenodd">
        <g id="Sticker-Sheet" transform="translate(-559.000000, -851.000000)" fill="#000000">
            <g id="50" transform="translate(559.000000, 851.000000)">
                <path d="M36.977777,33.4837827 L30.0949959,35.9503508 C32.5329841,35.5311792 34.8231024,34.6866229 36.977777,33.4837827 M52.9493746,32.2941969 C50.2156468,32.9333093 47.5299663,33.6598182 44.7585462,33.9895224 C47.6629249,34.2281022 50.337422,33.3429543 52.9493746,32.2941969 M46.1689013,23.8606466 C46.1833983,22.7799957 45.4858835,22.9154395 44.8459427,23.0078064 C42.6817415,23.3188715 41.5691971,24.9868596 40.5208539,26.5918892 C39.7566527,27.7615934 39.1096705,29.0737827 39.0918598,30.5512383 C39.0848184,31.1145519 39.2347592,31.5623034 39.9637533,31.1601141 C41.95399,30.0616525 43.7433391,28.7266821 45.0344042,26.8209425 C45.649493,25.9130135 46.0765344,24.9172738 46.1689013,23.8606466 M44.7697297,32.7112975 C46.5300847,32.798694 48.2191971,32.3136644 49.9054101,31.8853803 C57.1912089,30.0343153 63.3284279,26.156978 68.8911498,21.209759 C72.6069486,17.9048478 75.9710906,14.2781022 79.2138717,10.5254395 C79.5100255,10.1833093 79.7958243,9.82543952 80.2415048,9.66887147 C80.742274,9.49325017 81.0960018,9.53342768 80.8603214,10.2007058 C80.8027474,10.3651437 80.5745226,10.5188123 80.8864161,10.6144928 C81.9620965,10.9450253 81.6704989,11.728694 81.4795521,12.4415342 C81.1216823,13.779404 80.2261794,14.8339602 79.4599072,15.9315934 C77.3135166,19.0070371 75.0486646,22.0041969 72.410203,24.6782798 C69.9606172,27.1605874 67.1788421,29.2601732 64.3399072,31.2806466 C62.5327474,32.5667413 60.6767119,33.8499366 58.5493746,34.4310608 C57.1361202,34.8170963 55.9945817,35.6802916 54.615706,36.0729543 C51.972274,36.8255579 49.3313273,37.5470963 46.5690196,37.7003508 C44.2954693,37.8262679 42.1478362,37.375617 40.1700255,36.2444336 C39.5180729,35.8712383 38.9050551,35.8451437 38.2431616,36.117688 C36.4591971,36.8516525 34.6462385,37.5305283 32.8390788,38.1795815 C29.8990788,39.2362087 26.8049959,39.821475 23.7084279,40.2837235 C18.769493,41.0210016 13.8235166,41.2533685 8.88333913,40.2737827 C5.97978883,39.6980431 3.15452256,38.9417117 0.974167529,36.7406466 C0.400084689,36.1611792 -0.0257141274,35.5216525 0.00120894956,34.6605283 C0.0123923815,34.289404 0.129611316,34.0085756 0.492865754,33.8532502 C0.922392382,33.6701732 0.960084689,33.9746111 1.15807285,34.2529543 C2.51541013,36.1624218 4.67878291,36.4125993 6.73446339,36.8359129 C12.399493,38.0027176 18.0359427,37.4683981 23.6587237,36.4850845 C27.9614456,35.7324809 32.1494338,34.567333 36.1961794,32.9134277 C36.5175995,32.7821259 36.9607947,32.7933093 36.6932208,32.1865046 C35.7608539,30.0724218 35.9112089,27.9107058 36.6700255,25.806978 C37.8409723,22.5596407 39.7487829,19.926978 43.2545817,18.9212975 C45.1383687,18.380765 46.3946409,18.9929543 47.4997297,20.5979839 C50.3158835,24.6865638 48.7704989,29.0891082 45.5596113,31.7246703 C45.2717415,31.9603508 44.9842859,32.1960312 44.6972445,32.4312975 C44.7212681,32.524907 44.745706,32.6181022 44.7697297,32.7112975" id="Fill-149"></path>
                <path d="M81.0396291,4.4988123 C83.244422,3.80461111 85.3067297,2.82916733 87.1586232,1.44159336 C85.1190965,2.46052827 83.0795699,3.47987739 81.0396291,4.4988123 M85.5974989,13.7632502 C85.649274,11.4221851 86.0995107,9.13082413 86.4594516,6.82786555 C86.5132977,6.48366437 86.7585048,6.1083981 86.3260788,5.80768804 C85.910635,5.51898981 85.5900433,5.81390105 85.3088007,5.99904898 C83.7750137,7.00680046 82.0312267,7.50798389 80.3603391,8.19969987 C79.3049545,8.63709632 78.3237119,9.27745135 77.2256646,9.69372354 C75.5348953,10.3340786 73.8901024,11.1020076 72.2457237,11.8583389 C71.412351,12.241475 70.4356646,12.2178656 69.7108125,12.9481022 C68.9996291,13.6642561 68.2288007,13.4484573 67.3535936,12.2551437 C66.9066705,11.6462679 66.7235936,10.8344336 67.4840669,10.2566229 C68.1095107,9.78153419 68.7825876,9.34662295 69.4875581,9.00325017 C74.1535344,6.73135668 78.8377356,4.49715549 83.5061971,2.23064662 C84.5541261,1.72200756 85.568919,1.14212591 86.5919959,0.582954309 C88.4521734,-0.433909596 89.2395699,-0.160951016 90.2336527,1.72200756 C91.0053095,3.18372354 91.0670255,4.62638626 90.5480314,6.18336851 C89.5493924,9.18052827 88.6360788,12.2062679 88.2177356,15.3521259 C88.1340669,15.9825401 88.1390374,16.6241377 88.0798066,17.258694 C88.0118776,17.9934869 87.6672622,18.18112 87.0364338,17.748694 C85.6376764,16.7910608 85.5196291,16.4683981 85.5974989,13.7632502" id="Fill-151"></path>
            </g>
        </g>
    </g>
</svg>