<svg viewBox="0 0 39 40" xmlns="http://www.w3.org/2000/svg"><g fill="none"><path d="M15.178 26.7c7.75-3.054-8.746-1.978-15.178-1.474 2.339 8.307 9.928 14.4 18.934 14.4 5.862 0 11.124-2.577 14.727-6.668-2.525-1.97-12.41-3.078-12.41-3.078-9.655-.984-6.073-3.18-6.073-3.18" fill="#286AA6"/><path d="M18.934.053c-7.121 0-13.367 3.76-16.889 9.415a12.97 12.97 0 001.893-.45c1.813-.591 2.387-.482 2.775-.442.385.039.95.261 1.928-.413.977-.673 1.77-.815 2.208-.608.433.21 1.633.604 1.935.802.309.193 1.153 1.548 2.3 1.77 1.15.225 1.68.17 1.828.624.151.454 1.25 1.903 1.25 1.903 2.28-.71 2.952-.272 3.747-.467.802-.194 1.162-.547 1.944.081.785.631 7.777 3.643 9.208 3.673 1.43.036 1.7-.765 2.664-.612.962.151.698.177 1.435.635.735.461.531-.111 1.116.553a.835.835 0 00.294.215C36.985 7.264 28.797.052 18.934.052" fill="#0D5D35"/></g></svg>