<svg xmlns="http://www.w3.org/2000/svg" viewBox="0 0 24 24"><path d="M2.342 16.545a.517.517 0 00-.869.254L.012 23.372a.517.517 0 00.139.477.526.526 0 00.477.139l6.572-1.46a.517.517 0 00.253-.87zm15.702-9.494l-11.32 11.32a.26.26 0 000 .365l1.826 1.827a.526.526 0 00.731 0L20.235 9.607a.515.515 0 000-.73L18.41 7.051a.259.259 0 00-.366 0zm-1.095-1.46l-1.826-1.826a.517.517 0 00-.73 0L3.438 14.72a.515.515 0 000 .73l1.826 1.826a.26.26 0 00.365 0l11.32-11.32a.258.258 0 000-.365zm5.843-4.382a4.136 4.136 0 00-5.843 0l-.731.73a.518.518 0 000 .731l5.113 5.111a.53.53 0 00.73 0l.731-.73a4.135 4.135 0 000-5.842z"/></svg>