<svg viewBox="0 0 100 25" xmlns="http://www.w3.org/2000/svg"><g fill="none"><path d="M31.778 21.702c.206-.45.225-.638.225-1.832-.535.085-1.256.19-2.14.378-1.52.33-1.78.9-1.78 1.472 0 .657.52 1.211 1.538 1.211.949 0 1.762-.382 2.157-1.229m1.878 2.256l-1.428.007s-.124-.58-.163-1.206c-.415.429-1.185 1.32-2.737 1.32-1.59 0-2.77-.944-2.77-2.324 0-.434.121-.866.362-1.228.469-.692 1.338-1.245 3.772-1.436l1.293-.103v-.207c0-.847 0-2.264-1.824-2.264-1.148 0-1.536.555-1.672 1.058l-1.262-.528c.02-.044.043-.09.066-.134.487-.897 1.438-1.45 2.818-1.45.755 0 1.736.19 2.377.691.91.691.891 2.05.891 2.05l.053 4.194s.05 1.217.225 1.56m45.63-2.256c.207-.45.224-.638.224-1.832-.534.085-1.257.19-2.141.378-1.518.33-1.777.9-1.777 1.472 0 .657.518 1.211 1.536 1.211.95 0 1.761-.382 2.158-1.229m1.877 2.256l-1.429.007s-.124-.58-.162-1.206c-.414.429-1.184 1.32-2.738 1.32-1.589 0-2.767-.944-2.767-2.324 0-.434.121-.866.363-1.228.468-.692 1.334-1.245 3.767-1.436l1.296-.103v-.207c0-.847 0-2.264-1.826-2.264-1.145 0-1.538.555-1.67 1.058l-1.262-.528c.018-.044.04-.09.066-.134.485-.897 1.438-1.45 2.816-1.45.757 0 1.738.19 2.378.691.91.691.888 2.05.888 2.05l.057 4.194s.046 1.217.223 1.56M65.57 22.39c-.469.797-1.372 1.709-3.153 1.709-2.415 0-3.8-1.64-3.8-4.391 0-3.07 2.025-4.246 3.749-4.246 1.502 0 2.938.83 3.421 2.882.154.691.154 1.314.154 1.658h-5.877c-.034 1.366.54 3.096 2.471 3.064.788-.014 1.344-.372 1.698-.933l1.337.257zm-5.468-3.372h4.335c-.121-2.138-1.355-2.5-2.177-2.5-1.173 0-2.005.86-2.158 2.5m-10.138 3.373c-.468.797-1.37 1.71-3.15 1.71-2.417 0-3.806-1.64-3.806-4.392 0-3.07 2.028-4.246 3.752-4.246 1.5 0 2.938.83 3.423 2.883.153.69.153 1.313.153 1.658h-5.872c-.037 1.365.537 3.095 2.469 3.063.788-.014 1.343-.372 1.697-.933l1.334.257zM44.5 19.02h4.335c-.121-2.138-1.354-2.5-2.176-2.5-1.174 0-2.005.86-2.16 2.5m27.949 2.96c-.288.561-.827 1.068-1.888 1.068-.923 0-2.473-.581-2.473-3.277 0-.726.131-3.296 2.387-3.296 1.14 0 1.664.62 1.906 1.156l1.287-.537c-.792-1.32-2.221-1.627-3.243-1.627-2.605 0-3.863 2.095-3.863 4.407 0 2 1.091 4.228 3.982 4.228 1.674 0 2.608-.808 3.117-1.614l-1.212-.508zm-21.316-6.2v8.18h1.372v-4.64c0-.606 0-1.226.607-1.83.434-.431.956-.62 1.561-.62.747 0 1.511.345 1.753 1.121.088.275.088.517.088 1.346v4.623h1.368v-4.848c0-.691 0-1.19-.14-1.674-.397-1.348-1.645-1.87-2.688-1.87-.484 0-1.785.122-2.549 1.457V15.78h-1.372zm-16.499-2.575v1.325h6.114l-6.119 8.031v1.4h7.903v-1.292h-6.242l6.088-8.123v-1.341h-7.744zm-12.291 2.574v8.181h1.37v-3.762c0-.701-.018-1.532.348-2.125.445-.725 1.106-1 2.452-1.01v-1.417c-.553.018-2.02.053-2.8 1.596v-1.463h-1.37zm-2.727-2.577l-1.414.59v1.987h-1.298v1.144H18.2v5.253c-.019 1.068-.019 1.84 1.57 1.84.52 0 1.089-.104 1.33-.138v-1.133c-.275.086-.638.189-.898.189-.588 0-.588-.414-.588-1.378v-4.633H21.1v-1.144h-1.486v-2.577zm-4.448 8.48c0 .877-.712 1.343-1.927 1.343-.98 0-1.64-.275-2.005-.91l-1.451.255c.564 1.156 1.74 1.71 3.397 1.71 2.248 0 3.422-1.245 3.422-2.57 0-1.705-1.571-2.166-3.379-2.532-.872-.174-1.896-.498-1.896-1.271 0-.551.537-1.188 1.614-1.188 1.1 0 1.757.748 1.858 1.045l1.275-.531c-.584-1.114-1.753-1.568-2.977-1.568-1.89 0-3.144.933-3.144 2.414 0 1.685 1.445 2.016 2.844 2.32 1.203.258 2.37.554 2.37 1.482M8.006 23.96h1.509L5.592 13.2H4.1L.002 23.959h1.522l1.204-3.299h4.1l1.178 3.299zm-4.814-4.503l1.646-4.47 1.57 4.47H3.191z" fill="#8E0B56"/><path d="M96.508 10.081c-1.61-.56-5.595-2.045-9.798-2.598-1.444-.19-2.027.324-1.43 1.702.584 1.36 2.107 3.638 3.702 5.347 1.593 1.709 3.323 2.167 3.872-.465a18.512 18.512 0 00.34-2.188c-.708-.32-1.5-.663-2.293-.997.044.604.115 1.647.152 2.449.005.103.01.202.012.299.048 1.3-.395 1.294-1.135.764-.861-.616-3.498-4.1-3.8-5.637-.014-.101.034-.105.086-.089l.065.027.007.001c.595.234 2.577 1.016 4.59 1.864.804.34 1.611.687 2.336 1.016.714.322 1.35.624 1.826.878.87.466 1.208.782.843 1.155-1.813 1.84-8.137 4.455-10.32 7.69 0 0-.01.01-.024.031a1.099 1.099 0 00-.071.115c-.007.011-.011.025-.019.037a2.813 2.813 0 00-.316.96c-.092.707.275 1.352 1.29 1.626.255.076.544.13.861.163.055.004.117.01.18.01 1.949.096 7.01-1.014 8.552-1.698 1.59-.707 1.116-1.41.655-1.775-.346-.276-2.118-1.264-2.977-1.74l-.638.41c1.463.893 2.042 1.337 2.384 1.599.13.103.06.224-.136.238l-.156.011c-1.39.097-4.021.281-5.257.347-.181.012-.385.02-.498.025.305-.287.65-.546.82-.666 2.64-1.857 7.046-4.468 8.343-5.592.956-.827 3.564-3.36-2.048-5.318m-6.41 6.99c-.213.136-.427.271-.639.411-2.464-1.37-7.76-4.008-8.219-4.247-.492-.254-1.348-.598-1.24-1.414.152-1.145 2.137-3.65 2.981-4.679 4.569-5.586 6.614-7.31 7.972-7.13 1.446.188 2.25 1.684 2.347 8.686-.807-.25-1.7-.506-2.648-.743a66.16 66.16 0 00-.34-3.083c-.08-.598-.197-.826-.439-.858-.273-.035-.939.604-1.543 1.223-.276.28-1.052 1.066-1.909 1.929-.716-.047-1.194.102-1.458.45-.21.283-.258.667-.131 1.151-.464.463-.861.862-1.114 1.113-.953.95-1.96 1.736-2.011 2.122-.042.314.44.64 1.126 1.05 1.678 1.001 5.805 3.233 7.266 4.019" fill="#F8A717"/></g></svg>