<svg viewBox="0 0 101 25" xmlns="http://www.w3.org/2000/svg"><path d="M28.908 8.57h-7.986c-2.066 0-3.7 1.727-3.7 3.793v7.894a3.762 3.762 0 003.7 3.793h7.986c2.066 0 3.7-1.727 3.7-3.793v-7.924c0-2.066-1.634-3.762-3.7-3.793v.03zm1.357 4.842v5.859c0 1.325-1.049 2.436-2.375 2.466h-5.95a2.436 2.436 0 01-2.375-2.466v-5.86c0-1.356 1.048-2.466 2.374-2.466h5.951c1.326 0 2.406 1.14 2.375 2.467zM45.868 8.54H37.85c-2.066.03-3.7 1.757-3.7 3.823v7.894a3.762 3.762 0 003.7 3.793h8.018c2.066 0 3.7-1.727 3.7-3.793v-7.924c0-2.066-1.634-3.762-3.7-3.793zm1.326 4.872v5.859a2.415 2.415 0 01-2.375 2.466H38.9a2.436 2.436 0 01-2.375-2.466v-5.86c0-1.356 1.049-2.466 2.406-2.466h5.92c1.326.03 2.374 1.14 2.374 2.467h-.03zM79.57 8.54h-8.017c-2.066.03-3.7 1.757-3.7 3.823v7.894c0 2.066 1.634 3.762 3.7 3.793h8.017c2.066-.03 3.7-1.727 3.7-3.793v-7.924c0-2.066-1.634-3.762-3.7-3.793zm1.357 4.872v5.859c0 1.325-1.049 2.436-2.375 2.466h-5.92a2.436 2.436 0 01-2.405-2.466v-5.86c0-1.356 1.048-2.466 2.405-2.466h5.92c1.326 0 2.406 1.14 2.375 2.467zM96.5 8.54h-8.018c-2.066.03-3.7 1.757-3.7 3.823v7.894c0 2.066 1.634 3.762 3.7 3.793H96.5c2.066-.03 3.7-1.727 3.7-3.793v-7.924c0-2.066-1.634-3.762-3.7-3.793zm1.356 4.872v5.859c0 1.325-1.048 2.436-2.374 2.466h-5.951a2.436 2.436 0 01-2.374-2.466v-5.86c0-1.356 1.048-2.466 2.374-2.466h5.951c1.326 0 2.405 1.14 2.374 2.467zm-86-4.872H3.839a3.26 3.26 0 00-1.295.277V.8H.2v19.488c0 2.066 1.634 3.762 3.7 3.793h7.956c2.066 0 3.7-1.727 3.7-3.793v-7.955c0-2.066-1.603-3.762-3.7-3.762V8.54zm1.357 4.872v5.859c0 1.325-1.049 2.436-2.375 2.466h-5.92a2.436 2.436 0 01-2.374-2.466v-5.86a2.45 2.45 0 012.374-2.435h5.951c1.326 0 2.374 1.11 2.374 2.436h-.03zM62.735 8.57h-8.018c-.431 0-.863.092-1.264.277V.862H51.11V24.08h2.343v-.185l-.062-10.423a2.45 2.45 0 012.375-2.436h5.951c1.326.031 2.405 1.141 2.374 2.467v10.608h2.344V12.456c.062-2.097-1.573-3.793-3.67-3.855h-.03v-.03z"/></svg>