<svg viewBox="0 0 200 67" xmlns="http://www.w3.org/2000/svg" xmlns:xlink="http://www.w3.org/1999/xlink"><defs><path id="a" d="M.003.234H12.02v16.712H.003z"/><path id="c" d="M.264.234H12.65v16.712H.264z"/></defs><g fill="none" fill-rule="evenodd"><path fill="#4A4A49" d="M0 1.792h45.063V.521H0zm.067 16.261h44.996V16.78H.067zM0 33.994h45.063v-1.271H0zm0 16.101h45.063v-1.27H0zm0 16.101h45.063v-1.271H0z"/><path d="M25.505 34.036c-8.504 0-15.423 6.92-15.423 15.424s6.919 15.423 15.423 15.423c8.504 0 15.424-6.919 15.424-15.423 0-8.505-6.92-15.424-15.424-15.424" fill="#F30"/><path d="M17.476 42.066c-4.077 0-7.394 3.317-7.394 7.394 0 4.076 3.317 7.393 7.394 7.393s7.394-3.317 7.394-7.393c0-4.077-3.317-7.394-7.394-7.394" fill="#89F1CE"/><g transform="translate(55.508 .19)"><mask id="b" fill="#fff"><use xlink:href="#a"/></mask><path d="M.003 8.59C.003 3.404 3.025.234 7.228.234c1.942 0 3.466.934 4.424 1.966l-1.18 1.303c-.835-.885-1.892-1.45-3.244-1.45-3.072 0-5.088 2.482-5.088 6.488 0 4.055 2.016 6.587 5.088 6.587 1.476 0 2.605-.64 3.613-1.77l1.18 1.253c-1.254 1.476-2.851 2.335-4.99 2.335-3.98 0-7.028-3.097-7.028-8.356" fill="#4A4A49" mask="url(#b)"/></g><path fill="#4A4A49" d="M70.601.718h2.09v6.735h6.685V.718h2.088v16.123h-2.088v-7.57H72.69v7.57h-2.089z"/><g transform="translate(84.322 .19)"><mask id="d" fill="#fff"><use xlink:href="#c"/></mask><path d="M10.512 8.517c0-4.056-1.622-6.464-4.054-6.464-2.434 0-4.056 2.408-4.056 6.464 0 4.128 1.622 6.61 4.056 6.61 2.432 0 4.054-2.482 4.054-6.61m-10.248 0C.264 3.306 2.82.234 6.458.234c3.637 0 6.193 3.072 6.193 8.283 0 5.284-2.556 8.43-6.193 8.43-3.638 0-6.194-3.146-6.194-8.43" fill="#4A4A49" mask="url(#d)"/></g><path d="M102.675 2.39h2.654c2.507 0 3.883.762 3.883 2.876 0 2.064-1.376 3.096-3.883 3.096h-2.654V2.39zm9.07 14.451L107.648 9.8c2.181-.54 3.628-2.028 3.628-4.533 0-3.368-2.384-4.548-5.653-4.548h-5.038v16.123h2.09v-6.807h2.853l3.88 6.807h2.335zm6.091-6.561l.765-2.434c.565-1.794 1.08-3.563 1.598-5.431h.097c.492 1.868 1.033 3.637 1.598 5.43l.752 2.435h-4.81zm6.835 6.562h2.212L121.452.719h-2.36l-5.431 16.123h2.114l1.537-4.892h5.85l1.51 4.892zM130.939.718h2.04v14.378h7.962v1.745H130.94zM57.207 25.296h2.04v14.378h7.962v1.745H57.207zm14.255 0h9.978v1.745h-7.914v5.039h6.685v1.744h-6.685v5.85h8.16v1.745H71.462zm16.882 9.561l.764-2.433a160.37 160.37 0 001.598-5.432h.098c.492 1.868 1.032 3.637 1.598 5.432l.751 2.433h-4.81zm6.835 6.562h2.212l-5.432-16.123H89.6L84.17 41.42h2.113l1.537-4.891h5.85l1.51 4.891zm8.946-1.696c3.662 0 5.48-2.36 5.48-6.439 0-4.055-1.818-6.291-5.48-6.291h-1.77v12.73h1.77zm-3.835-14.427h3.982c4.843 0 7.472 2.876 7.472 7.988 0 5.136-2.63 8.135-7.373 8.135h-4.08V25.296zm15.411 0h9.978v1.745h-7.913v5.039h6.684v1.744h-6.684v5.85h8.159v1.745H115.7zm16.467 1.672h2.654c2.507 0 3.883.761 3.883 2.875 0 2.065-1.376 3.097-3.883 3.097h-2.654v-5.972zm9.069 14.45l-4.095-7.042c2.18-.539 3.628-2.027 3.628-4.533 0-3.367-2.384-4.547-5.653-4.547h-5.038v16.123h2.089V34.61h2.854l3.88 6.808h2.335zm2.801-2.088l1.23-1.425c1.228 1.204 2.9 1.99 4.719 1.99 2.211 0 3.49-1.057 3.49-2.531 0-1.72-1.254-2.212-2.877-2.9l-2.334-1.032c-1.598-.64-3.466-1.77-3.466-4.154 0-2.458 2.212-4.277 5.284-4.277 2.015 0 3.786.81 4.965 1.991l-1.082 1.328c-1.056-.935-2.285-1.5-3.957-1.5-1.867 0-3.12.885-3.12 2.335 0 1.548 1.499 2.114 2.876 2.654l2.26 1.008c1.991.786 3.564 1.917 3.564 4.3 0 2.557-2.163 4.597-5.702 4.597-2.36 0-4.4-.933-5.85-2.384m15.042-14.034h2.089v6.734h6.685v-6.734h2.089v16.123h-2.09v-7.57h-6.684v7.57h-2.09zm15.14 14.378h4.005V27.042h-4.005v-1.746h10.075v1.746h-4.005v12.632h4.005v1.745H174.22zm19.538-6.316c2.801 0 4.153-1.033 4.153-3.318 0-2.31-1.375-3.073-4.153-3.073h-2.556v6.391h2.556zm-4.62-8.062h4.866c3.563 0 5.972 1.204 5.972 4.744 0 3.415-2.433 4.989-5.972 4.989h-2.802v6.39h-2.064V25.296zM55.929 49.874h2.26L63.352 60l1.548 3.342h.05c-.074-1.597-.271-3.416-.271-5.112v-8.356h1.967v16.123h-2.262L59.222 55.87l-1.548-3.343h-.05c.074 1.647.271 3.367.271 5.039v8.43H55.93V49.874zm15.533 0h9.978v1.745h-7.914v5.039h6.685v1.744h-6.685v5.85h8.16v1.745H71.462zm18.285 1.745h-5.333v-1.745h12.731v1.745h-5.333v14.378h-2.065zm8.652-1.769h2.31l1.179 10.125c.147 1.351.246 2.139.32 3.736h.074c.295-1.597.467-2.385.786-3.711l1.573-5.997h1.966L108.131 60c.344 1.326.491 2.114.786 3.711h.099c.099-1.597.147-2.385.294-3.711l1.131-10.15h2.212l-2.36 16.147h-2.555l-1.573-6.488a30.18 30.18 0 01-.59-2.901h-.074c-.172.983-.32 1.918-.566 2.9l-1.572 6.489h-2.507L98.4 49.85zm25.928 8.012c0-4.056-1.622-6.464-4.055-6.464s-4.055 2.408-4.055 6.464c0 4.128 1.622 6.61 4.055 6.61s4.055-2.482 4.055-6.61m-10.249 0c0-5.211 2.557-8.283 6.194-8.283 3.638 0 6.194 3.072 6.194 8.283 0 5.284-2.556 8.43-6.194 8.43-3.637 0-6.194-3.146-6.194-8.43m18.09-6.317h2.654c2.507 0 3.883.762 3.883 2.876 0 2.064-1.376 3.096-3.883 3.096h-2.654v-5.972zm9.069 14.451l-4.095-7.042c2.18-.54 3.628-2.028 3.628-4.533 0-3.368-2.384-4.547-5.653-4.547h-5.038v16.122h2.089V59.19h2.854l3.88 6.807h2.335zm8.11-8.995l1.253-1.621 6.047 10.616h-2.335l-4.965-8.995zm-4.572-7.127h2.09v8.061h.073l6.76-8.061h2.36l-9.193 10.986v5.136h-2.09V49.874zM25.505 34.036c-8.504 0-15.423 6.92-15.423 15.424s6.919 15.423 15.423 15.423c8.504 0 15.424-6.919 15.424-15.423 0-8.505-6.92-15.424-15.424-15.424m0 32.118c-9.205 0-16.694-7.489-16.694-16.694 0-9.205 7.489-16.695 16.694-16.695 9.206 0 16.695 7.49 16.695 16.695s-7.49 16.694-16.695 16.694" fill="#4A4A49"/><path d="M17.476 42.066c-4.077 0-7.394 3.317-7.394 7.394 0 4.076 3.317 7.393 7.394 7.393s7.394-3.317 7.394-7.393c0-4.077-3.317-7.394-7.394-7.394m0 16.059c-4.778 0-8.665-3.887-8.665-8.665 0-4.778 3.887-8.665 8.665-8.665 4.778 0 8.665 3.887 8.665 8.665 0 4.778-3.887 8.665-8.665 8.665" fill="#4A4A49"/><path d="M31.114 18.092c-4.032 0-7.312 3.28-7.312 7.312 0 4.031 3.28 7.312 7.312 7.312s7.312-3.28 7.312-7.312-3.28-7.312-7.312-7.312" fill="#386D78"/><path d="M31.114 18.092c-4.032 0-7.312 3.28-7.312 7.312 0 4.031 3.28 7.312 7.312 7.312s7.312-3.28 7.312-7.312-3.28-7.312-7.312-7.312m0 15.881c-4.725 0-8.569-3.844-8.569-8.57 0-4.724 3.844-8.568 8.57-8.568 4.724 0 8.569 3.844 8.569 8.569 0 4.725-3.845 8.57-8.57 8.57" fill="#4A4A49"/><path d="M15.442 1.807c-6.235 0-11.308 5.072-11.308 11.307 0 6.236 5.073 11.308 11.308 11.308 6.235 0 11.307-5.072 11.307-11.308 0-6.235-5.072-11.307-11.307-11.307" fill="#9766C0"/><path d="M15.442 1.807c-6.235 0-11.308 5.072-11.308 11.307 0 6.236 5.073 11.308 11.308 11.308 6.235 0 11.307-5.072 11.307-11.308 0-6.235-5.072-11.307-11.307-11.307m0 23.886c-6.936 0-12.579-5.643-12.579-12.579C2.863 6.178 8.506.536 15.442.536c6.936 0 12.579 5.642 12.579 12.578 0 6.936-5.643 12.58-12.58 12.58" fill="#4A4A49"/></g></svg>