<svg height="536pt" viewBox="-43 -17 536 536.001" width="536pt" xmlns="http://www.w3.org/2000/svg"><path d="M385.438 36.598h-51.836V12.492C333.602 5.59 328.012 0 321.109 0c-6.894 0-12.488 5.59-12.488 12.492v23.98H137.496v-23.98C137.496 5.59 131.906 0 125.008 0c-6.895 0-12.492 5.59-12.492 12.492v23.98H60.68c-34.485.016-62.438 27.965-62.453 62.454v341.12c.015 34.49 27.968 62.442 62.453 62.454h324.757c34.493-.012 62.446-27.965 62.454-62.453V99.05c-.008-34.485-27.961-62.442-62.454-62.453zM60.68 61.578h51.836v23.984c0 6.899 5.597 12.489 12.492 12.489 6.898 0 12.488-5.59 12.488-12.489V61.578H308.5v23.984c0 6.899 5.59 12.489 12.488 12.489 6.899 0 12.492-5.59 12.492-12.489V61.578h51.958c20.671.059 37.414 16.8 37.472 37.473v30.726H23.207V99.051c.02-20.688 16.785-37.457 37.473-37.473zm324.757 416.063H60.68c-20.668-.059-37.407-16.797-37.473-37.473v-285.41H422.91v285.41c-.058 20.676-16.8 37.414-37.472 37.473zm0 0"/><path d="M345.594 262.8H100.527c-6.898 0-12.488 5.598-12.488 12.493 0 6.898 5.59 12.492 12.488 12.492h245.067c6.898 0 12.492-5.594 12.492-12.492 0-6.895-5.594-12.492-12.492-12.492zm-103.297 81.692h-141.77c-6.898 0-12.488 5.594-12.488 12.492s5.59 12.493 12.488 12.493h141.77c6.898 0 12.492-5.594 12.492-12.493s-5.594-12.492-12.492-12.492zm0 0"/></svg>