<svg height="533pt" viewBox="-81 -16 533 533.333" width="533pt" xmlns="http://www.w3.org/2000/svg"><path d="M353.715 81.95H314.96V12.5c0-6.906-5.602-12.5-12.5-12.5H50.375C20.305 0-4.152 23.96-4.168 53.473v393.082c0 29.468 24.469 53.445 54.543 53.445h303.34c6.902 0 12.5-5.594 12.5-12.5V94.45c0-6.907-5.598-12.5-12.5-12.5zM50.375 25h239.586v56.95H50.375c-16.29 0-29.543-12.763-29.543-28.505C20.832 37.758 34.086 25 50.375 25zm67.637 81.95h74.117v153.124l-30.73-18.066a12.489 12.489 0 00-12.669 0l-30.722 18.066zM341.215 475H50.375c-16.29 0-29.543-12.758-29.543-28.445V98.415a55.045 55.045 0 0029.543 8.534h42.637v174.973a12.5 12.5 0 0018.832 10.777l43.222-25.418L198.29 292.7a12.507 12.507 0 0012.543.074 12.5 12.5 0 006.297-10.851V106.949h124.086zm0 0"/></svg>