<svg viewBox="0 0 122 61" xmlns="http://www.w3.org/2000/svg"><g fill="none" fill-rule="evenodd"><path stroke="#111" stroke-width="2" d="M1 59.799h119.806V12.984H1z"/><path fill="#111" d="M4.356 56.389h9.257V16.824H4.356zm15.502 0h9.158V16.824h-9.158zm11.084-39.565v8.549h6.043s3.434.73 3.123 3.962c0 0 .311 2.398-2.603 3.023h-6.66v8.021h7.285s10.928.632 12.801-10.314c0 0 1.347-10.739-9.477-13.24H30.942m6.973 39.564l16.868-25.803 5.203 7.715-11.455 18.088H37.915"/><path fill="#111" d="M47.705.04l36.838 56.349H74.239l-4.053-5.682H55.095l5.932-9.591h3.018L42.397 8.17 47.705.04m37.67 56.349h8.951V16.824h-8.95zM96.511 25.79h14.364v-8.966H96.51zm-.207 15.847h14.57v-9.383h-14.57zm-.141 13.247h1.758v-1.762h-1.758zm9.523-3.194c0-.924-.27-1.724-.81-2.401-.54-.678-1.36-1.017-2.46-1.017-1.1 0-1.92.34-2.46 1.017-.541.677-.811 1.477-.811 2.4 0 .94.27 1.744.81 2.411.54.668 1.36 1.002 2.46 1.002 1.1 0 1.92-.334 2.46-1.002.54-.667.811-1.47.811-2.41zm-3.268 2.026c-.492 0-.87-.176-1.136-.528-.265-.353-.398-.854-.398-1.504s.133-1.15.398-1.5c.266-.35.644-.526 1.136-.526.492 0 .87.176 1.133.526.264.35.396.85.396 1.5s-.132 1.15-.396 1.504c-.263.352-.64.528-1.133.528zm8.013-5.399c.022.003.07.009.144.015v1.702a7.972 7.972 0 00-.283-.016l-.2-.004c-.674 0-1.127.22-1.358.66-.13.247-.195.628-.195 1.142v3.068h-1.68V48.47h1.601v1.115c.258-.429.482-.721.674-.88.312-.262.718-.394 1.218-.394.031 0 .057.002.079.005m3.426-.005c-.86 0-1.525.325-1.994.973-.469.65-.703 1.45-.703 2.402 0 .988.243 1.772.731 2.35.487.578 1.139.867 1.954.867.528 0 .958-.126 1.288-.377.182-.136.353-.339.513-.61v.41c0 .61-.066 1.042-.197 1.3-.2.402-.598.603-1.191.603-.42 0-.72-.076-.897-.23-.104-.086-.179-.227-.225-.423h-1.818c.054.638.34 1.117.854 1.439.516.32 1.182.48 1.997.48 1.351 0 2.264-.36 2.74-1.08.278-.42.416-1.043.416-1.87V48.47h-1.66v.92c-.248-.452-.573-.763-.976-.931a2.155 2.155 0 00-.832-.148zm.421 5.206c-.575 0-.973-.272-1.195-.816a2.545 2.545 0 01-.184-.998c0-.434.057-.798.172-1.094.219-.555.615-.833 1.19-.833.42 0 .757.16 1.008.479.251.319.377.784.377 1.395 0 .65-.133 1.124-.397 1.421a1.25 1.25 0 01-.971.446z"/></g></svg>