<?xml version="1.0" encoding="UTF-8"?>
<svg width="993px" height="709px" viewBox="0 0 993 709" version="1.1" xmlns="http://www.w3.org/2000/svg" xmlns:xlink="http://www.w3.org/1999/xlink">
    <!-- Generator: Sketch 61 (89581) - https://sketch.com -->
    <title>Shape</title>
    <desc>Created with Sketch.</desc>
    <g id="Page-1" stroke="none" stroke-width="1" fill="none" fill-rule="evenodd">
        <g id="logo" fill="#1e0994" fill-rule="nonzero" opacity="1">
            <path d="M314,284 L395,284 C411.568542,284 425,297.431458 425,314 L425,532.478081 C425,549.046624 438.431458,562.478081 455,562.478081 L533.681138,562.478081 C550.249681,562.478081 563.681138,549.046624 563.681138,532.478081 L563.681138,31 C563.681138,14.4314575 577.112596,1 593.681138,1 L682.814,1 C699.382542,1 712.814,14.4314575 712.814,31 L712.814,532.478081 C712.814,549.046624 726.245458,562.478081 742.814,562.478081 L821.922848,562.478081 C838.49139,562.478081 851.922848,549.046624 851.922848,532.478081 L851.922848,31 C851.922848,14.4314575 865.354305,1 881.922848,1 L963,1 C979.568542,1 993,14.4314575 993,31 L993,679 C993,695.568542 979.568542,709 963,709 L314,709 C297.431458,709 284,695.568542 284,679 L284,314 C284,297.431458 297.431458,284 314,284 Z M120.652686,288.006991 C125.541574,290.621597 129.378403,294.458426 131.993009,299.347314 C134.607616,304.236203 136,309.085497 136,322.458278 L136,670.541722 C136,683.914503 134.607616,688.763797 131.993009,693.652686 C129.378403,698.541574 125.541574,702.378403 120.652686,704.993009 C115.763797,707.607616 110.914503,709 97.541722,709 L38.458278,709 C25.0854969,709 20.2362033,707.607616 15.3473144,704.993009 C10.4584256,702.378403 6.62159695,698.541574 4.00699056,693.652686 C1.43140814,688.836765 0.041835977,684.059267 0.000929964975,671.134835 L4.14336123e-15,322.458278 C2.50566787e-15,309.085497 1.39238417,304.236203 4.00699056,299.347314 C6.62159695,294.458426 10.4584256,290.621597 15.3473144,288.006991 C20.1632348,285.431408 24.940733,284.041836 37.8651645,284.00093 L97.541722,284 C110.914503,284 115.763797,285.392384 120.652686,288.006991 Z M409.652686,4.00699056 C414.541574,6.62159695 418.378403,10.4584256 420.993009,15.3473144 C423.607616,20.2362033 425,25.0854969 425,38.458278 L425,101.541722 C425,114.914503 423.607616,119.763797 420.993009,124.652686 C418.378403,129.541574 414.541574,133.378403 409.652686,135.993009 C404.763797,138.607616 399.914503,140 386.541722,140 L38.458278,140 C25.0854969,140 20.2362033,138.607616 15.3473144,135.993009 C10.4584256,133.378403 6.62159695,129.541574 4.00699056,124.652686 C1.43140814,119.836765 0.041835977,115.059267 0.000929964975,102.134835 L4.14336123e-15,38.458278 C2.50566787e-15,25.0854969 1.39238417,20.2362033 4.00699056,15.3473144 C6.62159695,10.4584256 10.4584256,6.62159695 15.3473144,4.00699056 C20.1632348,1.43140814 24.940733,0.041835977 37.8651645,0.000929964975 L386.541722,6.21504185e-15 C399.914503,3.75850181e-15 404.763797,1.39238417 409.652686,4.00699056 Z" id="Shape"></path>
        </g>
    </g>
</svg>