<svg width="993" height="709" xmlns="http://www.w3.org/2000/svg"><path d="M299 284h111c8.284 0 15 6.716 15 15v248.478c0 8.284 6.716 15 15 15h108.681c8.284 0 15-6.716 15-15V16c0-8.284 6.716-15 15-15h119.133c8.284 0 15 6.716 15 15v531.478c0 8.284 6.716 15 15 15h109.109c8.284 0 15-6.716 15-15V16c0-8.284 6.716-15 15-15H978c8.284 0 15 6.716 15 15v678c0 8.284-6.716 15-15 15H299c-8.284 0-15-6.716-15-15V299c0-8.284 6.716-15 15-15zm-178 0c8.284 0 15 6.716 15 15v395c0 8.284-6.716 15-15 15H15c-8.284 0-15-6.716-15-15V299c0-8.284 6.716-15 15-15h106zM410 0c8.284 0 15 6.716 15 15v110c0 8.284-6.716 15-15 15H15c-8.284 0-15-6.716-15-15V15C0 6.716 6.716 0 15 0h395z" fill="#272635"/></svg>