<?xml version="1.0" encoding="UTF-8"?>
<svg width="1000px" height="1000px" viewBox="0 0 1000 1000" version="1.1" xmlns="http://www.w3.org/2000/svg" xmlns:xlink="http://www.w3.org/1999/xlink">
    <!-- Generator: Sketch 61 (89581) - https://sketch.com -->
    <title>Shape</title>
    <desc>Created with Sketch.</desc>
    <g id="Page-1" stroke="none" stroke-width="1" fill="none" fill-rule="evenodd">
        <g id="logo" fill="#000000" fill-rule="nonzero">
            <path d="M316.002014,260 L397.995972,260 C414.564514,260 427.995972,273.431458 427.995972,290 L427.995972,850 C427.995972,866.568542 441.427429,880 457.995972,880 L537.654721,880 C554.223264,880 567.654721,866.568542 567.654721,850 L567.654721,31.4104372 C567.654721,14.8418947 581.086179,1.41043724 597.654721,1.41043724 L687.838872,1.41043724 C704.407415,1.41043724 717.838872,14.8418947 717.838872,31.4104372 L717.838872,850 C717.838872,866.568542 731.27033,880 747.838872,880 L827.928346,880 C844.496888,880 857.928346,866.568542 857.928346,850 L857.928346,31.4104372 C857.928346,14.8418947 871.359803,1.41043724 887.928346,1.41043724 L970,1.41043724 C986.568542,1.41043724 1000,14.8418947 1000,31.4104372 L1000,970 C1000,986.568542 986.568542,1000 970,1000 L316.002014,1000 C299.433472,1000 286.002014,986.568542 286.002014,970 L286.002014,290 C286.002014,273.431458 299.433472,260 316.002014,260 Z M109.876451,260 C126.444994,260 139.876451,273.431458 139.876451,290 L139.876198,290.123294 L139.876198,290.123294 L137.116209,961.677922 C137.061379,975.019146 135.657456,979.851947 133.035713,984.722566 C130.41397,989.593185 126.578882,993.412544 121.697529,996.014248 C116.816176,998.615951 111.977646,1000 98.6363096,1000 L38.458278,1000 C25.0854969,1000 20.2362033,998.607616 15.3473144,995.993009 C10.4584256,993.378403 6.62159695,989.541574 4.00699056,984.652686 C1.43140814,979.836765 0.041835977,975.059267 0.000929964975,962.134835 L-2.10744845e-14,298.458278 C-2.27121779e-14,285.085497 1.39238417,280.236203 4.00699056,275.347314 C6.62159695,270.458426 10.4584256,266.621597 15.3473144,264.006991 C20.1632348,261.431408 24.940733,260.041836 37.8651645,260.00093 L109.876451,260 Z M412.648657,4.00699056 C417.537546,6.62159695 421.374375,10.4584256 423.988981,15.3473144 C426.564564,20.1632348 427.954136,24.940733 427.995042,37.8651645 L427.995972,101.541722 C427.995972,114.914503 426.603588,119.763797 423.988981,124.652686 C421.374375,129.541574 417.537546,133.378403 412.648657,135.993009 C407.759768,138.607616 402.910475,140 389.537694,140 L38.458278,140 C25.0854969,140 20.2362033,138.607616 15.3473144,135.993009 C10.4584256,133.378403 6.62159695,129.541574 4.00699056,124.652686 C1.43140814,119.836765 0.041835977,115.059267 0.000929964975,102.134835 L9.16089316e-15,38.458278 C4.65573803e-15,25.0854969 1.39238417,20.2362033 4.00699056,15.3473144 C6.62159695,10.4584256 10.4584256,6.62159695 15.3473144,4.00699056 C20.1632348,1.43140814 24.940733,0.041835977 37.8651645,0.000929964974 L389.537694,-1.74797637e-13 C402.910475,-1.56366808e-13 407.759768,1.39238417 412.648657,4.00699056 Z" id="Shape"></path>
        </g>
    </g>
</svg>