<svg width="342" height="175" xmlns="http://www.w3.org/2000/svg"><g fill="none" fill-rule="evenodd"><g fill="#335d71"><path d="M86.423 104v-.719c4.141-.192 7.61-1.928 10.407-3.47 2.793-1.54 4.672-3.322 5.636-5.344.578-1.25 1.012-2.817 1.301-4.694.29-1.878.481-3.78.579-5.706a603.33 603.33 0 00.289-18.2V7.078c-3.18 7.127-6.096 13.674-8.745 19.644A1656.186 1656.186 0 0188.013 44.2a2147.24 2147.24 0 00-7.878 17.406c-2.651 5.922-5.565 12.447-8.744 19.572-.484.964-1.157 2.48-2.024 4.55a439.172 439.172 0 00-2.602 6.355 238.441 238.441 0 01-2.456 5.923c-.774 1.783-1.254 2.96-1.446 3.538h-.867c-3.085-7.125-6.143-14.203-9.179-21.232a2047.06 2047.06 0 00-8.89-20.295c-2.89-6.5-5.589-12.59-8.093-18.273a1294.11 1294.11 0 00-6.794-15.166 714.195 714.195 0 01-4.986-11.122 541.99 541.99 0 00-2.675-6.068c0 6.356-.024 11.967-.072 16.829-.05 4.863-.097 9.678-.144 14.444-.05 4.766-.073 9.8-.073 15.094v16.749c0 4.527.145 8.45.434 11.773.29 3.322 1.012 6.986 2.168 9.247 1.157 2.264 2.913 4.915 5.277 6.215 2.36 1.3 5.611 3.109 9.755 3.686V104H1v-.575c3.372-.672 6.118-2.53 8.239-3.831 2.118-1.3 3.805-3.975 5.058-6.286 1.252-2.312 2.168-6.046 2.747-9.465.578-3.417.915-5.843 1.012-10.755.191-4.139.335-9.027.433-14.66.094-5.633.145-11.675.145-18.128V22.1c0-1.925-.05-4.284-.145-7.078-.098-2.694-.675-4.886-1.734-6.572-1.062-1.684-2.36-2.943-3.759-3.972C10.284 2.482 5.336 1.045 4.18.85V0h30.788l34.545 78.578a2232.472 2232.472 0 0012.43-27.3 5382.698 5382.698 0 0010.912-24.556 1636.488 1636.488 0 007.95-18.272c2.071-4.861 3.252-7.678 3.542-8.45h30.787v.822C131.181.92 128.17 2.361 126.1 3.9c-2.073 1.541-3.494 3.372-4.265 5.488-.577 1.64-.964 4.19-1.156 7.656a371.376 371.376 0 00-.433 10.255 641.82 641.82 0 00-.145 13.434v28.745c0 5.105.048 10.497.145 16.177 0 1.831.12 3.684.36 5.562.24 1.877.652 3.346 1.23 4.405.095.194 1.124 1.746 1.751 2.468.626.722 3.102 2.828 5.66 3.743 2.246.804 4.441 1.498 6.754 1.592V104H86.423m120.199-70.086c-1.586-4.846-3.701-9.12-6.343-12.816a44.13 44.13 0 00-9.297-9.576 54.301 54.301 0 00-11.388-6.624c-3.077-1.343-7.547-2.595-9.37-3.024-1.623-.382-3.718-.711-6.885-1.047-3.992-.422-8.103-.565-11.274-.565C150.52.262 145.513 0 139.61 0H137v.868s.589-.028 1.894-.028c2.062 0 4.502.233 5.651.332 3.175.27 5.015.521 7.837 1.128 7.596 1.632 13.907 4.083 18.136 7.057 4.228 2.977 7.876 6.604 10.953 10.874 3.074 4.273 5.476 9.051 7.206 14.33a51.944 51.944 0 012.594 16.272c0 12.577-2.572 23.161-7.712 31.751-5.143 8.594-11.266 13.74-21.36 17.572-2.713 1.03-7.125 1.608-9.66 1.932-3.15.403-6.844.988-10.318 1.123-1.027.04-3.312.104-3.312.104v.51l10.785.175c7.381 0 10.422-.631 14.76-1.196 4.709-.613 7.542-1.488 11.963-3.026 4.42-1.534 8.602-3.664 12.544-6.256 3.939-2.592 7.4-5.887 10.38-9.825 2.977-3.934 5.334-8.656 7.064-14.127 1.73-5.473 2.595-11.817 2.595-19.017 0-6.239-.792-11.79-2.378-16.64"/><path d="M292.423 104v-.719c4.141-.192 7.61-1.928 10.407-3.47 2.793-1.54 4.672-3.322 5.636-5.344.579-1.25 1.012-2.817 1.301-4.694.29-1.878.481-3.78.579-5.706a603.33 603.33 0 00.289-18.2V7.078c-3.18 7.127-6.096 13.674-8.745 19.644a1656.174 1656.174 0 01-7.877 17.478 2147.23 2147.23 0 00-7.878 17.406c-2.651 5.922-5.565 12.447-8.744 19.572-.484.964-1.157 2.48-2.024 4.55a439.171 439.171 0 00-2.602 6.355 238.443 238.443 0 01-2.456 5.923c-.774 1.783-1.254 2.96-1.446 3.538h-.867c-3.085-7.125-6.143-14.203-9.179-21.232a2047.079 2047.079 0 00-8.89-20.295c-2.89-6.5-5.589-12.59-8.093-18.273-2.507-5.68-4.77-10.736-6.794-15.166a714.192 714.192 0 01-4.986-11.122 542.016 542.016 0 00-2.675-6.068c0 6.356-.024 11.967-.072 16.829-.05 4.863-.097 9.678-.144 14.444-.05 4.766-.073 9.8-.073 15.094v16.749c0 4.527.145 8.45.434 11.773.29 3.322 1.012 6.986 2.168 9.247 1.157 2.264 2.913 4.915 5.277 6.215 2.36 1.3 5.611 3.109 9.755 3.686V104H207v-.575c3.372-.672 6.118-2.53 8.239-3.831 2.118-1.3 3.805-3.975 5.058-6.286 1.252-2.312 2.168-6.046 2.747-9.465.578-3.417.915-5.843 1.012-10.755.191-4.139.335-9.027.433-14.66.094-5.633.145-11.675.145-18.128V22.1c0-1.925-.05-4.284-.145-7.078-.098-2.694-.675-4.886-1.734-6.572-1.062-1.684-2.467-3.106-3.746-4.282-1.36-1.25-3.299-2.301-4.935-2.734-1.64-.434-2.738-.666-3.895-.86V0h30.788l34.545 78.578a2232.45 2232.45 0 0012.43-27.3 5508.84 5508.84 0 0010.912-24.556 1664.93 1664.93 0 007.95-18.272c2.071-4.861 3.252-7.678 3.542-8.45h30.787v1.014c-3.953.098-6.964 1.347-9.034 2.886-2.073 1.541-3.494 3.372-4.265 5.488-.577 1.64-.964 4.19-1.156 7.656a372.885 372.885 0 00-.433 10.255 641.82 641.82 0 00-.145 13.434v28.745c0 5.105.048 10.497.145 16.177 0 1.831.12 3.684.36 5.562.24 1.877.652 3.346 1.23 4.405.095.194 1.124 1.746 1.751 2.468.626.722 3.102 2.828 5.66 3.743 2.246.804 4.441 1.498 6.754 1.592V104h-49.577M2.346 135.907c0-.299.07-.69.598-2.254h.828c0 2.898 1.818 3.634 3.336 3.634 1.38 0 2.737-.644 2.737-2.254 0-3.818-7.154-3.726-7.154-8.487 0-2.369 1.748-4.163 5.245-4.163 1.518 0 3.104.322 3.932.437l-.736 3.68h-.827c.138-1.725-.644-3.128-2.6-3.128-1.54 0-2.714.759-2.714 2.231 0 3.841 7.154 3.45 7.154 8.464 0 2.852-2.37 4.209-5.221 4.209-2.025 0-4.555-.667-4.578-2.369zm11.546-2.898c0-3.151 2.162-5.681 5.037-5.681 2.024 0 3.956 1.265 4.048 3.933 0 0-.805.299-1.265.368l-5.359.782-.207.276c.161 1.955 1.173 3.818 3.657 3.818 1.771 0 2.875-1.035 2.875-1.035l.253.575s-1.219 2.231-4.025 2.231c-3.312 0-5.014-2.553-5.014-5.267zm4.623-4.715c-1.403 0-2.23 1.472-2.369 3.197l4.37-.575s-.138-2.622-2-2.622zm5.773 7.544c0-2.254 2.714-3.381 5.083-3.749l.782-.115c.023-.621.023-1.84-.092-2.438-.16-.759-.552-1.311-1.288-1.311-1.449 0-2.346 2.323-2.346 2.323h-.874l-.437-1.863s1.771-1.357 4.531-1.357c2.277 0 2.852.897 2.852 3.289v5.244c0 .713.092 1.081.598 1.081.553 0 1.15-.437 1.15-.437l.322.552s-1.104 1.219-2.622 1.219c-.988 0-1.724-.529-1.724-1.587v-.483s-1.197 2.07-3.427 2.07c-1.45 0-2.508-.989-2.508-2.438zm3.657.897c.76 0 1.68-.644 2.208-1.081v-2.783l-.667.115c-1.265.207-2.76.874-2.76 2.369 0 .828.483 1.38 1.22 1.38zm7.383 1.334v-.713c.99-.115 1.38-.667 1.38-1.495v-5.52c0-.966-.023-1.541-.69-1.541h-.989v-.667c2.461-.46 4.117-1.127 4.117-1.127l.07.069s-.208.644-.277 2.875c.391-.736 1.702-2.622 3.174-2.622.713 0 1.311.46 1.311 1.196 0 .713-.506 1.265-1.242 1.265-.62 0-.713-.414-1.265-.414-.759 0-1.587.759-1.863 1.081v5.405c0 .69-.115 1.242-.115 1.242l2.14.207-.093.621-5.658.138zm8.947-5.037c0-2.76 1.817-5.704 5.175-5.704 1.38 0 3.657.506 3.657 1.794 0 .483-.368.943-.989.943-1.219 0-1.288-1.863-2.898-1.863-1.725 0-2.69 1.886-2.69 4.025 0 2.277 1.103 4.278 3.68 4.278 1.655 0 2.69-.874 2.69-.874l.253.552s-1.127 2.093-3.933 2.093c-3.22 0-4.945-2.576-4.945-5.244zm10.051 5.037v-.713c1.012-.115 1.38-.667 1.38-1.495v-11.638c0-.966-.023-1.541-.69-1.541h-.92v-.667c3.105-.644 4.117-1.104 4.117-1.104l.07.069s-.23.851-.23 2.622v4.255c0 1.104-.093 1.656-.093 1.863.828-1.127 2.323-2.392 4.232-2.392 1.587 0 2.668.874 2.668 3.105v5.428c0 .69-.114 1.219-.114 1.219l1.908.23-.092.621-5.244.138v-.713c.874-.115 1.196-.667 1.196-1.495V131.1c0-1.679-.552-2.093-1.449-2.093-.943 0-2.139.483-3.013 1.242v5.612c0 .69-.115 1.242-.115 1.242l1.68.207-.093.621-5.198.138zm13.317 0v-.713c.99-.115 1.38-.667 1.38-1.495v-5.543c0-.966-.023-1.541-.69-1.541h-.989v-.667c3.082-.621 4.21-1.104 4.21-1.104l.045.069s-.23.759-.23 2.622v6.164c0 .69-.115 1.242-.115 1.242l1.91.207-.093.621-5.428.138zm2.346-12.949c-.805 0-1.449-.598-1.449-1.403 0-.782.644-1.403 1.45-1.403.804 0 1.448.621 1.448 1.403 0 .805-.644 1.403-1.449 1.403zm4.278 12.949v-.713c.99-.115 1.38-.667 1.38-1.495v-5.543c0-.966-.023-1.541-.69-1.541h-.989v-.667c2.461-.437 4.094-1.104 4.094-1.104l.07.069s-.208.644-.254 2.691c.805-1.15 2.323-2.438 4.232-2.438 1.587 0 2.691.874 2.691 3.105v5.428c0 .69-.115 1.219-.115 1.219l1.886.23-.092.621-5.22.138v-.713c.92-.115 1.195-.667 1.195-1.495V131.1c0-1.679-.552-2.093-1.472-2.093-.92 0-2.116.46-2.99 1.265v5.589c0 .69-.115 1.219-.115 1.219l1.68.23-.093.621-5.198.138zm13.846-1.702c0-1.081 1.518-1.587 2.346-1.955-1.61-.437-2.875-1.564-2.875-3.404 0-2.392 2.116-3.68 4.462-3.68 1.38 0 1.955.46 3.151.46h1.104c.736 0 1.518-.299 1.518-.299l-.207 1.61h-1.104c-.414 0-.713-.046-.782-.046.07.069.851.759.851 2.093 0 2.162-2.162 3.45-4.53 3.45a6.05 6.05 0 01-1.128-.092c-.16.184-.46.575-.46.874 0 .621 1.357.782 2.967 1.104 1.978.391 4.186 1.012 4.186 2.967 0 2.323-3.105 4.002-5.91 4.002-2.048 0-4.486-.874-4.486-2.76 0-1.587 1.725-2.277 2.898-2.714-1.127-.322-2-.759-2-1.61zm4.301 2.093c-.598-.138-1.196-.253-1.77-.368-.484.368-1.312 1.15-1.312 2.254 0 1.38 1.334 2.139 2.783 2.139 1.518 0 3.312-.828 3.312-2.139 0-1.127-1.31-1.518-3.013-1.886zm-.322-4.761c1.518 0 2.093-1.219 2.093-2.553 0-1.403-.667-2.921-2.185-2.921-1.472 0-2.047 1.334-2.047 2.737s.598 2.737 2.14 2.737zm11.776 4.37v-.713c.99-.115 1.38-.667 1.38-1.495v-6.969h-1.426v-.805l1.426-.506v-.667c0-3.404 1.978-5.75 4.9-5.75 1.195 0 2.713.437 2.713 1.472 0 .552-.437 1.012-1.08 1.012-.944 0-1.61-1.357-2.623-1.357-1.104 0-1.564 1.127-1.564 4.048v1.265h3.128l-.207 1.219h-2.668l-.253.253v6.785c0 .69-.115 1.242-.115 1.242l2.415.207-.092.621-5.934.138zm7.682-5.037c0-2.714 1.587-5.704 5.566-5.704 3.404 0 5.29 2.162 5.29 5.06 0 2.875-1.84 5.888-5.612 5.888-3.289 0-5.244-2.254-5.244-5.244zm2.576-.575c0 2.277.874 4.945 2.99 4.945 1.955 0 2.714-2.346 2.714-4.462-.023-2.185-.85-4.738-2.967-4.738-1.909 0-2.737 2.093-2.737 4.255zm9.844 5.612v-.713c.99-.115 1.38-.667 1.38-1.495v-5.52c0-.966-.023-1.541-.69-1.541h-.989v-.667c2.461-.46 4.117-1.127 4.117-1.127l.07.069s-.208.644-.277 2.875c.391-.736 1.702-2.622 3.174-2.622.713 0 1.311.46 1.311 1.196 0 .713-.506 1.265-1.242 1.265-.62 0-.713-.414-1.265-.414-.759 0-1.587.759-1.863 1.081v5.405c0 .69-.115 1.242-.115 1.242l2.14.207-.093.621-5.658.138zm15.203-2.806v-4.876c0-.667.07-1.495.07-1.495h-1.495v-.805s1.035-.207 1.587-.713l.85-2.553 1.45.046.069.069s-.208.598-.208 2.277v.391h3.45l-.16 1.219h-3.013l-.254.253v5.52c0 1.334.322 2.093 1.541 2.093 1.012 0 2.024-.506 2.024-.506l.322.506s-1.403 1.587-3.565 1.587c-1.656 0-2.668-.897-2.668-3.013zm6.877 2.806v-.713c1.012-.115 1.38-.667 1.38-1.495v-11.638c0-.966-.023-1.541-.69-1.541h-.92v-.667c3.106-.644 4.118-1.104 4.118-1.104l.069.069s-.23.851-.23 2.622v4.255c0 1.104-.092 1.656-.092 1.863.827-1.127 2.322-2.392 4.232-2.392 1.587 0 2.667.874 2.667 3.105v5.428c0 .69-.114 1.219-.114 1.219l1.909.23-.093.621-5.244.138v-.713c.875-.115 1.196-.667 1.196-1.495V131.1c0-1.679-.552-2.093-1.448-2.093-.944 0-2.14.483-3.013 1.242v5.612c0 .69-.115 1.242-.115 1.242l1.678.207-.091.621-5.198.138zm13.271-5.06c0-3.151 2.162-5.681 5.037-5.681 2.024 0 3.957 1.265 4.048 3.933 0 0-.805.299-1.264.368l-5.36.782-.207.276c.162 1.955 1.174 3.818 3.657 3.818 1.772 0 2.875-1.035 2.875-1.035l.254.575s-1.22 2.231-4.025 2.231c-3.313 0-5.015-2.553-5.015-5.267zm4.624-4.715c-1.403 0-2.231 1.472-2.37 3.197l4.37-.575s-.137-2.622-2-2.622zm11.477 9.775v-.782c.989-.115 1.587-.667 1.587-1.495v-10.833c0-1.104-.115-1.334-1.817-1.679v-.621h9.567c.944 0 1.703-.092 1.703-.092l-.713 3.933h-.828c.115-2.369-.644-2.806-2.484-2.806h-2.692l-.252.253v5.842h4.001l.185-1.311.897-.138v4.186h-1.127v-1.702h-3.704l-.252.253v4.715c0 .69-.115 1.242-.115 1.242l2.53.207-.093.69-6.393.138zm12.052 0v-.713c.989-.115 1.38-.667 1.38-1.495v-5.543c0-.966-.024-1.541-.69-1.541h-.99v-.667c3.082-.621 4.21-1.104 4.21-1.104l.046.069s-.23.759-.23 2.622v6.164c0 .69-.115 1.242-.115 1.242l1.909.207-.093.621-5.428.138zm2.346-12.949c-.805 0-1.45-.598-1.45-1.403 0-.782.644-1.403 1.45-1.403.805 0 1.448.621 1.448 1.403 0 .805-.643 1.403-1.448 1.403zm4.278 12.949v-.713c.988-.115 1.38-.667 1.38-1.495v-5.543c0-.966-.024-1.541-.69-1.541h-.99v-.667c2.462-.437 4.095-1.104 4.095-1.104l.069.069s-.207.644-.254 2.691c.805-1.15 2.323-2.438 4.232-2.438 1.588 0 2.691.874 2.691 3.105v5.428c0 .69-.114 1.219-.114 1.219l1.886.23-.093.621-5.22.138v-.713c.92-.115 1.196-.667 1.196-1.495V131.1c0-1.679-.553-2.093-1.472-2.093-.92 0-2.117.46-2.99 1.265v5.589a6.31 6.31 0 01-.116 1.219l1.68.23-.093.621-5.197.138zm13.247-5.06c0-3.151 2.162-5.681 5.037-5.681 2.024 0 3.957 1.265 4.048 3.933 0 0-.805.299-1.264.368l-5.36.782-.207.276c.162 1.955 1.174 3.818 3.657 3.818 1.772 0 2.875-1.035 2.875-1.035l.254.575s-1.22 2.231-4.025 2.231c-3.313 0-5.015-2.553-5.015-5.267zm4.624-4.715c-1.404 0-2.231 1.472-2.37 3.197l4.37-.575s-.137-2.622-2-2.622zm6.002 8.395c0-.506.345-1.817.345-1.817h.737c.137 1.955 1.495 2.553 2.553 2.553 1.012 0 1.702-.552 1.702-1.449 0-2.369-5.083-2.139-5.083-5.589 0-1.863 1.448-3.059 3.817-3.059 1.357 0 2.99.414 2.99.414l-.483 2.484h-.736c-.045-1.84-1.425-2.047-1.977-2.047-1.082 0-1.565.644-1.565 1.38 0 2.392 5.06 1.909 5.06 5.543 0 2.07-1.632 3.174-3.84 3.174-1.197 0-3.52-.322-3.52-1.587zM228 135.263v-4.876c0-.667.069-1.495.069-1.495h-1.495v-.805s1.034-.207 1.587-.713l.85-2.553 1.45.046.069.069s-.208.598-.208 2.277v.391h3.45l-.16 1.219h-3.013l-.254.253v5.52c0 1.334.322 2.093 1.542 2.093 1.012 0 2.024-.506 2.024-.506l.321.506s-1.403 1.587-3.565 1.587c-1.655 0-2.667-.897-2.667-3.013zm12.19 2.806v-.713c.989-.115 1.38-.667 1.38-1.495v-5.543c0-.966-.023-1.541-.69-1.541h-.99v-.667c3.083-.621 4.21-1.104 4.21-1.104l.046.069s-.23.759-.23 2.622v6.164c0 .69-.115 1.242-.115 1.242l1.909.207-.093.621-5.427.138zm2.346-12.949c-.805 0-1.45-.598-1.45-1.403 0-.782.644-1.403 1.45-1.403.804 0 1.448.621 1.448 1.403 0 .805-.644 1.403-1.448 1.403zm4.278 12.949v-.713c.989-.115 1.38-.667 1.38-1.495v-5.543c0-.966-.023-1.541-.69-1.541h-.99v-.667c2.462-.437 4.094-1.104 4.094-1.104l.07.069s-.208.644-.254 2.691c.805-1.15 2.323-2.438 4.232-2.438 1.588 0 2.692.874 2.692 3.105v5.428c0 .69-.115 1.219-.115 1.219l1.885.23-.091.621-5.221.138v-.713c.92-.115 1.195-.667 1.195-1.495V131.1c0-1.679-.552-2.093-1.471-2.093-.92 0-2.117.46-2.99 1.265v5.589c0 .69-.115 1.219-.115 1.219l1.678.23-.091.621-5.198.138zm18.744 0v-.782c.99-.115 1.588-.667 1.588-1.495v-10.833c0-1.104-.115-1.334-1.817-1.679v-.621h9.567c.943 0 1.702-.092 1.702-.092l-.713 3.933h-.827c.115-2.369-.644-2.806-2.484-2.806h-2.692l-.252.253v5.842h4.002l.183-1.311.897-.138v4.186h-1.126v-1.702h-3.704l-.252.253v4.715c0 .69-.115 1.242-.115 1.242l2.53.207-.093.69-6.394.138zm12.053 0v-.713c.988-.115 1.38-.667 1.38-1.495v-5.543c0-.966-.024-1.541-.69-1.541h-.99v-.667c3.083-.621 4.21-1.104 4.21-1.104l.046.069s-.23.759-.23 2.622v6.164c0 .69-.115 1.242-.115 1.242l1.909.207-.092.621-5.428.138zm2.346-12.949c-.805 0-1.45-.598-1.45-1.403 0-.782.644-1.403 1.45-1.403.805 0 1.449.621 1.449 1.403 0 .805-.644 1.403-1.45 1.403zm4.278 12.949v-.713c.988-.115 1.38-.667 1.38-1.495v-5.543c0-.966-.024-1.541-.69-1.541h-.99v-.667c2.462-.437 4.094-1.104 4.094-1.104l.07.069s-.207.644-.253 2.691c.805-1.15 2.322-2.438 4.231-2.438 1.587 0 2.692.874 2.692 3.105v5.428c0 .69-.115 1.219-.115 1.219l1.885.23-.091.621-5.221.138v-.713c.92-.115 1.196-.667 1.196-1.495V131.1c0-1.679-.553-2.093-1.473-2.093s-2.115.46-2.99 1.265v5.589c0 .69-.114 1.219-.114 1.219l1.678.23-.091.621-5.198.138zm13.04-2.231c0-2.254 2.715-3.381 5.084-3.749l.781-.115c.024-.621.024-1.84-.091-2.438-.161-.759-.552-1.311-1.288-1.311-1.45 0-2.347 2.323-2.347 2.323h-.873l-.438-1.863s1.772-1.357 4.531-1.357c2.277 0 2.852.897 2.852 3.289v5.244c0 .713.093 1.081.599 1.081.552 0 1.15-.437 1.15-.437l.322.552s-1.105 1.219-2.623 1.219c-.989 0-1.725-.529-1.725-1.587v-.483s-1.195 2.07-3.426 2.07c-1.45 0-2.507-.989-2.507-2.438zm3.658.897c.759 0 1.678-.644 2.207-1.081v-2.783l-.666.115c-1.265.207-2.76.874-2.76 2.369 0 .828.483 1.38 1.219 1.38zm7.382 1.334v-.713c.99-.115 1.38-.667 1.38-1.495v-5.543c0-.966-.022-1.541-.69-1.541h-.988v-.667c2.46-.437 4.094-1.104 4.094-1.104l.069.069s-.207.644-.254 2.691c.805-1.15 2.324-2.438 4.233-2.438 1.587 0 2.69.874 2.69 3.105v5.428c0 .69-.114 1.219-.114 1.219l1.885.23-.091.621-5.221.138v-.713c.92-.115 1.195-.667 1.195-1.495V131.1c0-1.679-.551-2.093-1.471-2.093s-2.116.46-2.99 1.265v5.589c0 .69-.115 1.219-.115 1.219l1.678.23-.091.621-5.199.138zm13.248-5.037c0-2.76 1.817-5.704 5.175-5.704 1.38 0 3.658.506 3.658 1.794 0 .483-.369.943-.99.943-1.219 0-1.288-1.863-2.897-1.863-1.726 0-2.692 1.886-2.692 4.025 0 2.277 1.104 4.278 3.68 4.278 1.656 0 2.691-.874 2.691-.874l.254.552s-1.127 2.093-3.933 2.093c-3.22 0-4.946-2.576-4.946-5.244zm10.213-.023c0-3.151 2.161-5.681 5.036-5.681 2.024 0 3.957 1.265 4.048 3.933 0 0-.805.299-1.264.368l-5.36.782-.207.276c.161 1.955 1.173 3.818 3.658 3.818 1.77 0 2.875-1.035 2.875-1.035l.252.575s-1.219 2.231-4.025 2.231c-3.311 0-5.013-2.553-5.013-5.267zm4.623-4.715c-1.404 0-2.231 1.472-2.37 3.197l4.37-.575s-.137-2.622-2-2.622z"/></g><path d="M55.748 171.192c-3.072 0-5.488-2.24-5.488-5.52 0-3.28 2.416-5.52 5.488-5.52 1.888 0 3.2.912 4.048 2.112l-1.12.624a3.6 3.6 0 00-2.928-1.552c-2.336 0-4.112 1.792-4.112 4.336 0 2.528 1.776 4.336 4.112 4.336a3.56 3.56 0 002.928-1.552l1.136.624c-.896 1.216-2.176 2.112-4.064 2.112zM71 171h-6.992v-10.672H71v1.184h-5.664v3.44h5.552v1.184h-5.552v3.68H71V171zm10.9 0h-6.288v-10.672h1.328v9.488h4.96V171zm11.364 0h-6.992v-10.672h6.992v1.184H87.6v3.44h5.552v1.184H87.6v3.68h5.664V171zm9.476 0h-4.864v-10.672h4.752c1.856 0 2.992 1.12 2.992 2.72 0 1.344-.896 2.24-1.872 2.448 1.136.176 2.08 1.344 2.08 2.624 0 1.712-1.136 2.88-3.088 2.88zm-.336-6.048c1.2 0 1.84-.736 1.84-1.712 0-.96-.64-1.728-1.84-1.728h-3.2v3.44h3.2zm.064 4.864c1.248 0 1.984-.704 1.984-1.84 0-.976-.672-1.84-1.984-1.84h-3.264v3.68h3.264zM118.184 171h-1.568l-2.72-4.24h-2.128V171h-1.328v-10.672h4.288c1.952 0 3.344 1.248 3.344 3.216 0 1.92-1.312 2.976-2.768 3.104l2.88 4.352zm-3.616-5.408c1.264 0 2.128-.848 2.128-2.048 0-1.2-.864-2.032-2.128-2.032h-2.8v4.08h2.8zM131.804 171h-1.52l-.944-2.368h-5.312l-.944 2.368h-1.52l4.288-10.672h1.648L131.804 171zm-2.864-3.552l-2.256-5.744-2.272 5.744h4.528zm9.652 3.552h-1.328v-9.488h-3.376v-1.184h8.096v1.184h-3.392V171zm8.98 0h-1.328v-10.672h1.328V171zm13.828 0h-1.28l-6.224-8.512V171h-1.328v-10.672h1.36l6.144 8.336v-8.336h1.328V171zm10.052.208c-3.04 0-5.488-2.224-5.488-5.536 0-3.312 2.448-5.52 5.488-5.52 1.888 0 3.2.832 4.144 2l-1.056.656c-.672-.864-1.808-1.472-3.088-1.472-2.336 0-4.112 1.792-4.112 4.336 0 2.528 1.776 4.352 4.112 4.352 1.28 0 2.336-.624 2.864-1.152v-2.176h-3.664v-1.184h4.992v3.856c-.992 1.104-2.448 1.84-4.192 1.84zm58.352-.208h-1.328v-4.512l-4.208-6.16h1.552l3.312 4.96 3.312-4.96h1.552l-4.192 6.16V171zm15.076 0h-6.992v-10.672h6.992v1.184h-5.664v3.44h5.552v1.184h-5.552v3.68h5.664V171zm13.748 0h-1.52l-.944-2.368h-5.312l-.944 2.368h-1.52l4.288-10.672h1.648L258.628 171zm-2.864-3.552l-2.256-5.744-2.272 5.744h4.528zm14.5 3.552h-1.568l-2.72-4.24h-2.128V171h-1.328v-10.672h4.288c1.952 0 3.344 1.248 3.344 3.216 0 1.92-1.312 2.976-2.768 3.104l2.88 4.352zm-3.616-5.408c1.264 0 2.128-.848 2.128-2.048 0-1.2-.864-2.032-2.128-2.032h-2.8v4.08h2.8zm11.556 5.6c-1.856 0-3.216-.704-4.096-1.696l.784-1.008c.704.784 1.856 1.52 3.36 1.52 1.904 0 2.512-1.024 2.512-1.84 0-2.752-6.32-1.232-6.32-5.04 0-1.76 1.568-2.96 3.664-2.96 1.632 0 2.896.544 3.792 1.488l-.8.976c-.8-.88-1.92-1.28-3.088-1.28-1.28 0-2.192.688-2.192 1.696 0 2.4 6.32 1.024 6.32 5.008 0 1.552-1.056 3.136-3.936 3.136zM198.194 174h-11.882v-.364c.676-.572 1.296-1.1 1.859-1.586a45.285 45.285 0 001.586-1.43c.494-.468.966-.945 1.417-1.43.45-.485.91-1.005 1.378-1.56 1.11-1.352 1.868-2.66 2.275-3.926.407-1.265.611-2.435.611-3.51 0-1.56-.264-2.739-.793-3.536-.529-.797-1.365-1.196-2.509-1.196-.884 0-1.612.195-2.184.585-.572.39-.858.932-.858 1.625 0 .243.056.49.169.741.113.251.169.507.169.767 0 .295-.104.516-.312.663-.208.147-.45.221-.728.221a1.54 1.54 0 01-.936-.286c-.26-.19-.39-.537-.39-1.04 0-.45.13-.897.39-1.339a3.99 3.99 0 011.066-1.17c.45-.338.988-.611 1.612-.819a6.291 6.291 0 012.002-.312c1.005 0 1.868.147 2.587.442.72.295 1.313.68 1.781 1.157a4.572 4.572 0 011.04 1.625c.225.607.338 1.23.338 1.872 0 .78-.113 1.504-.338 2.171a8.094 8.094 0 01-.923 1.885 12.87 12.87 0 01-1.339 1.69 45.988 45.988 0 01-1.586 1.612c-.78.78-1.547 1.525-2.301 2.236-.754.71-1.582 1.473-2.483 2.288h5.954c1.023 0 1.76-.247 2.21-.741.45-.494.728-1.174.832-2.041h.286V174zm6.602-9.282c0 1.612.048 3.003.143 4.173.095 1.17.269 2.132.52 2.886s.602 1.313 1.053 1.677c.45.364 1.04.546 1.768.546s1.317-.182 1.768-.546c.45-.364.802-.923 1.053-1.677.251-.754.425-1.716.52-2.886.095-1.17.143-2.561.143-4.173s-.048-2.999-.143-4.16c-.095-1.161-.269-2.119-.52-2.873s-.602-1.313-1.053-1.677c-.45-.364-1.04-.546-1.768-.546s-1.317.182-1.768.546c-.45.364-.802.923-1.053 1.677-.251.754-.425 1.712-.52 2.873-.095 1.161-.143 2.548-.143 4.16zm-2.6 0c0-1.04.082-2.128.247-3.263a10.81 10.81 0 01.923-3.12 6.313 6.313 0 011.859-2.327c.789-.607 1.807-.91 3.055-.91 1.248 0 2.266.303 3.055.91a6.313 6.313 0 011.859 2.327c.45.945.758 1.985.923 3.12a22.75 22.75 0 01.247 3.263 22.87 22.87 0 01-.247 3.289 10.803 10.803 0 01-.923 3.12 6.313 6.313 0 01-1.859 2.327c-.789.607-1.807.91-3.055.91-1.248 0-2.266-.303-3.055-.91a6.313 6.313 0 01-1.859-2.327 10.803 10.803 0 01-.923-3.12 22.918 22.918 0 01-.247-3.289z" fill="#335d71F"/><path d="M33 165H1m329 0h-32" stroke="#335d71F" stroke-width="2" stroke-linecap="square"/></g></svg>