<?xml version="1.0" encoding="UTF-8"?>
<svg width="91px" height="66px" viewBox="0 0 91 66" version="1.1" xmlns="http://www.w3.org/2000/svg" xmlns:xlink="http://www.w3.org/1999/xlink">
    <!-- Generator: Sketch 63.1 (92452) - https://sketch.com -->
    <title>23</title>
    <desc>Created with Sketch.</desc>
    <g id="Page-1" stroke="none" stroke-width="1" fill="none" fill-rule="evenodd" opacity="0.5">
        <g id="Sticker-Sheet" transform="translate(-1020.000000, -789.000000)" fill="#000000">
            <g id="23" transform="translate(1020.000000, 789.000000)">
                <path d="M16.9430246,55.6004389 C16.3113678,56.0991371 15.757995,56.6508531 15.2837347,57.3231016 C14.9420187,57.8085454 14.4603027,58.2260602 13.9106578,58.5752318 C13.3071666,58.9579537 12.8536163,59.5821548 12.2281725,59.9822732 C11.8417228,60.2291371 11.5758057,60.8309714 10.9756282,60.3645809 C10.7063974,60.5170069 10.4371666,60.669433 10.0987643,60.8612081 C9.89042107,60.607717 9.68580568,60.3641667 9.48947432,60.1152318 C9.44764,60.062214 9.41657491,59.930498 9.40829089,59.9329833 C8.73065775,60.1255868 8.35663409,59.3191371 7.68397136,59.4255868 C7.31823172,59.483575 6.76030272,59.0826282 6.80089444,58.781504 C6.88290627,58.1730424 6.47657491,57.9108531 6.13113113,57.5538117 C5.99734414,56.7962377 6.20030272,56.0962377 6.5424329,55.4024507 C6.88000687,54.7173619 7.09829089,53.9697288 7.46527314,53.3028649 C8.20959267,51.9492554 9.01314296,50.6287821 9.80261042,49.3004389 C10.6173441,47.929433 11.487995,46.5977762 12.4120779,45.2955276 C13.2553915,44.106356 14.0684684,42.8948176 14.9101252,41.7031608 C15.4229063,40.9770661 15.9236755,40.241859 16.4240305,39.5066519 C16.445569,39.4751726 16.4058057,39.4031016 16.369356,39.2324507 C16.1129654,39.4395513 15.9162199,39.7207939 15.6801252,39.7584862 C15.3698885,39.8086046 15.1130838,39.7949359 15.0774625,40.182214 C14.5464566,40.0053501 14.4677583,40.8325099 13.9516637,40.6891963 C13.8062791,41.01393 13.4877583,41.2326282 13.2189418,41.3191963 C12.9033205,41.421504 12.6295335,41.4198472 12.5189418,41.8125099 C12.4878767,41.9235158 12.1871666,42.0697288 12.0740897,42.0274803 C11.5795335,41.8423324 11.5894743,42.4826874 11.2576992,42.4897288 C10.8563382,42.4980128 10.6426104,42.6694921 10.6107169,43.0679537 C10.0962791,43.1681904 9.80302462,43.6146992 9.37971101,43.8628057 C9.01479977,44.0761193 8.59521397,44.316356 8.40095361,44.6589004 C8.27669326,44.8788412 8.17769917,44.9579537 7.97846841,45.0250543 C7.32858675,45.2449951 6.89988852,45.7991963 6.31420805,46.1326282 C5.72355716,46.4685454 5.23231456,46.9775986 4.69136781,47.4038117 C4.01166367,47.939788 3.32864592,48.4720365 2.64272876,49.0005572 C2.23101278,49.3178353 1.77829089,49.1608531 1.41959267,48.9649359 C1.14746249,48.8162377 0.983853021,48.561504 0.633024618,48.8033975 C0.586219884,48.8352909 0.357995032,48.6054093 0.141782015,48.4417998 C0.344740594,48.3005572 0.5216045,48.1779537 0.699296807,48.0549359 C0.669888523,48.0052318 0.640894441,47.9551134 0.611071955,47.9054093 C0.436693257,47.9696105 0.26272876,48.0338117 0.0630837897,48.1071253 C0.0473441448,48.0416815 -0.0222416541,47.9244625 0.00716662997,47.8428649 C0.0779950323,47.6477762 0.159178464,47.4348767 0.299592665,47.2903205 C1.08616071,46.4797288 1.85408971,45.6459418 2.69781752,44.8983087 C4.11769917,43.6399655 5.56533231,42.4089596 7.04900095,41.2264152 C8.06379385,40.4170661 9.10012521,39.6300838 10.1339714,38.8464152 C11.0642672,38.1410306 12.0359832,37.4667111 12.9849181,36.7845217 C14.2018412,35.9097288 15.4432021,35.0809122 16.7007169,34.2723915 C17.5001252,33.7583679 18.3198294,33.2766519 19.1316637,32.7820957 C19.6688826,32.4552909 20.2661607,32.5762377 20.8443856,32.5526282 C21.2469891,32.7709122 21.4632021,33.1817998 22.0211311,33.2878353 C22.6565157,33.4091963 23.8349181,35.1273028 23.927285,35.8343442 C23.9956282,36.3578945 23.7102436,36.8578353 23.5503619,37.361504 C23.2707761,38.2437525 22.8781134,39.0613856 22.2729654,39.7700838 C22.2079359,39.8467111 22.1234388,39.978427 22.1482909,40.0488412 C22.3562199,40.6328649 21.6620187,40.8345809 21.6313678,41.3100838 C21.0345039,41.6575986 20.7603027,42.2789004 20.3659832,42.7987229 C20.2984684,42.8877762 20.1381725,42.9598472 20.1385867,43.0393738 C20.1468708,44.0806756 19.3147406,44.6646992 18.8483501,45.4450543 C18.7029654,45.6886046 18.5004211,45.9019182 18.3823737,46.1562377 C18.3007761,46.3310306 18.3198294,46.5517998 18.2941489,46.751859 C18.4565157,46.7717406 18.5588234,46.8160602 18.5952731,46.7841667 C19.3723146,46.1077762 20.1058649,45.3750543 20.9218412,44.7512673 C21.9846814,43.939433 22.9095927,42.963575 24.0548589,42.2457643 C24.6020187,41.9023915 25.0120779,41.3602022 25.5550956,40.9658827 C26.5562199,40.2393738 27.4103027,39.3045217 28.430066,38.6099063 C30.1825512,37.4170069 31.6484092,35.8471844 33.5160424,34.8149951 C34.0019004,34.0420957 34.911072,33.7587821 35.502137,33.101859 C35.6611903,32.9245809 35.9167524,32.836356 36.1184684,32.694285 C36.4117228,32.4880128 36.7008353,32.2759418 36.9837347,32.056001 C38.1236163,31.1704389 39.2576992,30.2774211 40.3992376,29.3943442 C40.8813678,29.0219773 41.3895927,28.6823324 41.8646814,28.3012673 C43.2062791,27.2255868 44.6261607,26.258427 46.0153915,25.2486046 C46.7381725,24.7233975 47.3714862,24.080143 48.2226696,23.7446401 C48.8174625,22.8760602 49.7883501,22.4730424 50.5844447,21.8554685 C51.5470483,21.1090779 52.5378175,20.3987229 53.5211311,19.6788412 C54.791072,18.7489596 56.063498,17.8228057 57.3388234,16.9003797 C58.1485867,16.3151134 58.9629063,15.735646 59.7801252,15.1603205 C60.7708944,14.4628057 61.7848589,13.8000838 62.7632021,13.081859 C64.2505986,11.9904389 65.8075808,10.9934566 67.3401252,9.96416668 C69.2533205,8.67890041 71.1652731,7.39156313 73.0904802,6.12410751 C74.1512495,5.42576432 75.2327288,4.75807201 76.3133796,4.0907939 C77.6007169,3.29594183 78.8830838,2.49032053 80.1952731,1.73730278 C81.1413086,1.19469923 82.1163382,0.708427039 83.0130838,0.0751134292 C83.2321962,-0.0793836122 83.6530246,0.0523323641 84.1119595,0.0523323641 C83.9910128,0.240379701 83.9375808,0.382036506 83.8369299,0.469432956 C83.5341489,0.732864908 83.2123146,0.975586802 82.8407761,1.27215485 C83.6459832,1.64700692 84.1699477,0.553101595 84.8384684,0.956119346 C84.6301252,1.16446254 84.405214,1.38895958 84.1803027,1.61345662 C84.2225512,1.68014301 84.2643856,1.74682941 84.3066341,1.8135158 C84.5456282,1.7443442 84.7842081,1.6751726 85.1014862,1.58321994 C85.1553323,1.99907793 85.2079359,2.40540929 85.2795927,2.96416668 C84.9975217,3.18866373 84.6309536,3.68156313 84.1707761,3.79505426 C83.6124329,3.93256905 83.4380542,4.62138562 82.7968708,4.56422586 C82.6299477,4.54931461 82.7421962,5.13002467 82.327995,4.98961047 C81.8839714,4.83842704 82.1407761,5.55748029 81.743143,5.44440337 C81.3720187,5.33878207 81.3488234,5.83209568 81.257285,5.82878207 C80.6790601,5.80972881 80.5212495,6.37842704 80.1058057,6.5764152 C79.6630246,6.78765781 79.2421962,7.066001 78.8569891,7.37168148 C78.5132021,7.64422586 78.1785276,7.87369331 77.7316045,7.94245071 C77.5737938,7.96647438 77.3240305,8.12759864 77.3145039,8.24233236 C77.2830246,8.62588266 77.0456873,8.56789449 76.7921962,8.62836787 C76.6099477,8.67185899 76.4960424,8.98250988 76.3104802,9.04008384 C76.0942672,9.10677023 75.8478175,9.04629686 75.9099477,9.39712526 C75.1387051,9.44020219 74.9481725,10.5142259 74.0924329,10.4235158 C74.0091785,10.4148176 73.8758057,10.504285 73.8294152,10.5846401 C73.2868116,11.5244625 72.2778175,11.879433 71.4688826,12.4833383 C70.290066,13.3631016 69.1133205,14.2457643 67.9291193,15.1172436 C66.9789418,15.8164152 66.0324921,16.5217998 65.0566341,17.1845217 C64.5380542,17.5365927 64.1619595,18.1678353 63.4035572,18.1028057 C63.3513678,18.0982495 63.2598294,18.1761193 63.2391193,18.2345217 C62.8245039,19.4042259 61.4771075,19.3512081 60.7613678,20.1265927 C60.6416637,20.2566519 60.4366341,20.3183679 60.3413678,20.4591963 C59.493498,21.7150543 58.0765157,22.2924507 56.9987643,23.2778353 C56.20764,24.0010306 55.2827288,24.5771844 54.4298885,25.2345217 C53.3711903,26.0500838 52.3278175,26.8851134 51.2720187,27.703575 C51.165569,27.786001 51.0197702,27.8199655 50.8888826,27.866356 C49.8181725,28.2449359 49.0692968,29.1010898 48.1547406,29.7128649 C47.9534388,29.8478945 47.7633205,30.0748767 47.6825512,30.3002022 C47.4986459,30.8138117 47.0214862,31.0714448 46.6329654,31.1534566 C46.2187643,31.2400247 45.9872258,31.4483679 45.7130246,31.6840483 C45.1733205,32.1479537 44.532137,32.5087229 44.2111311,33.1896696 C43.2323737,33.8010306 42.3762199,34.5851134 41.4894152,35.3058235 C40.7591785,35.899788 39.8951548,36.3595513 39.3152731,37.1589596 C38.9342081,37.6833383 38.3058649,37.9562969 37.7139714,38.1754093 C37.4671075,38.2669477 37.2310128,38.3199655 37.0707169,38.5283087 C36.8975808,38.7528057 36.7961015,39.0709122 36.5753323,39.2109122 C36.3330246,39.3641667 36.200066,39.5559418 36.0256873,39.7613856 C35.5356873,40.3387821 34.9943264,40.8971253 34.1435572,40.9174211 C34.0756282,40.9190779 33.9956873,40.9368886 33.9439122,40.9766519 C33.5715453,41.2641075 33.1722554,41.5262969 32.8466933,41.8609714 C32.4676992,42.2494921 31.9549181,42.5365335 31.7946223,43.1147584 C31.7772258,43.177717 31.6964566,43.2265927 31.6392968,43.2750543 C31.1658649,43.6755868 30.6969891,44.0823324 30.2144447,44.4712673 C29.731072,44.8606164 29.3665749,45.3593146 28.8156873,45.708072 C28.3116045,46.0265927 27.8394152,46.4399655 27.3357465,46.7895513 C27.0379359,46.9738708 26.5847998,47.0919182 26.472137,47.3553501 C26.1312495,48.1526874 25.0920187,48.1754685 24.8049773,48.9806756 C24.0271075,49.1786637 23.6824921,49.9573619 23.0218412,50.3139892 C22.8375217,50.4133975 22.5786459,50.4792554 22.4920779,50.6366519 C22.0261015,51.4865927 20.9963974,51.7533383 20.5242081,52.5842259 C19.8548589,52.7349951 19.5251548,53.2730424 19.1039122,53.741504 C18.7874625,54.093575 18.2945631,54.2865927 17.8803619,54.5500247 C17.8592376,55.1605572 17.209356,55.209433 16.9430246,55.6004389" id="Fill-403"></path>
                <path d="M89.4658412,13.1260128 C89.827853,13.046072 90.1898649,12.9661312 90.719214,12.8489122 C90.5162554,13.0796223 90.4479122,13.1579063 90.3572021,13.2610424 C90.4930601,13.3066046 90.6210483,13.3496815 90.7540069,13.394001 C90.8463737,13.752285 90.9756045,14.1735276 90.5626459,14.3640602 C90.3514033,14.4613975 90.0175572,14.293646 89.7077347,14.3694448 C89.8473205,14.4373738 89.9873205,14.5053028 90.1438885,14.5811016 C89.6787406,15.1431726 89.0570246,15.2351253 88.3760779,15.135717 C88.3503974,15.3900365 88.3321725,15.568143 88.3064921,15.8191489 C87.8173205,15.3999773 87.4432968,15.9185572 86.8986223,15.8783797 C87.0183264,16.1128176 87.0949536,16.2635868 87.171995,16.414356 C86.9955453,16.529504 86.8045986,16.6993264 86.5813441,16.7892081 C86.2624092,16.9176105 86.0337702,17.4800957 85.5702791,17.0331726 C85.5483264,17.0124625 85.4551311,17.0369004 85.4170246,17.0675513 C85.329214,17.1375513 85.2687406,17.2572554 85.1726459,17.2978472 C84.8197465,17.4461312 84.3956045,17.4954211 84.1164329,17.7253028 C83.8691548,17.9290898 83.8074388,18.3432909 83.6082081,18.6261904 C83.4926459,18.790214 83.2814033,18.9066046 83.0896282,18.9923442 C82.8858412,19.0838827 82.131995,19.4583205 82.0296873,19.704356 C81.917853,19.97193 81.7430601,19.8605099 81.5877347,19.9077288 C81.3889181,19.9682022 81.1714625,20.0195631 81.0115808,20.1413383 C80.8902199,20.2337051 80.8467288,20.4292081 80.7742436,20.5683797 C80.5824684,20.3989714 80.3956637,20.2332909 80.0688589,19.9441785 C80.1160779,20.387788 79.6956637,20.453646 79.8882672,20.8852436 C80.0025867,21.1416341 79.2963737,21.5313975 78.8676755,21.3599182 C78.5744211,21.242285 78.5972021,21.497433 78.4592731,21.5347111 C78.6908116,22.2177288 78.0806933,22.2632909 77.7236518,22.4882022 C77.5472021,22.5996223 77.0029418,22.9682614 76.9263146,23.0635276 C76.8587998,23.1459537 76.7722317,23.2126401 76.7009891,23.2797406 C76.6090365,23.2051844 76.5315808,23.1194448 76.4359004,23.0730543 C76.3808116,23.0465454 76.295072,23.0838235 76.1770246,23.0979063 C76.2466104,23.247433 76.3099832,23.3845335 76.369214,23.5121075 C76.3335927,23.5908057 76.3228234,23.6815158 76.2731193,23.7134093 C75.8883264,23.9606874 75.469569,24.1628176 75.111285,24.4428176 C74.2522317,25.1138235 73.4230009,25.8225217 72.5776163,26.5113383 C71.5280305,27.3658353 70.4552495,28.1892673 69.4827051,29.137788 C69.0279122,29.5818117 68.7470838,29.9028176 68.6070838,30.556427 C68.1721725,30.3306874 67.6788589,30.3410424 67.3015217,29.9521075 C66.9685039,29.6087347 66.6458412,30.0167229 66.2714033,30.1587939 C66.087498,29.3490306 66.777143,29.203646 67.0969063,28.8258945 C66.9900424,28.7194448 66.8835927,28.6129951 66.7858412,28.5148294 C66.5625867,28.6759537 66.3405749,28.8354211 66.0651311,29.0338235 C66.0179122,28.8370779 65.941285,28.7099182 65.9773205,28.6390898 C66.3848944,27.8359537 67.0542436,27.2589714 67.7206933,26.6840602 C67.909569,26.5216933 68.1419359,26.4086164 68.3250128,26.2408649 C69.7908708,24.8963679 71.4132968,23.7606282 73.0183264,22.5917525 C74.5169063,21.5007466 76.0991548,20.5397998 77.5927643,19.4483797 C78.0251903,19.1327584 78.615427,19.0677288 78.9293915,18.5793856 C80.3811666,18.0877288 81.3611666,16.7838235 82.8593323,16.3646519 C83.0635335,16.6769596 82.8166696,16.7100957 82.5403974,16.7925217 C82.3759595,16.8418117 82.4385039,17.0903324 82.1804566,17.2266046 C81.0923501,17.8023442 80.0701015,18.5031726 79.0275572,19.1642377 C78.9583856,19.208143 78.9186223,19.2988531 78.7301607,19.541575 C79.0532376,19.428498 79.1708708,19.3647111 79.2943027,19.3477288 C79.7379122,19.2889122 79.9272021,18.8175513 80.4072613,18.7392673 C80.789569,18.6767229 81.1532376,18.3387347 81.4684447,18.0591489 C82.1419359,17.4618708 82.9889773,17.1735868 83.741995,16.7196223 C84.2506341,16.4131134 84.6830601,15.9877288 85.284066,15.8063087 C85.5172613,15.7358945 85.6643027,15.3834093 85.8506933,15.1593264 C86.2375572,14.9335868 86.6331193,14.7211016 87.0083856,14.4775513 C87.3530009,14.2547111 87.7659595,14.2228176 88.0732968,13.8305691 C88.3748353,13.4453619 89.0491548,13.476427 89.4658412,13.1260128" id="Fill-405"></path>
                <path d="M42.4726045,43.6262554 C42.8255039,43.3868472 43.3461548,43.2203383 43.4898826,42.8898057 C43.6920128,42.425072 44.0722495,42.2908708 44.3994684,42.0485631 C44.7391134,41.797143 45.1193501,41.6020543 45.4689359,41.3643028 C45.8243205,41.1228235 46.202072,40.8966696 46.502782,40.5972022 C47.1505927,39.9527051 47.884143,39.4279122 48.6425453,38.931285 C48.8152672,38.8173797 49.0252672,38.7606341 49.2029595,38.6521134 C49.3798234,38.5435927 49.6146755,38.4379714 49.6892317,38.2710483 C50.0595276,37.442646 50.8535512,37.1332377 51.5473382,36.7161371 C51.9470424,36.4759004 52.2125453,36.5993324 52.6424862,37.0462554 C52.4925453,37.597143 51.802072,37.7491548 51.6773974,38.3443619 C51.6579299,38.4363146 51.2955039,38.4574389 51.0913027,38.509214 C50.7794092,38.5891548 50.9939654,39.1648945 50.5694092,39.0982081 C50.1953856,39.0393915 50.204498,39.3251904 50.062427,39.5066105 C50.0185217,39.5629418 49.7617169,39.4535927 49.5579299,39.41093 C49.4402968,39.6449537 49.2895276,39.9431785 49.1408294,40.238504 L48.7639063,40.238504 C48.5025453,40.5537111 48.304143,41.0163738 48.0378116,41.0602791 C47.6372791,41.1261371 47.7366873,41.7780898 47.2466873,41.6024685 C47.1857998,41.58093 47.0528412,41.6712259 46.996924,41.7432969 C46.8904743,41.8812259 46.842427,42.1463146 46.7235512,42.1765513 C46.2592317,42.295427 46.0881666,42.8152495 45.6805927,42.9337111 C44.9035512,43.1594507 44.3857998,43.7848945 43.6874566,44.1232969 C43.5474566,44.1908117 43.3975157,44.4008117 43.3917169,44.5507525 C43.3722495,45.0183856 43.1270424,45.1136519 42.7178116,45.2449537 C42.4067465,45.3447762 42.1089359,45.7432377 41.9751489,46.0770838 C41.7957998,46.5223501 41.2254447,46.0986223 41.1040838,46.5836519 C41.0436104,46.8263738 40.9081666,47.1995691 40.5415986,46.8002791 C40.4351489,46.9067288 40.2338471,47.0173205 40.2375749,47.119214 C40.260356,47.6609892 39.8138471,47.3760188 39.6026045,47.5098057 C39.4394092,47.6560188 39.9588175,47.7682673 39.5955631,48.0031193 C39.0471607,48.3572614 38.6147347,48.8915809 38.0613619,49.2332969 C37.8596459,49.3579714 37.7560956,49.4337702 37.6819536,49.6437702 C37.6376341,49.7684448 37.4495867,49.9556637 37.3721311,49.9357821 C36.7210069,49.768859 36.426924,50.2522318 36.0487583,50.5972614 C36.0346755,50.6101016 35.8934329,50.4837702 35.7836696,50.4013442 C35.6101193,50.6457229 35.8366873,51.1829418 35.2721311,51.1767288 C35.1934329,51.1759004 35.086569,51.3117584 35.0368649,51.4074389 C34.5617761,52.3157821 34.5696459,52.3236519 33.7660956,52.8923501 C33.6211252,52.995072 33.696924,53.6151312 33.2640838,53.1255454 C33.2586992,53.1193324 33.0118353,53.2531193 32.9944388,53.3438294 C32.846569,54.1138294 32.1560956,54.4236519 31.6909477,54.9227643 C31.0829004,54.8332969 30.9139063,55.4160779 30.5336696,55.6753679 C30.2839063,55.8456046 30.0043205,55.9052495 30.0088767,56.3596282 C30.0121903,56.6781489 29.5917761,56.8243619 29.1767465,56.6777347 C29.3312436,56.4329418 29.4828412,56.1927051 29.6775157,55.8841253 C29.5085217,55.8969655 29.4339654,55.8803975 29.4066282,55.9089773 C29.2604152,56.0609892 29.0901785,56.153356 28.9510069,55.9503975 C28.9037879,55.8812259 28.9783441,55.6318767 29.0628412,55.5854862 C29.6153856,55.2835335 29.8605927,54.7442436 30.1613027,54.2451312 C30.6102968,54.2795099 30.6102968,54.2795099 30.7726637,54.6319951 C30.7991725,54.6485631 30.8488767,54.6804566 30.8492909,54.6796282 C31.0576341,54.3714625 31.6926045,54.4799833 31.6085217,53.7845395 C31.3616578,53.8963738 31.2307702,54.1018176 30.9317169,54.3461963 C31.0037879,54.0703383 31.0042021,53.8934744 31.0895276,53.7828827 C31.2216578,53.6118176 31.4022495,53.4722318 31.580356,53.3442436 C31.924143,53.0969655 32.1863323,52.7618767 32.2853264,52.3770838 C32.3677524,52.0581489 32.4460365,51.8580898 32.7798826,51.7437702 C32.9526045,51.6845395 33.0681666,51.4583856 33.2098234,51.3076164 C33.7296459,51.4211075 33.8634329,50.7542436 34.3277524,50.7546578 C34.302072,50.1569655 34.8902376,50.0973205 35.2058589,49.9341253 C35.6366282,49.711285 35.7120128,49.2308117 36.1502376,49.0232969 C36.6563915,48.7843028 37.0913027,48.3767288 37.5229004,48.0027051 C38.3264507,47.3051904 39.1030779,46.5770247 39.8975157,45.8687406 C39.998995,45.7780306 40.1514211,45.7453087 40.2553856,45.6562554 C40.5349714,45.4176756 40.7892909,45.1480306 41.0759181,44.9185631 C41.306214,44.7338294 41.522427,44.4691548 41.7233146,44.3477939 C42.0501193,44.1502199 42.2969832,43.9472614 42.4726045,43.6262554" id="Fill-407"></path>
                <path d="M26.883853,57.40793 C27.3071666,57.5098235 27.4426104,57.1204744 27.701072,56.9361548 C27.9168708,56.782072 28.0013678,56.3740838 28.4942672,56.5849122 C28.2809536,56.7021312 28.1020187,56.8007111 27.773143,56.9821312 C28.1629063,57.210356 28.3463974,57.3184625 28.5095927,57.414143 C28.1869299,57.9153264 27.5403619,58.0901193 27.8965749,58.9533146 C27.6033205,58.684498 27.5250365,58.6120128 27.4028471,58.5001785 C27.3750956,59.291717 26.9613086,59.7063324 26.1598294,59.7340838 C26.260066,59.8339063 26.3130838,59.8869241 26.4319595,60.006214 C25.8727879,60.5653856 25.2891785,61.1071608 24.7552731,61.694498 C24.2400069,62.2607111 23.5532613,62.6715986 23.2185867,63.4142614 C23.1659832,63.5318945 22.8325512,63.5231963 22.5914862,63.5815986 C22.6656282,63.6747939 22.7248589,63.7497643 22.7865749,63.8272199 C22.6378767,64.1809477 22.2414862,64.3263324 22.0973441,64.7492318 C21.9329063,65.2317762 21.6736163,65.1713028 21.1902436,64.7326637 C21.0974625,64.6481667 20.8361015,64.749646 20.5809536,64.7715986 C20.6078767,64.6804744 20.6111903,64.5011253 20.701072,64.3967466 C20.8717228,64.1987584 21.0891785,64.0417762 21.0096518,63.7336105 C21.2896518,63.4225454 21.8724329,63.3160957 21.7067524,62.7005927 C21.701782,62.6827821 21.7527288,62.6297643 21.7825512,62.6256223 C22.4908353,62.5245572 22.6461607,61.7843797 23.1527288,61.4227821 C23.7251548,61.0139655 24.1074625,60.3446164 24.5982909,59.8127821 C25.3484092,59.0001193 26.1208944,58.2085809 26.883853,57.40793" id="Fill-409"></path>
                <path d="M42.4726045,43.6262554 C42.2969832,43.9472614 42.0501193,44.1502199 41.7233146,44.3477939 C41.522427,44.4691548 41.306214,44.7338294 41.0759181,44.9185631 C40.7892909,45.1480306 40.5349714,45.4176756 40.2553856,45.6562554 C40.1514211,45.7453087 39.998995,45.7780306 39.8975157,45.8687406 C39.1030779,46.5770247 38.3264507,47.3051904 37.5229004,48.0027051 C37.0913027,48.3767288 36.6563915,48.7843028 36.1502376,49.0232969 C35.7120128,49.2308117 35.6366282,49.711285 35.2058589,49.9341253 C34.8902376,50.0973205 34.302072,50.1569655 34.3277524,50.7546578 C33.8634329,50.7542436 33.7296459,51.4211075 33.2098232,51.3076164 C33.2094092,50.6395099 33.7694092,50.2878531 34.188995,50.048859 C34.9001785,49.643356 35.3483441,48.9723501 36.0359181,48.5424093 C36.8361548,48.0420543 37.4669832,47.2778531 38.2009477,46.6635927 C39.3975749,45.6624685 40.6111844,44.6812259 41.8380483,43.7177939 C41.9834329,43.6034744 42.2576341,43.6527643 42.4726045,43.6262554" id="Fill-411"></path>
                <path d="M26.883853,57.40793 C26.1208944,58.2085809 25.3484092,59.0001193 24.5982909,59.8127821 C24.1074625,60.3446164 23.7251548,61.0139655 23.1527288,61.4227821 C22.6461607,61.7843797 22.4908353,62.5245572 21.7825512,62.6256223 C21.7527288,62.6297643 21.701782,62.6827821 21.7067524,62.7005927 C21.8724329,63.3160957 21.2896518,63.4225454 21.0096518,63.7336105 C20.7342081,63.9485809 20.4591785,64.1635513 20.149356,64.4054448 C20.1348589,64.2729004 20.073143,64.1221312 20.1191193,64.0736696 C21.4089418,62.7105335 22.3943264,61.0686401 23.877995,59.8939655 C24.1410128,59.6860365 23.9778175,59.2374566 24.4649181,59.1773975 C24.6827879,59.1504744 24.8261015,58.6898827 25.0460424,58.4678708 C25.2721962,58.2388176 25.5637938,58.0756223 25.8007169,57.8552673 C26.0206578,57.6502377 26.1983501,57.4000602 26.4087643,57.1838472 C26.6374033,56.9489951 26.8751548,56.7215986 27.1228471,56.5066282 C27.3846223,56.2792318 27.6629654,56.0708886 28.0519004,55.7598235 C27.9015453,56.5989951 27.1149773,56.8110661 26.883853,57.40793" id="Fill-413"></path>
                <path d="M16.9430246,55.6004389 C17.209356,55.209433 17.8592376,55.1605572 17.8803619,54.5500247 C18.2945631,54.2865927 18.7874625,54.093575 19.1039122,53.741504 C19.5251548,53.2730424 19.8548589,52.7349951 20.5242081,52.5842259 C20.9963974,51.7533383 22.0261015,51.4865927 22.4920779,50.6366519 C22.5786459,50.4792554 22.8375217,50.4133975 23.0218412,50.3139892 C23.6824921,49.9573619 24.0271075,49.1786637 24.8049773,48.9806756 C25.0920187,48.1754685 26.1312495,48.1526874 26.472137,47.3553501 C26.5847998,47.0919182 27.0379359,46.9738708 27.3357465,46.7895513 C27.2835572,46.9544034 27.2814862,47.1772436 27.1696518,47.2749951 C26.735569,47.655646 26.4265749,48.1568294 25.8537347,48.4152909 C25.3347406,48.6493146 25.067995,49.2267111 24.5295335,49.5377762 C23.8171075,49.9494921 23.247995,50.6105572 22.6196518,51.1668294 C21.9353915,51.7728057 21.2850956,52.4226874 20.5635572,52.9793738 C19.4974033,53.8023915 18.467285,54.6606164 17.485214,55.6004389 L16.9430246,55.6004389 Z" id="Fill-415"></path>
                <path d="M89.4658412,13.1260128 C89.0491548,13.476427 88.3748353,13.4453619 88.0732968,13.8305691 C87.7659595,14.2228176 87.3530009,14.2547111 87.0083856,14.4775513 C86.6331193,14.7211016 86.2375572,14.9335868 85.8506933,15.1593264 C85.1999832,15.2608057 84.7687998,15.7797998 84.1959595,16.0341193 C83.881995,16.1737051 83.6015808,16.3890898 83.1554862,16.6624625 C83.2031193,16.3567821 83.173711,16.1521667 83.2582081,16.0784389 C83.5502199,15.8228767 83.8641844,15.5809833 84.2021725,15.3908649 C85.5636518,14.6245927 86.9383856,13.8806874 88.3060779,13.1247702 C88.6113441,12.9561904 88.8967288,12.7482614 89.2111075,12.6016341 C89.4169654,12.5055395 89.6588589,12.4869004 89.9840069,12.409859 C89.7503974,12.7329359 89.6083264,12.9296815 89.4658412,13.1260128" id="Fill-417"></path>
            </g>
        </g>
    </g>
</svg>