<svg height="30" width="111" xmlns="http://www.w3.org/2000/svg"><g fill="none" fill-rule="evenodd"><path d="M101.988 25.532c1.657-.795 3.027-2.055 4.11-3.776 1.073-1.704 1.613-3.866 1.621-6.483H96.783v11.454h.002c1.811 0 3.546-.396 5.203-1.195" fill="#029f5f"/><path d="M96.783 3.818c-1.856 0-3.61.39-5.268 1.165-1.658.778-3.016 2.024-4.077 3.745-1.06 1.72-1.59 3.883-1.59 6.48v.065h10.935z" fill="#b43d51"/><path d="M106.096 8.728c-1.082-1.72-2.453-2.967-4.11-3.745a12.133 12.133 0 00-5.2-1.165h-.003v11.454h10.935l.001-.063c0-2.598-.54-4.76-1.623-6.481" fill="#e98a32"/><path d="M85.847 15.273c.01 2.617.538 4.779 1.59 6.483 1.061 1.721 2.42 2.98 4.077 3.776a11.983 11.983 0 005.269 1.195V15.273z" fill="#92266c"/><g fill="#fffffe"><path d="M102.795 12.478h.003V9.962a1.554 1.554 0 00-.973-.114c-.49.093-.667.364-.667.364v2.333s.395-.144.667-.174c.607-.067.893.101.97.107m-3.398-2.63a1.553 1.553 0 00-.973.114v2.516h.002c.077-.006.363-.174.971-.107.272.03.667.174.667.174v-2.333s-.177-.271-.667-.364"/><path d="M103.157 10.364v2.538l-.031-.003c-.004 0-.441-.041-.828-.041-.1 0-.188.003-.262.008a7.242 7.242 0 00-.878.128v.097h2.187v-2.727zm-4.233 2.494c-.387 0-.824.04-.828.04l-.031.004v-2.538h-.188v2.727h2.187v-.097a7.225 7.225 0 00-.878-.128 3.602 3.602 0 00-.262-.008m1.921 5.398c.237-.034.47.007.697.102l.162-.753-.094-.035a2.047 2.047 0 00-1.088-.075c-.616.12-1.029.556-1.085 1.172-.02.22.016.46.06.678h-.526v.667h.626s.003.008.009.064c.026.24.001.47-.142.677-.133.196-.204.292-.416.4a.643.643 0 01-.078.028v.637h2.734v-.666h-1.586c.297-.26.41-.768.393-1.14h.819v-.667h-.885s-.056-.245-.061-.31c-.012-.16-.018-.096-.015-.256.007-.292.187-.481.476-.523M92.57 10.42l-.034-.026a.416.416 0 00-.222-.111.557.557 0 00-.102.022 5.455 5.455 0 01-.341.548.19.19 0 00-.022.03h-.002a.595.595 0 01-.539.242h-.004a.561.561 0 01-.198-.037c-.208-.063-.267-.158-.283-.205l-.002-.005a.116.116 0 01-.004-.018v-.006l-.003-.02.012-.024c.09-.19.204-.4.315-.602.058-.107.115-.212.167-.311l.001-.002.033-.063.007-.014-1.585.17-.352-.017a2.68 2.68 0 00-.245.713c-.076.371-.022.709.006.843l.3.053c.026-.072.052-.145.08-.216a.39.39 0 01.325-.25.413.413 0 01.369.126.393.393 0 01.037.05.47.47 0 01.31-.076.402.402 0 01.318.224.46.46 0 01.278-.04.385.385 0 01.318.28.45.45 0 01.218-.017.375.375 0 01.312.296l.025.022c.018.016.194.155.336.265.185.146.3.236.32.254a.19.19 0 00.13.047.193.193 0 00.17-.095c.036-.066.022-.134-.038-.188l-.537-.431-.264-.212-.076-.063.174-.172.08.07c.026.024.263.211.471.377.267.211.432.341.46.366a.2.2 0 00.132.05.194.194 0 00.17-.097c.037-.064.025-.133-.032-.185l-.414-.331a31.76 31.76 0 01-.403-.324l-.072-.064.174-.167.078.067.503.401.321.256a.208.208 0 00.208.024.153.153 0 00.093-.114.164.164 0 00-.053-.146c-.212-.166-.618-.495-1.424-1.146m-.482 2.219a29.536 29.536 0 01-.12-.095c-.028.079-.056.158-.085.235a.31.31 0 01-.02.046c.037.03.131.103.219.17l.053.047c.01.01.022.017.034.025l.015.01c.064.025.139.013.182-.029a.138.138 0 00.025-.168 19.044 19.044 0 00-.303-.24"/><path d="M95.038 10.418a2.033 2.033 0 00-.31-.6c-.24.054-.407.1-.502.125-.084.024-.104.03-.13.03l-.158-.01-.666-.038-.388-.023a74.827 74.827 0 01-.625-.038l-.088-.008c-.064-.006-.135-.013-.197-.013a.28.28 0 00-.095.01 4.27 4.27 0 00-.083.143l-.033.058c-.05.09-.108.187-.166.284-.097.165-.199.336-.282.493h.002c.027.021.07.047.12.066.04.016.086.027.132.027h.005c.158-.001.275-.049.358-.146v-.001a4.364 4.364 0 00.353-.52l.002-.002.009-.016h.001l.018-.013c.03-.02.108-.05.225-.062l.014-.001a.176.176 0 01.02-.001c.134 0 .261.083.345.146l.003.002.03.023a249.16 249.16 0 001.519 1.122c.043-.028.099-.07.12-.088.045-.046.182-.111.549-.22a1.945 1.945 0 00-.102-.729m-3.334 2.13a.313.313 0 00-.038-.003c-.085 0-.161.034-.19.083a3.746 3.746 0 00-.155.3c-.003.005-.002.01-.004.015a.09.09 0 00.018.075.158.158 0 00.059.049.279.279 0 00.219.003.181.181 0 00.088-.07l.005-.005.072-.139.065-.127c.008-.013.01-.027.015-.041a.215.215 0 01.004-.015c-.008-.063-.073-.115-.158-.125m-.962-.445c-.028-.057-.074-.095-.123-.101a.174.174 0 00-.19.127l-.093.326-.064.221a10.44 10.44 0 00-.033.114l-.008.027a.253.253 0 00-.008.098.218.218 0 00.03.088.17.17 0 00.147.088h.001a.143.143 0 00.064-.016.173.173 0 00.08-.082c.007-.015.014-.028.019-.045l.019-.066.045-.16c.04-.145.082-.294.13-.44a.235.235 0 00-.016-.179m.431-.099a.161.161 0 00-.038-.004c-.074 0-.135.05-.159.13-.064.217-.127.435-.189.653l-.008.03a.281.281 0 00-.01.094.23.23 0 00.03.096.207.207 0 00.028.037c.031.032.072.05.118.05h.003a.15.15 0 00.081-.024.188.188 0 00.079-.11l.033-.114.165-.573a.213.213 0 00.01-.058c.003-.096-.061-.189-.143-.207m-1.175-.002c-.086.009-.143.041-.173.099l-.1.197-.035.069-.002.003-.01.031-.003.015a.115.115 0 00.012.039c.02.04.064.072.124.084a.3.3 0 00.115 0 .22.22 0 00.105-.047l.007-.006a.264.264 0 00.042-.061l.01-.018.031-.06a1.73 1.73 0 00.097-.206c.011-.031-.002-.066-.036-.094a.258.258 0 00-.184-.045m2.135 7.634c-.197 0-.27.146-.27.146v2.031a4.005 4.005 0 00.546-.01v-2.021s-.08-.146-.276-.146m.783-1.411c-.437.497-.51 1.179-.507 1.179.004 0 .68-.57.68-.57s.058.035.083.08a.445.445 0 01.038.115l-.685.564c0 .023.515.158 1.088-.206.796-.503.983-1.932.983-1.932s-1.225.251-1.68.77m-1.16.77l-.85-.385s.004-.062.027-.106c.023-.043.085-.083.085-.083s.84.393.844.393c.004 0-.17-.58-.73-.945-.583-.38-2.004-.414-2.004-.414s.401 1.209 1.369 1.525c.697.229 1.262.036 1.259.015"/></g><path d="M22.07.545H2.496a2.42 2.42 0 00-1.79.755A2.546 2.546 0 000 3.093c0 .695.249 1.312.72 1.784.47.473 1.084.723 1.776.723H9.67v21.774c0 .722.263 1.366.759 1.864a2.562 2.562 0 001.855.762c.711 0 1.355-.26 1.864-.75.517-.5.79-1.149.79-1.876V5.6h7.133c.685 0 1.302-.245 1.785-.71a2.438 2.438 0 00.75-1.797c0-.695-.254-1.319-.739-1.806A2.485 2.485 0 0022.07.545M49.8 0c-.735 0-1.39.276-1.894.797a2.656 2.656 0 00-.758 1.882v15.793c0 1.41-.322 2.615-.956 3.58a5.963 5.963 0 01-2.537 2.194 8.167 8.167 0 01-3.466.753 8.173 8.173 0 01-3.465-.753 5.967 5.967 0 01-2.537-2.194c-.634-.964-.956-2.168-.956-3.58V2.679c0-.724-.272-1.38-.79-1.893A2.645 2.645 0 0030.54 0c-.735 0-1.39.276-1.894.797a2.656 2.656 0 00-.758 1.882v15.674c0 2.518.614 4.69 1.824 6.454 1.201 1.75 2.77 3.07 4.66 3.926A14.033 14.033 0 0040.19 30c2.002 0 3.96-.426 5.819-1.267 1.891-.855 3.46-2.177 4.66-3.926 1.21-1.764 1.825-3.936 1.825-6.454V2.68a2.62 2.62 0 00-.79-1.893A2.646 2.646 0 0049.8 0m28.667 22.864c-.398 0-.77.083-1.117.254a17.615 17.615 0 01-3.275 1.316c-1.037.292-2.262.44-3.64.44-2.127 0-3.95-.431-5.421-1.283-1.457-.843-2.568-2.01-3.301-3.469-.75-1.49-1.13-3.213-1.13-5.122 0-1.91.38-3.633 1.13-5.123.732-1.458 1.843-2.625 3.301-3.468 1.471-.852 3.295-1.284 5.42-1.284 1.38 0 2.604.149 3.64.44a17.77 17.77 0 013.288 1.323c.333.164.704.248 1.105.248.711 0 1.327-.247 1.78-.715a2.307 2.307 0 00.68-1.631c0-1-.46-1.775-1.316-2.236A21.8 21.8 0 0075.176.666C73.676.224 71.96 0 70.074 0c-2.798 0-5.35.612-7.586 1.819-2.252 1.215-4.047 2.984-5.334 5.258-1.279 2.26-1.927 4.925-1.927 7.923 0 2.999.648 5.664 1.927 7.923 1.286 2.273 3.08 4.042 5.334 5.258C64.724 29.388 67.276 30 70.074 30c1.886 0 3.603-.224 5.103-.666a21.719 21.719 0 004.422-1.882c.868-.468 1.327-1.243 1.327-2.242a2.29 2.29 0 00-.692-1.665c-.453-.446-1.064-.681-1.767-.681m22.486 1.363c1.415-.716 2.585-1.849 3.51-3.396.924-1.545 1.386-3.508 1.386-5.888 0-2.337-.462-4.281-1.387-5.829-.924-1.547-2.094-2.668-3.51-3.368a9.929 9.929 0 00-4.441-1.048 10.05 10.05 0 00-4.5 1.048c-1.416.7-2.575 1.82-3.481 3.368-.906 1.548-1.359 3.492-1.359 5.83 0 2.379.453 4.342 1.359 5.887.906 1.547 2.065 2.68 3.48 3.396a9.803 9.803 0 004.5 1.074 9.685 9.685 0 004.443-1.074zm3.141-22.357c2.188 1.244 3.886 3.01 5.094 5.292 1.207 2.284 1.812 4.894 1.812 7.84 0 2.941-.605 5.555-1.812 7.84-1.208 2.282-2.906 4.047-5.094 5.291C101.906 29.38 99.377 30 96.511 30c-2.907 0-5.454-.62-7.642-1.867-2.19-1.244-3.877-3.01-5.065-5.291-1.189-2.285-1.784-4.899-1.784-7.84 0-2.946.595-5.556 1.784-7.84 1.188-2.282 2.876-4.048 5.065-5.292C91.057.623 93.604 0 96.511 0c2.866 0 5.395.623 7.583 1.87z" fill="#000105"/></g></svg>