<svg width="50" height="16" xmlns="http://www.w3.org/2000/svg"><g fill="none"><path d="M45.849 11.938c.764-.351 1.396-.907 1.895-1.666.495-.752.744-1.705.748-2.86h-5.043v5.053a5.67 5.67 0 002.4-.527" fill="#029F5F"/><path d="M43.449 2.36a5.88 5.88 0 00-2.43.514c-.764.343-1.39.893-1.88 1.652-.489.759-.733 1.712-.733 2.858v.028h5.043V2.36z" fill="#B43D51"/><path d="M47.743 4.526c-.499-.76-1.13-1.31-1.895-1.652a5.808 5.808 0 00-2.398-.514h-.001v5.052h5.042v-.028c0-1.146-.249-2.1-.748-2.858" fill="#E98A32"/><path d="M38.406 7.412c.004 1.155.248 2.108.733 2.86.49.76 1.115 1.315 1.88 1.666a5.735 5.735 0 002.43.527V7.412h-5.043z" fill="#92266C"/><g fill="#FFFFFE"><path d="M45.853 6.085h.001V4.963a.66.66 0 00-.423-.051c-.213.041-.29.162-.29.162v1.04s.172-.064.29-.077c.264-.03.389.045.422.048m-1.477-1.173a.66.66 0 00-.424.051v1.122h.001c.034-.003.158-.078.423-.048.118.013.29.078.29.078v-1.04s-.077-.122-.29-.163"/><path d="M46.01 5.142v1.132l-.013-.001c-.002 0-.192-.019-.36-.019-.044 0-.082.002-.114.004-.136.01-.298.038-.382.057v.043h.951V5.142h-.082zm-1.84 1.112a3.89 3.89 0 00-.36.019h-.014v-1.13h-.081v1.216h.95v-.043a3.068 3.068 0 00-.381-.057 1.527 1.527 0 00-.114-.004m.835 2.406a.554.554 0 01.303.046l.07-.336-.04-.016a.869.869 0 00-.473-.033.563.563 0 00-.472.523 1.1 1.1 0 00.026.302h-.229v.298h.273l.003.028c.012.107 0 .21-.061.302a.423.423 0 01-.181.178.275.275 0 01-.034.013v.284h1.189v-.297h-.69c.129-.116.178-.342.17-.508h.357v-.298h-.385s-.024-.11-.026-.138c-.005-.071-.008-.043-.007-.114.003-.13.082-.215.207-.234m-3.598-3.494l-.014-.012a.178.178 0 00-.096-.05.237.237 0 00-.045.011 2.447 2.447 0 01-.149.244l-.01.013v.001a.255.255 0 01-.234.108h-.002a.239.239 0 01-.086-.017c-.09-.028-.116-.07-.123-.091l-.001-.003a.053.053 0 01-.002-.008V5.36l-.001-.01.005-.01c.04-.085.089-.178.137-.268l.073-.14.014-.028.003-.006-.689.075-.153-.007a1.215 1.215 0 00-.106.318.993.993 0 00.002.376l.13.023.035-.096a.17.17 0 01.142-.111.177.177 0 01.177.078.2.2 0 01.134-.034.174.174 0 01.138.1.196.196 0 01.121-.018.17.17 0 01.139.125.191.191 0 01.094-.008c.07.012.124.066.136.133l.01.01.147.118.139.113c.02.017.041.02.056.02.031 0 .06-.015.074-.042.016-.029.01-.06-.016-.084a73.838 73.838 0 00-.234-.192l-.114-.094-.033-.028.075-.077.035.031.205.168.2.163a.085.085 0 00.057.023.084.084 0 00.074-.043.064.064 0 00-.014-.083l-.18-.148a13.878 13.878 0 01-.175-.144l-.031-.028.075-.075.034.03.22.179.139.114a.089.089 0 00.09.01.068.068 0 00.04-.05.074.074 0 00-.022-.065c-.093-.074-.27-.221-.62-.512m-.209.991l-.053-.042-.036.105a.14.14 0 01-.01.02l.096.076.023.021.015.01a.093.093 0 01.006.005c.028.012.06.006.08-.012.02-.02.024-.05.01-.075-.015-.014-.085-.07-.131-.108"/><path d="M42.48 5.166a.915.915 0 00-.135-.267 3.979 3.979 0 00-.218.056.213.213 0 01-.056.012L42 4.963a64.636 64.636 0 01-.288-.017l-.17-.01a31.73 31.73 0 01-.271-.017l-.038-.003a.848.848 0 00-.086-.006.119.119 0 00-.041.004 1.982 1.982 0 00-.036.064l-.014.026-.073.127c-.042.073-.086.15-.122.22.012.009.03.02.053.029a.163.163 0 00.057.012h.002c.069 0 .12-.022.156-.065a1.953 1.953 0 00.154-.232v-.001l.004-.008.008-.005a.241.241 0 01.098-.028h.006l.01-.001c.057 0 .113.037.149.065l.001.001.013.01a108.545 108.545 0 00.66.5.576.576 0 00.053-.039c.02-.02.08-.05.239-.098a.888.888 0 00-.045-.325m-1.449.95a.133.133 0 00-.016-.001c-.037 0-.07.015-.082.037a1.685 1.685 0 00-.068.133l-.001.007a.04.04 0 00.007.033.07.07 0 00.026.022.119.119 0 00.095.001.08.08 0 00.038-.03l.003-.003.03-.062.03-.056.005-.019.002-.006c-.003-.028-.031-.052-.068-.056m-.419-.198c-.012-.026-.032-.043-.053-.046a.076.076 0 00-.082.056l-.041.147-.028.098-.014.051-.004.012a.116.116 0 00-.003.044.1.1 0 00.013.039c.014.025.038.04.064.04a.06.06 0 00.028-.008.076.076 0 00.035-.037c.003-.006.006-.012.008-.02l.008-.029.02-.072c.018-.064.036-.13.056-.196a.107.107 0 00-.007-.08m.188-.043a.068.068 0 00-.016-.002c-.033 0-.06.022-.07.057l-.082.292-.004.013a.128.128 0 00-.004.042c.002.015.006.03.013.043a.092.092 0 00.012.016.07.07 0 00.052.023h.001a.064.064 0 00.035-.011.084.084 0 00.035-.049l.014-.051.072-.255a.097.097 0 00.004-.026c.001-.043-.027-.084-.062-.092m-.511-.002c-.037.004-.062.019-.075.045l-.044.088-.015.03v.002l-.005.014c0 .002 0 .004-.002.006a.05.05 0 00.006.017.076.076 0 00.054.038.127.127 0 00.05 0 .094.094 0 00.045-.02l.003-.003a.118.118 0 00.019-.028l.004-.008.014-.027a.78.78 0 00.041-.091c.005-.014 0-.03-.015-.042a.11.11 0 00-.08-.02m.928 3.404c-.085 0-.118.065-.118.065v.906a1.698 1.698 0 00.238-.005v-.901s-.034-.065-.12-.065m.341-.63c-.19.222-.222.526-.22.526l.295-.254s.025.016.036.036c.011.02.017.051.017.051l-.298.252c0 .01.224.07.473-.092.346-.225.427-.862.427-.862s-.533.112-.73.343m-.505.343l-.37-.17s.003-.029.013-.048a.13.13 0 01.037-.037l.366.175a.82.82 0 00-.317-.421c-.254-.17-.871-.185-.871-.185s.174.54.595.68c.303.102.549.016.547.007"/></g><path d="M9.75.91H1.103c-.309 0-.582.116-.79.335A1.125 1.125 0 000 2.039c0 .307.11.58.318.79.208.21.48.32.785.32H4.27v9.642a1.145 1.145 0 001.155 1.163c.314 0 .599-.115.823-.332a1.13 1.13 0 00.35-.83V3.148h3.15c.303 0 .575-.109.789-.315a1.08 1.08 0 00.332-.795c0-.308-.113-.584-.327-.8A1.096 1.096 0 009.75.911M22 .91a1.12 1.12 0 00-.838.366 1.246 1.246 0 00-.335.864v7.248c0 .648-.142 1.2-.422 1.643a2.666 2.666 0 01-1.12 1.007c-.476.23-.991.346-1.531.346a3.5 3.5 0 01-1.531-.346 2.668 2.668 0 01-1.12-1.007c-.281-.442-.423-.995-.423-1.643V2.14c0-.332-.12-.633-.35-.869a1.147 1.147 0 00-.84-.36c-.324 0-.614.126-.836.365-.22.236-.335.534-.335.864v7.194c0 1.155.271 2.152.806 2.961a4.991 4.991 0 002.058 1.802 6.004 6.004 0 002.57.582c.885 0 1.75-.196 2.57-.582a4.99 4.99 0 002.06-1.802c.534-.81.805-1.806.805-2.961V2.14c0-.332-.12-.633-.348-.869a1.147 1.147 0 00-.84-.36m13.123 10.493c-.18 0-.348.038-.505.116-.502.264-1 .467-1.477.604-.468.135-1.02.202-1.642.202-.96 0-1.782-.198-2.446-.588a3.751 3.751 0 01-1.49-1.593c-.337-.683-.509-1.474-.509-2.35 0-.876.172-1.667.51-2.351.33-.67.832-1.205 1.49-1.592.663-.39 1.486-.59 2.445-.59.622 0 1.174.069 1.642.203.476.137.973.34 1.483.607.15.075.318.114.499.114.32 0 .598-.114.803-.329.2-.21.306-.468.306-.748 0-.459-.207-.815-.594-1.026a9.746 9.746 0 00-2-.867c-.677-.202-1.451-.305-2.302-.305-1.262 0-2.414.28-3.422.834a6.065 6.065 0 00-2.407 2.414c-.577 1.037-.87 2.26-.87 3.636 0 1.376.293 2.6.87 3.636a6.067 6.067 0 002.407 2.413c1.008.554 2.16.835 3.422.835.85 0 1.625-.103 2.302-.306a9.71 9.71 0 001.995-.864c.392-.214.599-.57.599-1.029a1.06 1.06 0 00-.312-.764 1.098 1.098 0 00-.797-.312m10.355.626c.637-.33 1.164-.849 1.58-1.56.416-.708.623-1.61.623-2.701 0-1.073-.207-1.965-.623-2.675-.416-.71-.943-1.225-1.58-1.546a4.452 4.452 0 00-4.025 0c-.637.32-1.159.835-1.566 1.546-.408.71-.612 1.602-.612 2.675 0 1.092.204 1.993.612 2.702.407.71.93 1.23 1.566 1.558a4.34 4.34 0 002.026.493c.696 0 1.362-.163 1.999-.493zm1.414-10.261c.984.57 1.749 1.381 2.292 2.428.544 1.049.816 2.247.816 3.599 0 1.35-.272 2.549-.816 3.598-.543 1.047-1.308 1.857-2.292 2.428-.985.572-2.123.857-3.413.857-1.308 0-2.455-.285-3.44-.857-.985-.57-1.745-1.381-2.28-2.428-.534-1.049-.802-2.249-.802-3.598 0-1.352.268-2.55.803-3.599.534-1.047 1.294-1.857 2.28-2.428.984-.572 2.13-.858 3.439-.858 1.29 0 2.428.286 3.413.858z" fill="#000105"/></g></svg>