<svg xmlns="http://www.w3.org/2000/svg" version="1.0" viewBox="0 0 127.525 47.045"><path d="M63.747 0L2.062 15.126c-.609.161-1.147.383-1.486.697-.437.408-.583.956-.576 1.455.008.468.155.975.546 1.364.362.361.922.621 1.606.788l61.595 15.096 61.626-15.096c.684-.167 1.245-.427 1.606-.788.392-.389.54-.896.546-1.364.009-.5-.137-1.047-.576-1.455-.338-.314-.876-.536-1.485-.697L63.747 0zm0 5.183h.03l50.016 12.065-50.015 12.094h-.03L13.731 17.248 63.747 5.183zm0 3.88l-29.342 7.275c-.375.09-.618.244-.728.364a.773.773 0 00-.212.546c0 .226.08.427.212.576.14.153.407.272.758.363l29.312 7.275h.03l29.283-7.274c.35-.092.648-.211.788-.364a.847.847 0 00.212-.576c0-.228-.077-.4-.212-.546-.109-.12-.383-.274-.758-.364L63.747 9.063zm0 4.76l13.641 3.364-13.64 3.365-13.641-3.365 13.64-3.365zm39.134 16.58c-1.169 0-2.122.913-2.122 2.031 0 .54.208 1.041.606 1.425a2.198 2.198 0 003.032 0 1.95 1.95 0 00.606-1.425c0-.54-.21-1.041-.606-1.424a2.196 2.196 0 00-1.516-.607zm0 .485c.44 0 .841.157 1.152.455.304.295.485.675.485 1.091 0 .864-.734 1.577-1.637 1.577-.44 0-.84-.156-1.152-.455a1.578 1.578 0 01-.485-1.122c0-.416.18-.796.485-1.09.31-.299.713-.456 1.152-.456zm-.788.607v1.88h.424v-.698h.243c.256 0 .414.126.545.697 0 0 .386.003.455 0-.11-.511-.259-.73-.364-.818l.03-.03c.194-.11.243-.248.243-.486v-.03c-.003-.122-.023-.28-.152-.394-.086-.078-.22-.121-.394-.121h-1.03zm.424.363h.485c.112 0 .173.025.212.091 0 .001.03.033.03.122 0 .08-.03.12-.03.12-.032.058-.082.122-.212.122h-.485v-.455zm8.821 5.578c-2.89 0-3.97.388-4.729 1.091-.644.596-.697 1.471-.697 2.365v2.697c0 .893.053 1.77.697 2.365.759.704 1.84 1.091 4.73 1.091h9.153c2.89 0 3.938-.387 4.699-1.091.644-.596.727-1.472.727-2.365v-2.697c0-.894-.083-1.77-.727-2.365-.76-.703-1.809-1.091-4.699-1.091h-9.154zm-109.67.03v6.093c0 .893.054 1.77.697 2.364.761.706 1.838 1.092 4.728 1.092h14.58v-9.549h-6.85v7.396h-4.092c-1.188 0-1.627-.163-1.94-.454-.264-.246-.273-.602-.273-.97v-5.972h-6.85zm25.644 0v9.549h5.577v-7.427h.85c1.19 0 1.626.164 1.94.455.264.245.302.603.302.97v6.002h5.547v-7.427h.819c1.19 0 1.627.164 1.94.455.265.245.303.603.303.97v6.002h5.577v-6.093c0-.893-.085-1.77-.727-2.364-.762-.706-1.838-1.092-4.729-1.092h-17.4zm28.494 0v9.549h15.307c2.574 0 3.556-.391 4.214-1 .835-.775.907-2.02.06-2.85-.57-.558-1.432-.925-3.455-1 1.778-.098 2.56-.421 3.092-.94.81-.795.833-1.989-.03-2.789-.645-.597-1.631-.97-4.153-.97H55.806zm25.159 0v9.549h5.577v-3.456h2.759c2.806 0 4.905.518 6.214 3.456h6.335c-1.39-2.79-3.293-3.832-4.456-4.244 1.433-.122 2.157-.348 2.668-.849.895-.877.976-2.431-.03-3.364-.735-.68-1.868-1.092-4.73-1.092H80.966zm5.577 2.092h6.639c.88 0 1.179.162 1.394.394.14.15.212.333.212.545.001.205-.082.366-.212.516-.211.24-.496.394-1.394.394h-6.639v-1.85zm-25.159.03h6.639c.776 0 1.053.099 1.242.303.124.134.182.3.182.485 0 .18-.066.354-.182.485-.185.213-.45.334-1.242.334h-6.639v-1.607zm51.38.03h4.062c1.19 0 1.627.166 1.94.455.265.245.303.604.303.97v3.82h-4.062c-1.19 0-1.626-.165-1.94-.455-.264-.246-.303-.603-.303-.97v-3.82zm-51.38 3.577h6.942c.807 0 1.106.12 1.303.334a.74.74 0 01.182.515c0 .186-.063.35-.182.485-.193.221-.48.364-1.303.364h-6.942v-1.698z"/></svg>