<svg viewBox="0 0 113 73" xmlns="http://www.w3.org/2000/svg"><g fill="none"><path d="M78.895 15.114c0 .376-.144.927-.432 1.65-.03.116-.116.333-.26.652-3.345.347-7.324 1.636-11.937 3.866-4.355 2.114-8.752 4.967-13.192 8.557-7.498 6.081-14.115 13.712-19.853 22.892-2.855 4.576-5.046 8.833-6.574 12.77l-.52 1.347a99.391 99.391 0 00-.864 2.346c-.693 2.432-1.587 3.649-2.682 3.649-.404 0-.923-.087-1.557-.26 3.258-6.893 4.887-14.553 4.887-22.98 0-5.936-.634-11.192-1.903-15.768-1.356-4.922-3.114-7.384-5.277-7.384-2.047 0-5.118 2.23-9.212 6.69l-.346-.826c4.584-5.097 8.477-7.645 11.678-7.645 2.45 0 4.368 1.868 5.752 5.603 1.615 4.403 2.422 10.15 2.422 17.245 0 3.968-.331 8.138-.994 12.51 1.384-2.49 3.56-6.153 6.53-10.99 3.835-5.704 7.858-10.743 12.068-15.116 8.073-8.368 16.955-14.537 26.644-18.504 2.133-.87 3.546-1.304 4.238-1.304.923 0 1.384.334 1.384 1" fill="#000"/><path d="M76 44.32c0 .224-.786 1.163-2.358 2.818-4.916 5.216-8.875 8.707-11.876 10.474-1.572.925-2.858 1.388-3.859 1.388-2.315 0-3.473-1.402-3.473-4.207 0-.84.157-2.088.472-3.743l-.6.637C49.704 56.563 45.816 59 42.644 59 40.215 59 39 57.72 39 55.158c0-2.59 1.486-5.56 4.459-8.91 2.144-2.421 4.816-4.518 8.017-6.292C55.05 37.986 58.307 37 61.251 37c3.83 0 5.746 1.22 5.746 3.66 0 2.3-1.687 4.122-5.06 5.468l-.17-.505c2.143-1.205 3.214-2.621 3.214-4.248 0-2.131-1.6-3.197-4.801-3.197-2.344 0-4.917.76-7.718 2.282-2.515 1.38-4.63 3.028-6.345 4.944-2.83 3.183-4.245 5.86-4.245 8.029 0 2.113 1.086 3.17 3.26 3.17 2.143 0 4.615-1.44 7.416-4.322a37.835 37.835 0 005.402-7.076c.43-.226.8-.339 1.115-.339.314 0 .657.21 1.029.631-2.087 3.422-3.13 6.338-3.13 8.75 0 1.823.772 2.734 2.315 2.734 1.572 0 4.073-1.472 7.503-4.417 2.772-2.383 4.916-4.444 6.431-6.184l1.03-1.177c.742-.842 1.214-1.262 1.414-1.262.229 0 .343.126.343.378" fill="#000"/><path d="M91.85 15.105c0-1.063-.43-1.594-1.293-1.594-1.293 0-3.047 1.874-5.26 5.623a65.263 65.263 0 00-3.708 7.344 75.95 75.95 0 00-3.407 9.777 58.868 58.868 0 00-1.034 4.575c2.04-2.238 4.469-5.498 7.287-9.778 4.943-7.47 7.416-12.785 7.416-15.947M100 43.893c0 .14-.532.783-1.595 1.93C90.327 54.608 84.276 59 80.252 59 76.084 59 74 55.63 74 48.887c0-5.148 1.222-10.757 3.665-16.828 3.19-7.945 6.381-13.778 9.572-17.5C88.703 12.855 90.025 12 91.204 12c1.265 0 1.897.812 1.897 2.434 0 3.133-2.5 8.589-7.502 16.366a86.59 86.59 0 01-4.097 5.833l-2.155 2.812-1.725 2.14c-.115.14-.36.448-.733.923-.202 1.147-.302 2.42-.302 3.819 0 7.078 1.725 10.617 5.174 10.617 2.932 0 7-2.588 12.203-7.764 2.299-2.293 3.88-3.958 4.742-4.993.403-.476.705-.714.906-.714.259 0 .388.14.388.42" fill="#000"/><path d="M108.735 42.035c0-1.12-.635-1.681-1.905-1.681-1.892 0-4.051 1.312-6.479 3.937-1.044 1.122-1.99 2.611-2.837 4.47a7.25 7.25 0 001.61.165c3.133 0 5.843-1.244 8.13-3.733.987-1.066 1.481-2.118 1.481-3.158m2.963 11.109C106.583 57.71 102.508 60 99.462 60c-1.609 0-2.921-.527-3.938-1.58C94.508 57.369 94 56.063 94 54.505c0-2.215.832-4.594 2.498-7.137a22.848 22.848 0 015.25-5.7c2.287-1.778 4.32-2.667 6.098-2.667 1.835 0 2.752.752 2.752 2.256 0 2.789-2.096 5.182-6.29 7.178-1.857.875-3.644 1.312-5.361 1.312-.282 0-.873-.04-1.773-.123-.366 1.286-.549 2.352-.549 3.2 0 1.367.43 2.501 1.289 3.403.86.903 1.993 1.354 3.403 1.354 2.648 0 5.903-1.667 9.764-5.004 0 0 1.52-1.306 1.868-1.002.348.304-1.184 1.51-1.251 1.57" fill="#000"/><path d="M6.876 28.343s5.268-7.401 13.196-7.401c12.414 0 11.294 26.018 11.294 26.018s2.906-6.34 2.906-17.89c0-14.539-8.569-17.931-16.578-17.931C9.686 11.139 0 15.58 0 15.58s7.196 1.696 6.876 12.762" fill="#328156"/><path d="M35 18.941S37.47 28.65 35 39c0 0 10.279-20.62 40-28.403 0 0-32.236-7.01-40 8.344" fill="#B4D448"/><path d="M34.437 16C37.252 11.585 42.243 8.563 48 8.269 45.911 3.42 40.889 0 35.016 0 29.11 0 24.066 3.46 22 8.354c5.28.605 9.807 3.52 12.437 7.646" fill="#FFD301"/></g></svg>