<svg width="123" height="171" xmlns="http://www.w3.org/2000/svg"><g fill-rule="evenodd"><path d="M4.456 54.046c-.074-.277-.216-.427-.477-.376-.45.086-.702.363-.727.828-.014.254.136.304.348.266.435-.078.637-.418.856-.718m-2.3 81.827c.444-1.25.732-2.539 1.105-3.806-.732 1.161-1.128 2.423-1.106 3.806M5.45 51.454c1.854-1.999 3.789-3.918 5.754-5.808-2.388 1.474-4.233 3.482-5.754 5.808M41.987 31.67c3.828-1.73 7.012-4.325 10.05-7.12-3.17 2.382-6.336 4.766-9.72 6.843-.12.075-.22.184-.33.277m43.776 96.195c-1.113 3.8-3.321 7.024-4.433 10.714 1.399-.986 5.01-9.476 4.433-10.714m-44.895 37.788c.747 0 1.5.065 2.239-.011 3.026-.311 6.012-.885 8.998-1.45 4.43-.84 8.517-2.722 12.71-4.267 1.934-.713 3.784-1.686 5.094-3.401 4.331-5.671 7.818-11.776 10.293-18.514 1.976-5.378 4.547-10.534 6.658-15.866a45.007 45.007 0 002.901-11.885c.36-3.409.158-6.828.182-10.244.02-2.809-.03-5.616.147-8.434.124-1.985-.32-4.053-.491-6.086-.3-3.58-.246-7.116.842-10.59a44.12 44.12 0 014.055-9.137c3.42-5.836 7.71-11.035 12.207-16.055 2.416-2.696 4.786-5.418 6.784-8.44 3.676-5.56 5.44-11.7 5.287-18.348-.118-5.198-2.395-9.234-6.88-11.976-7.794-4.766-16.023-6.29-24.857-3.388-6.842 2.248-12.934 5.82-18.506 10.356-3.476 2.829-6.65 5.996-10.115 8.834-4.72 3.866-9.517 7.616-15.077 10.245-4.302 2.034-8.825 3.466-13.374 4.81-3.883 1.15-7.586 2.7-11.084 4.735-4.038 2.348-7.448 5.353-9.808 9.446-.28.488-.29.482-.93.495-.193.004-.205.165-.27.294-.591 1.179-.977 2.408-.993 3.74-.01.9.337 2.188.03 2.621-.99 1.39-.245 2.737-.063 3.908.227 1.453.607 2.961 1.052 4.417 1.118 3.655 2.401 7.244 4.222 10.602 1.669 3.08 3.286 6.187 3.768 9.676.139 1.01 1.357 2.165.057 3.245 0 0 .09.1.13.161.69 1.064 1.039 2.265 1.092 3.5.05 1.178.472 2.28.522 3.445.082 1.88.78 3.708.376 5.64-.183.879-.14 1.811-.142 2.72-.003 2.021-.688 3.947-.795 5.974-.04.76-.702 1.724-1.068 2.593-1.31 3.117-3.633 5.49-5.671 8.091-1.918 2.446-4.072 4.844-4.274 8.197-.081 1.353-.484 2.78.214 4.05 1.878 3.412 2.865 7.28 5.441 10.339 2.005 2.38 3.35 5.265 5.793 7.333 2.39 2.023 4.67 4.201 7.43 5.696 1.354.733 2.727 1.484 4.317 1.835 3.82.843 7.664 1.148 11.557 1.094M72.488 8.201c.21-.064.439-.096.63-.198 4.769-2.536 9.74-4.545 15.012-5.778.19-.045.452-.039.565-.331-.357.05-.692.09-1.024.148-4.377.761-8.435 2.432-12.376 4.41-.98.492-2.055.875-2.788 1.772-1.175.082-1.892 1.073-2.909 1.481a.407.407 0 00-.099.67c.09.092.215.15.271.043.592-1.128 2.028-1.217 2.717-2.217M59.163 25.37c1.365-.85 2.45-2.009 3.534-3.17-1.167 1.068-2.577 1.868-3.512 3.192-.996.353-1.632 1.162-2.344 1.875a7.277 7.277 0 002.322-1.898M89.27 133.904c-.792 2.167-1.55 4.32-3.153 6.104-.97 1.078-1.742 2.376-2.38 3.683-.232.474-.658.618-.9 1.042-.565.99-.773 2.109-1.497 3.071-1.632 2.169-3.243 4.347-4.946 6.465-1.124 1.398-2.176 2.866-3.344 4.231-2.177 2.543-4.955 4.248-8.039 5.462-3.563 1.403-7.093 2.925-10.736 4.088-6.787 2.168-13.716 3.041-20.886 2.186-4.32-.515-8.527-1.331-12.229-3.537-5.92-3.529-10.801-8.228-14.249-14.29-.13-.227-.295-.433-.45-.645-1.41-1.916-2.682-3.896-3.329-6.23-.32-1.154-.794-2.263-1.316-3.352-1.55-3.23-1.253-6.484 0-9.724 1.26-3.262 3.365-6.03 5.718-8.486 3.144-3.28 4.62-7.085 5.089-11.482.437-4.09-.28-8.05-1.01-12.026-.446-2.44-.846-4.89-1.326-7.323-.775-3.922-2.579-7.418-4.432-10.922C3.443 77.656 1.6 72.852.485 67.786c-.933-4.239-.473-8.401.97-12.398.832-2.302 1.913-4.562 3.666-6.428 1.705-1.816 3.426-3.594 5.46-5.045 4.89-3.487 10.279-5.933 15.993-7.714 6.524-2.033 12.878-4.438 18.452-8.533 4.13-3.035 8.06-6.31 11.835-9.774 5.14-4.717 10.524-9.109 16.745-12.356C79.636 2.39 85.936-.061 92.829 0c10.376.096 19.26 3.763 25.553 12.297 4.654 6.312 5.408 13.546 3.887 21.097a128.92 128.92 0 01-.87 4.08c-.82 3.478-2.234 6.675-4.311 9.608-1.21 1.709-2.516 3.345-3.728 5.036-1.422 1.984-3.006 3.803-4.644 5.575-1.896 2.054-3.576 4.257-5.173 6.538-.556.794-1.438 1.276-1.976 2.131-2.034 3.233-4.149 6.418-5.6 9.974-.785 1.92-1.584 3.79-1.739 5.954-.094 1.326-.013 2.648-.129 3.966-.173 1.974.168 3.92.482 5.849.12.74-.778 1.34-.584 1.391 1.046.278.31.867.332 1.294.012.253-.148.53-.091.762.972 3.943.552 7.97.635 11.952.077 3.697.4 7.463-.6 11.087-.365 1.321-.63 2.678-1.015 3.999-.462 1.584-1.314 3.07-1.456 4.724-.2 2.328-1.377 4.279-2.225 6.36-.046.115-.218.179-.333.27.109-1.24 1.124-2.165 1.16-3.44-.87 1.85-1.957 3.6-2.407 5.638l1.273-2.239"/><path d="M51.057 43.472c2.43-1.426 4.4-3.38 6.245-5.478-2.074 1.835-4.112 3.71-6.245 5.478zm14.048-12.205l-.243-.259c-2.129 1.946-4.436 3.693-6.285 5.952l6.528-5.693zM16.152 134.355c-1.248 1.238-1.816 5.08-.997 5.871.234-1.945.24-3.964.997-5.871zM25.6 56.96c-2.928 1.984-5.541 4.26-6.806 7.725 2.013-2.801 4.225-5.422 6.806-7.725zm43.503-29.223c4.895-3.835 10.029-7.238 15.773-9.654-3.763.498-14.2 7.396-15.773 9.654zm-1.722 91.461c-1.17 2.337-1.894 4.839-2.583 7.335-.705 2.553-1.656 5.018-2.48 7.524-.78 2.37-1.908 4.625-2.882 6.93 4.17-6.724 5.724-14.371 7.945-21.789zM25.497 81.694c.02-.143-.013-.35.07-.417.148-.121.224.063.323.172.279.307.148.77.531 1.076.706.566 1.192 1.277 1.544 2.176.3.766 1.118 1.323 1.676 1.998.125.15.281.405.12.619-.298.396-.059.526.27.62.406.114.621.421.76.775.497 1.276 1.16 2.488 1.308 3.893.096.907.242 1.99.578 2.652.935 1.843.97 3.786.88 5.632-.08 1.672-.401 3.384-.324 5.06.066 1.446-.662 2.625-.864 3.973-.246 1.63-1.376 3.054-1.6 4.75-.137 1.04-1.236 1.832-1.226 2.657.021 1.906-1.668 2.932-1.966 4.652-.095.546-.319 1.365-.794 1.885-.977 1.068-1.263 2.546-2.275 3.61-1.274 1.34-1.936 3.133-3.294 4.462-.816.8-1.454 1.83-2.168 2.75-.647.831-.59 2.121-.803 3.22-.31 1.592.604 2.832 1.016 4.23.985 3.341 3.038 6.103 5.44 8.332 4.694 4.352 10.315 5.782 16.565 3.504.635-.23 1.268-.464 1.908-.679 3.753-1.26 6.995-3.342 10.006-5.898 3.94-3.345 5.807-8.01 7.99-12.425.764-1.545 1.06-3.438 1.637-5.153.395-1.174.82-2.346 1.092-3.55.274-1.215.647-2.396 1.01-3.58.363-1.182.874-2.324 1.162-3.522.256-1.065.78-2.017 1-3.122.296-1.476.777-2.946 1.178-4.42 1.442-5.298 2.52-10.666 3.17-16.122.36-3.024.621-6.076 1.248-9.048 2.023-9.607 6.446-18.094 12.54-25.723 2.723-3.41 5.612-6.687 8.463-9.993 4.082-4.733 6.297-10.366 7.966-16.276 1.038-3.675.858-7.305-.49-10.85-.77-2.022-1.915-3.709-4.333-4.108-2.25-.371-4.447.162-6.575.555-1.265.235-2.644.836-3.913 1.45-3.047 1.475-6.137 2.867-8.786 5.013-.63.51-1.416.578-2.046 1.088-.807.652-1.37 1.533-2.251 2.12-.505.335-1.11.368-1.577.799-2.955 2.73-6.295 5.025-8.962 8.086-.926 1.062-2.07 1.933-3.078 2.927a36.534 36.534 0 01-13.159 8.345c-6.086 2.236-11.766 5.233-17.08 8.895-2.03 1.4-4.207 2.72-5.664 4.85-.844 1.234-1.93 2.493-2.062 3.907-.196 2.093-.409 4.277.304 6.362.172.503-.135 1.203-.028 1.375.412.66.66 1.407 1.107 2.04.965 1.368 2.294 2.537 2.456 4.376zm-1.156 40.348c.32-.12.4-.442.51-.698 1.054-2.438 2.192-4.846 2.896-7.417.413-1.505 1.136-2.94 1.112-4.552-.728 2.853-1.996 5.514-2.897 8.303-.478 1.48-1.372 2.811-1.597 4.386-1.287 1.697-1.918 3.736-2.959 5.562 1.1-1.798 2.394-3.497 2.935-5.584zm47.77-6.783c-.045-.275-.002-.519-.276-.656-.048.422-.388.825.17 1.196.326.215.02.564-.063.824a706.38 706.38 0 00-2.202 7.032c-.688 2.231-1.51 4.431-2.026 6.716-.26 1.147-.815 2.178-1.237 3.26-.194.497-.357.972-.357 1.512 0 1.098-.076 1.127-1.092.55-.085-.049-.213-.02-.35-.028 0 .122-.038.243.005.315.648 1.076.51 2.365-.25 3.4-.502.684-.959 1.376-1.176 2.274-.326 1.351-1.253 2.415-2.329 3.304-.097.08-.32.043-.33.231-.06 1.114-.957 1.649-1.634 2.312-.646.634-1.442 1.096-2.049 1.792-1.038 1.191-2.206 2.177-3.63 2.97-.656.367-1.323 1.062-2.055 1.349-2.702 1.06-5.353 2.245-8.09 3.232-4.625 1.669-9.18 1.18-13.77.065-2.7-.655-5.142-1.863-7.373-3.522-.854-.635-1.544-1.407-2.245-2.191-2.68-2.995-4.558-6.423-5.502-10.32-.604-2.495-.223-4.935 1.027-7.182.329-.59.582-1.366 1.692-1.232.483.058.963-.84 1.338-1.412 2.65-4.034 4.805-8.32 6.54-12.822 1.828-4.74 3.422-9.529 4.037-14.616.447-3.693-.052-7.235-.952-10.799-.72-2.854-2.21-5.24-3.91-7.564-1.275-1.74-2.415-3.58-3.673-5.333-.447-.621.116-1.018.249-1.817-.69.937-.802.749-1.096-.022-.293-.77-.83-1.489-1.255-2.235-.908-1.598-1.427-3.34-1.444-5.135-.007-.681-.363-1.25-.27-1.894.115-.813.171-1.646.401-2.428.406-1.382.661-2.839 2.012-3.778.373-.259.152-1.063.576-1.518 1.815-1.95 3.524-4.026 5.794-5.471a110.898 110.898 0 0116.982-8.835c4.125-1.719 8.064-3.89 11.315-7.083 4.785-4.697 9.818-9.12 14.996-13.374 4.909-4.034 10.168-7.495 16.2-9.661a28.85 28.85 0 017.812-1.634c3.83-.265 6.7 1.479 8.925 4.374 4.273 5.562 5.277 11.82 3.632 18.552-1.105 4.527-2.734 8.867-5.03 12.93-1.078 1.908-2.105 3.838-3.883 5.289-.849.692-1.303 1.86-1.955 2.8-2.23 3.212-5.035 5.966-7.254 9.197-.988 1.439-1.824 2.956-2.755 4.42-2.033 3.197-3.421 6.725-4.95 10.165-1.34 3.018-1.826 6.317-2.31 9.585a472.1 472.1 0 01-1.67 10.55c-.346 2.027-.588 4.12-1.309 6.02-.5 1.319-.52 2.724-1.119 4.003-.344.734.026 1.739-.833 2.343z"/><path d="M59.633 100.813l.339.178c.362-.96 1.39-1.644.917-2.955l-1.256 2.777zm-21.57-36.124c-2.35.442-4.759 2.653-4.514 4.152 1.138-1.857 2.786-3.047 4.513-4.152zm19.903-14.196l-.207-.274-9.389 8.139.2.233 9.396-8.098zm9.035-8.632c2.942-2.172 5.966-4.219 9.216-5.921a193.921 193.921 0 019.978-4.884c-6.847 2.796-13.612 5.743-19.194 10.805zm-21.14 87.85c.792-1.29 1.752-2.428 2.398-3.839 1.462-3.191 3.158-6.277 4.55-9.509 2.072-4.815 4.254-9.578 6.812-14.16.16-.287.308-.576-.116-.992-5.088 9.322-8.704 19.23-13.644 28.5zm21.437-82.877c-1.326.594-1.982 1.877-2.933 2.856-1.25.726-1.942 2.035-3.054 2.912-1.919 1.513-3.888 2.978-5.682 4.63a50.658 50.658 0 01-12.36 8.41c-1.688.816-3.657.99-5.1 2.402-.882.863-1.954 1.56-2.034 2.913-.118 2.003.196 3.938 1.16 5.739 1.785 3.328 4.189 6.238 6.29 9.353 2.183 3.236 4.134 6.53 4.63 10.56.475 3.855.19 7.677-.037 11.505-.046.775-.57 1.515-.6 2.413-.039 1.254-.052 2.648-.848 3.676-1.437 1.854-1.913 4.117-2.854 6.175-.308.676-.12 1.67-.712 2.187-.791.69-1.004 1.598-1.383 2.464a3.051 3.051 0 01-.612.937c-.857.852-1.396 1.977-1.993 2.95-1.172 1.908-2.476 3.598-4.122 5.096-.475.432-1.224.38-1.509 1.053-.285.672-.809 1.17-1.358 1.633-.56.473-.848 1.093-1.07 1.817.41.118.676-.05.947-.15 1.704-.623 3.161-1.724 4.807-2.473 2.887-1.313 5.322-3.218 7.25-5.764 1.443-1.905 2.422-4.061 3.454-6.188 2.046-4.214 4.126-8.416 6.045-12.689a159.208 159.208 0 013.382-7.096c1.977-3.877 3.738-7.853 5.454-11.845 1.375-3.197 2.513-6.493 3.258-9.91.65-2.983 1.781-5.811 2.889-8.644 2.108-5.393 4.252-10.766 7.727-15.483 3.122-4.238 6.285-8.447 9.106-12.9 2.106-3.323 3.934-6.763 4.831-10.627.096-.415.403-.959.051-1.264-.299-.258-.786.081-1.163.23a86.051 86.051 0 00-11.45 5.563c-.666.386-1.257 1.257-2.276.83-.144-.06-.444.142-.357.315.309.61-.29.603-.52.755-1.449.958-2.88 1.94-4.293 2.95-1.106.79-1.874 1.918-2.96 2.71zm-29.203 78.118c.319-.022.41-.281.528-.511 1.483-2.91 2.582-5.99 3.929-8.958.646-1.426.425-3.136 1.51-4.403.185-.217.127-.43-.132-.542-.34-.146-.522.081-.56.358-.148 1.083-.665 2.032-1.024 3.04-.925 2.596-1.718 5.229-2.956 7.718-.515 1.035-1.085 2.125-1.27 3.323-.914 1.212-1.567 2.562-2.078 3.986.64-1.359 1.87-2.416 2.053-4.011zm40.188-63.09c.401.68.265 1.106-.005 1.765-.658 1.606-2.002 2.868-2.256 4.659-.09.64-.587 1.122-.891 1.66-.774 1.37-.923 2.963-1.62 4.297-.66 1.266-.943 2.653-1.617 3.89-.358.657-.232 1.475-.698 2.112-.314.43-1.091 3.1-1.181 3.615-.227 1.294-.49 2.583-.752 3.871-.044.222-.144.449-.445.401-.31-.048-.461.093-.342.369.447 1.033-.086 1.96-.483 2.771-1.156 2.36-2.159 4.785-3.173 7.2-.201.479-1.134.349-.802 1.303.168.481-.374 1.316-.75 1.94-.365.607-.61 1.286-.941 1.916-2.438 4.647-4.678 9.386-6.8 14.186-1.177 2.663-2.582 5.223-3.823 7.86-.313.665-.518 1.413-.728 2.126-.194.654-.477 1.593-1.277 2.004-.148.076-.24.144-.289.296-.977 3.078-3.603 4.688-5.945 6.49-1.677 1.292-3.722 2.055-5.624 2.947-1.177.551-2.26 1.43-3.632 1.623-1.374.195-2.74.443-4.134.471-1.352.028-2.602-.289-3.721-1.066-.587-.407-.676-.923-.42-1.577.634-1.62 1.59-2.976 3.064-3.939.564-.37 1.167-.689 1.542-1.292.268-.43.722.111 1.22-.378 1.762-1.733 2.86-3.84 3.989-5.958 2.34-4.386 4.082-9.025 5.76-13.689.726-2.018 1.103-4.122 1.433-6.238a45.51 45.51 0 00.44-4.02c.04-.624.292-1.137 1.058-.757.457.227.598-.105.813-.34.152-.168.121-.36-.025-.5-.268-.256-.5.01-.71.112-.858.418-1.138.169-1.095-.77.121-2.586.187-5.173-.485-7.715a16.833 16.833 0 00-1.415-3.631c-1.789-3.358-4.098-6.385-6.14-9.582-1.495-2.34-3.031-4.68-3.345-7.536-.074-.665-.601-1.475.318-2.015.051-.03.096-.124.092-.184-.178-2.613-.097-2.679 1.678-4.51 1.152-1.188 2.558-2.015 3.99-2.673 5.268-2.423 9.708-5.947 14.054-9.72 5.291-4.592 10.111-9.716 15.608-14.048 6.021-4.745 12.909-7.996 20.22-10.242 3.86-1.186 6.718 1.694 5.877 5.699-.84 3.999-2.356 7.741-4.37 11.302-2.313 4.088-4.963 7.96-7.527 11.883-.703 1.077-1.3 2.244-2.157 3.238-.445.515-.775.967-1.538.373z"/><path d="M67.298 46.835c-.665 1.272-1.71 2.155-2.934 2.855.952-.98 1.608-2.262 2.934-2.855"/></g></svg>