<svg xmlns="http://www.w3.org/2000/svg" viewBox="0 0 24 24"><path d="M21.458 16.5a4 4 0 00-4-4h-.5V12a1 1 0 00-1-1h-12a1 1 0 00-1 1v9.5a2.5 2.5 0 002.5 2.5h9a2.5 2.5 0 002.5-2.5v-1h.5a4 4 0 004-4zm-4 2h-.25a.249.249 0 01-.25-.25v-3.5a.25.25 0 01.25-.25h.25a2 2 0 010 4zM5.649 2.865a.25.25 0 00.016-.43L3.3.905a.5.5 0 00-.75.511l.422 2.53a.25.25 0 00.137.184.253.253 0 00.229 0zM3.646 5.094a.25.25 0 00-.1.335l2.22 4.3a.5.5 0 00.444.27h3a.5.5 0 00.439-.741l-3.026-5.5a.25.25 0 00-.339-.1zm9.892 2.199h-.006a3.528 3.528 0 01-.636-.349.252.252 0 00-.361.084l-1.242 2.229a.5.5 0 00.437.743h1.832a.5.5 0 00.468-.323l.67-1.784a.25.25 0 00-.2-.337 3.526 3.526 0 01-.68-.156 3.936 3.936 0 01-.282-.107zm3.479-4.478a3.68 3.68 0 00-2.811-2.8.5.5 0 00-.535.761c.529.806.21 1.282-.353 1.994a3.643 3.643 0 00-.542.819 2.038 2.038 0 001.151 2.784 2.046 2.046 0 002.245-.258 3.363 3.363 0 00.845-3.3z"/></svg>